# Sweet Home 3D optimized OBJ
mtllib adu-option-e-sweethome.mtl
o color_475761
usemtl color_475761
v 0.000000 609.600000 -304.800000
v 731.520000 609.600000 -304.800000
v 0.000000 487.680000 -609.600000
v 731.520000 487.680000 -609.600000
v 0.000000 477.012000 -609.600000
v 731.520000 477.012000 -609.600000
v 0.000000 598.932000 -304.800000
v 731.520000 598.932000 -304.800000
v 0.000000 487.680000 -0.000000
v 731.520000 487.680000 -0.000000
v 0.000000 609.600000 -304.800000
v 731.520000 609.600000 -304.800000
v 0.000000 598.932000 -304.800000
v 731.520000 598.932000 -304.800000
v 0.000000 477.012000 -0.000000
v 731.520000 477.012000 -0.000000
f 1 2 4
f 3 4 6
f 5 6 8
f 7 8 2
f 1 3 5
f 6 8 2
f 9 10 12
f 11 12 14
f 13 14 16
f 15 16 10
f 9 11 13
f 14 16 10
f 4 3 1
f 6 5 3
f 8 7 5
f 2 1 7
f 5 7 1
f 2 4 6
f 12 11 9
f 14 13 11
f 16 15 13
f 10 9 15
f 13 15 9
f 10 12 14
o color_59b3e0
usemtl color_59b3e0
v 721.995000 461.772000 -280.416000
v 721.995000 385.572000 -280.416000
v 721.995000 461.772000 -341.376000
v 721.995000 385.572000 -341.376000
v 725.805000 461.772000 -280.416000
v 725.805000 385.572000 -280.416000
v 725.805000 461.772000 -341.376000
v 725.805000 385.572000 -341.376000
v 721.995000 504.444000 -60.960000
v 721.995000 312.420000 -60.960000
v 721.995000 504.444000 -213.360000
v 721.995000 312.420000 -213.360000
v 725.805000 504.444000 -60.960000
v 725.805000 312.420000 -60.960000
v 725.805000 504.444000 -213.360000
v 725.805000 312.420000 -213.360000
v 457.200000 461.772000 -5.715000
v 457.200000 385.572000 -5.715000
v 457.200000 461.772000 -9.525000
v 457.200000 385.572000 -9.525000
v 533.400000 461.772000 -5.715000
v 533.400000 385.572000 -5.715000
v 533.400000 461.772000 -9.525000
v 533.400000 385.572000 -9.525000
v 721.995000 228.600000 -246.888000
v 721.995000 15.240000 -246.888000
v 721.995000 228.600000 -368.808000
v 721.995000 15.240000 -368.808000
v 725.805000 228.600000 -246.888000
v 725.805000 15.240000 -246.888000
v 725.805000 228.600000 -368.808000
v 725.805000 15.240000 -368.808000
v 721.995000 213.360000 -97.536000
v 721.995000 106.680000 -97.536000
v 721.995000 213.360000 -173.736000
v 721.995000 106.680000 -173.736000
v 725.805000 213.360000 -97.536000
v 725.805000 106.680000 -97.536000
v 725.805000 213.360000 -173.736000
v 725.805000 106.680000 -173.736000
v 5.715000 473.964000 -371.856000
v 5.715000 397.764000 -371.856000
v 5.715000 473.964000 -432.816000
v 5.715000 397.764000 -432.816000
v 9.525000 473.964000 -371.856000
v 9.525000 397.764000 -371.856000
v 9.525000 473.964000 -432.816000
v 9.525000 397.764000 -432.816000
v 5.715000 480.060000 -100.584000
v 5.715000 382.524000 -100.584000
v 5.715000 480.060000 -176.784000
v 5.715000 382.524000 -176.784000
v 9.525000 480.060000 -100.584000
v 9.525000 382.524000 -100.584000
v 9.525000 480.060000 -176.784000
v 9.525000 382.524000 -176.784000
f 20 19 17
f 21 22 24
f 17 21 22
f 24 20 19
f 22 24 20
f 19 17 21
f 28 27 25
f 29 30 32
f 25 29 30
f 32 28 27
f 30 32 28
f 27 25 29
f 36 35 33
f 37 38 40
f 33 37 38
f 40 36 35
f 38 40 36
f 35 33 37
f 44 43 41
f 45 46 48
f 41 45 46
f 48 44 43
f 46 48 44
f 43 41 45
f 52 51 49
f 53 54 56
f 49 53 54
f 56 52 51
f 54 56 52
f 51 49 53
f 60 59 57
f 61 62 64
f 57 61 62
f 64 60 59
f 62 64 60
f 59 57 61
f 68 67 65
f 69 70 72
f 65 69 70
f 72 68 67
f 70 72 68
f 67 65 69
f 17 18 20
f 24 23 21
f 22 18 17
f 19 23 24
f 20 18 22
f 21 23 19
f 25 26 28
f 32 31 29
f 30 26 25
f 27 31 32
f 28 26 30
f 29 31 27
f 33 34 36
f 40 39 37
f 38 34 33
f 35 39 40
f 36 34 38
f 37 39 35
f 41 42 44
f 48 47 45
f 46 42 41
f 43 47 48
f 44 42 46
f 45 47 43
f 49 50 52
f 56 55 53
f 54 50 49
f 51 55 56
f 52 50 54
f 53 55 51
f 57 58 60
f 64 63 61
f 62 58 57
f 59 63 64
f 60 58 62
f 61 63 59
f 65 66 68
f 72 71 69
f 70 66 65
f 67 71 72
f 68 66 70
f 69 71 67
o color_7a4d2b
usemtl color_7a4d2b
v 5.715000 243.840000 -67.056000
v 5.715000 15.240000 -67.056000
v 5.715000 243.840000 -362.712000
v 5.715000 15.240000 -362.712000
v 9.525000 243.840000 -67.056000
v 9.525000 15.240000 -67.056000
v 9.525000 243.840000 -362.712000
v 9.525000 15.240000 -362.712000
v 721.995000 222.504000 -481.584000
v 721.995000 15.240000 -481.584000
v 721.995000 222.504000 -557.784000
v 721.995000 15.240000 -557.784000
v 725.805000 222.504000 -481.584000
v 725.805000 15.240000 -481.584000
v 725.805000 222.504000 -557.784000
v 725.805000 15.240000 -557.784000
f 76 75 73
f 77 78 80
f 73 77 78
f 80 76 75
f 78 80 76
f 75 73 77
f 84 83 81
f 85 86 88
f 81 85 86
f 88 84 83
f 86 88 84
f 83 81 85
f 73 74 76
f 80 79 77
f 78 74 73
f 75 79 80
f 76 74 78
f 77 79 75
f 81 82 84
f 88 87 85
f 86 82 81
f 83 87 88
f 84 82 86
f 85 87 83
o color_94734f
usemtl color_94734f
v 650.138400 403.860000 -259.080000
v 650.138400 312.420000 -259.080000
v 650.138400 403.860000 -460.248000
v 650.138400 312.420000 -460.248000
v 716.280000 403.860000 -259.080000
v 716.280000 312.420000 -259.080000
v 716.280000 403.860000 -460.248000
v 716.280000 312.420000 -460.248000
v 365.760000 403.860000 -271.272000
v 365.760000 312.420000 -271.272000
v 365.760000 403.860000 -338.328000
v 365.760000 312.420000 -338.328000
v 591.312000 403.860000 -271.272000
v 591.312000 312.420000 -271.272000
v 591.312000 403.860000 -338.328000
v 591.312000 312.420000 -338.328000
v 243.840000 100.584000 -437.388000
v 243.840000 15.240000 -437.388000
v 243.840000 100.584000 -481.584000
v 243.840000 15.240000 -481.584000
v 316.992000 100.584000 -437.388000
v 316.992000 15.240000 -437.388000
v 316.992000 100.584000 -481.584000
v 316.992000 15.240000 -481.584000
v 21.336000 397.764000 -419.100000
v 21.336000 312.420000 -419.100000
v 21.336000 397.764000 -472.440000
v 21.336000 312.420000 -472.440000
v 94.488000 397.764000 -419.100000
v 94.488000 312.420000 -419.100000
v 94.488000 397.764000 -472.440000
v 94.488000 312.420000 -472.440000
v 457.200000 91.440000 -524.256000
v 457.200000 15.240000 -524.256000
v 457.200000 91.440000 -573.024000
v 457.200000 15.240000 -573.024000
v 627.888000 91.440000 -524.256000
v 627.888000 15.240000 -524.256000
v 627.888000 91.440000 -573.024000
v 627.888000 15.240000 -573.024000
v 653.796000 510.540000 -274.320000
v 653.796000 312.420000 -274.320000
v 653.796000 510.540000 -347.472000
v 653.796000 312.420000 -347.472000
v 705.612000 510.540000 -274.320000
v 705.612000 312.420000 -274.320000
v 705.612000 510.540000 -347.472000
v 705.612000 312.420000 -347.472000
f 92 91 89
f 93 94 96
f 89 93 94
f 96 92 91
f 94 96 92
f 91 89 93
f 100 99 97
f 101 102 104
f 97 101 102
f 104 100 99
f 102 104 100
f 99 97 101
f 108 107 105
f 109 110 112
f 105 109 110
f 112 108 107
f 110 112 108
f 107 105 109
f 116 115 113
f 117 118 120
f 113 117 118
f 120 116 115
f 118 120 116
f 115 113 117
f 124 123 121
f 125 126 128
f 121 125 126
f 128 124 123
f 126 128 124
f 123 121 125
f 132 131 129
f 133 134 136
f 129 133 134
f 136 132 131
f 134 136 132
f 131 129 133
f 89 90 92
f 96 95 93
f 94 90 89
f 91 95 96
f 92 90 94
f 93 95 91
f 97 98 100
f 104 103 101
f 102 98 97
f 99 103 104
f 100 98 102
f 101 103 99
f 105 106 108
f 112 111 109
f 110 106 105
f 107 111 112
f 108 106 110
f 109 111 107
f 113 114 116
f 120 119 117
f 118 114 113
f 115 119 120
f 116 114 118
f 117 119 115
f 121 122 124
f 128 127 125
f 126 122 121
f 123 127 128
f 124 122 126
f 125 127 123
f 129 130 132
f 136 135 133
f 134 130 129
f 131 135 136
f 132 130 134
f 133 135 131
o color_a38c6b
usemtl color_a38c6b
v 834.542400 396.240000 -0.000000
v 834.542400 392.582400 -0.000000
v 834.542400 396.240000 -594.360000
v 834.542400 392.582400 -594.360000
v 838.200000 396.240000 -0.000000
v 838.200000 392.582400 -0.000000
v 838.200000 396.240000 -594.360000
v 838.200000 392.582400 -594.360000
v 15.240000 22.273846 121.920000
v 15.240000 0.000000 121.920000
v 15.240000 22.273846 -0.000000
v 15.240000 0.000000 -0.000000
v 41.945169 22.273846 121.920000
v 41.945169 0.000000 121.920000
v 41.945169 22.273846 -0.000000
v 41.945169 0.000000 -0.000000
v 41.030769 44.547692 121.920000
v 41.030769 0.000000 121.920000
v 41.030769 44.547692 -0.000000
v 41.030769 0.000000 -0.000000
v 67.735939 44.547692 121.920000
v 67.735939 0.000000 121.920000
v 67.735939 44.547692 -0.000000
v 67.735939 0.000000 -0.000000
v 66.821539 66.821539 121.920000
v 66.821539 0.000000 121.920000
v 66.821539 66.821539 -0.000000
v 66.821539 0.000000 -0.000000
v 93.526708 66.821539 121.920000
v 93.526708 0.000000 121.920000
v 93.526708 66.821539 -0.000000
v 93.526708 0.000000 -0.000000
v 92.612308 89.095385 121.920000
v 92.612308 0.000000 121.920000
v 92.612308 89.095385 -0.000000
v 92.612308 0.000000 -0.000000
v 119.317477 89.095385 121.920000
v 119.317477 0.000000 121.920000
v 119.317477 89.095385 -0.000000
v 119.317477 0.000000 -0.000000
v 118.403077 111.369231 121.920000
v 118.403077 0.000000 121.920000
v 118.403077 111.369231 -0.000000
v 118.403077 0.000000 -0.000000
v 145.108246 111.369231 121.920000
v 145.108246 0.000000 121.920000
v 145.108246 111.369231 -0.000000
v 145.108246 0.000000 -0.000000
v 144.193846 133.643077 121.920000
v 144.193846 0.000000 121.920000
v 144.193846 133.643077 -0.000000
v 144.193846 0.000000 -0.000000
v 170.899015 133.643077 121.920000
v 170.899015 0.000000 121.920000
v 170.899015 133.643077 -0.000000
v 170.899015 0.000000 -0.000000
v 169.984615 155.916923 121.920000
v 169.984615 0.000000 121.920000
v 169.984615 155.916923 -0.000000
v 169.984615 0.000000 -0.000000
v 196.689785 155.916923 121.920000
v 196.689785 0.000000 121.920000
v 196.689785 155.916923 -0.000000
v 196.689785 0.000000 -0.000000
v 195.775385 178.190769 121.920000
v 195.775385 0.000000 121.920000
v 195.775385 178.190769 -0.000000
v 195.775385 0.000000 -0.000000
v 222.480554 178.190769 121.920000
v 222.480554 0.000000 121.920000
v 222.480554 178.190769 -0.000000
v 222.480554 0.000000 -0.000000
v 221.566154 200.464615 121.920000
v 221.566154 0.000000 121.920000
v 221.566154 200.464615 -0.000000
v 221.566154 0.000000 -0.000000
v 248.271323 200.464615 121.920000
v 248.271323 0.000000 121.920000
v 248.271323 200.464615 -0.000000
v 248.271323 0.000000 -0.000000
v 247.356923 222.738461 121.920000
v 247.356923 0.000000 121.920000
v 247.356923 222.738461 -0.000000
v 247.356923 0.000000 -0.000000
v 274.062092 222.738461 121.920000
v 274.062092 0.000000 121.920000
v 274.062092 222.738461 -0.000000
v 274.062092 0.000000 -0.000000
v 273.147692 245.012308 121.920000
v 273.147692 0.000000 121.920000
v 273.147692 245.012308 -0.000000
v 273.147692 0.000000 -0.000000
v 299.852862 245.012308 121.920000
v 299.852862 0.000000 121.920000
v 299.852862 245.012308 -0.000000
v 299.852862 0.000000 -0.000000
v 298.938462 267.286154 121.920000
v 298.938462 0.000000 121.920000
v 298.938462 267.286154 -0.000000
v 298.938462 0.000000 -0.000000
v 325.643631 267.286154 121.920000
v 325.643631 0.000000 121.920000
v 325.643631 267.286154 -0.000000
v 325.643631 0.000000 -0.000000
v 324.729231 289.560000 121.920000
v 324.729231 0.000000 121.920000
v 324.729231 289.560000 -0.000000
v 324.729231 0.000000 -0.000000
v 351.434400 289.560000 121.920000
v 351.434400 0.000000 121.920000
v 351.434400 289.560000 -0.000000
v 351.434400 0.000000 -0.000000
v 350.520000 396.240000 121.920000
v 350.520000 289.560000 121.920000
v 350.520000 396.240000 118.262400
v 350.520000 289.560000 118.262400
v 354.177600 396.240000 121.920000
v 354.177600 289.560000 121.920000
v 354.177600 396.240000 118.262400
v 354.177600 289.560000 118.262400
v 594.360000 396.240000 121.920000
v 594.360000 289.560000 121.920000
v 594.360000 396.240000 118.262400
v 594.360000 289.560000 118.262400
v 598.017600 396.240000 121.920000
v 598.017600 289.560000 121.920000
v 598.017600 396.240000 118.262400
v 598.017600 289.560000 118.262400
v 834.542400 396.240000 121.920000
v 834.542400 289.560000 121.920000
v 834.542400 396.240000 118.262400
v 834.542400 289.560000 118.262400
v 838.200000 396.240000 121.920000
v 838.200000 289.560000 121.920000
v 838.200000 396.240000 118.262400
v 838.200000 289.560000 118.262400
v 350.520000 396.240000 121.920000
v 350.520000 392.582400 121.920000
v 350.520000 396.240000 118.262400
v 350.520000 392.582400 118.262400
v 838.200000 396.240000 121.920000
v 838.200000 392.582400 121.920000
v 838.200000 396.240000 118.262400
v 838.200000 392.582400 118.262400
v 731.520000 300.228000 -0.000000
v 731.520000 289.560000 -0.000000
v 731.520000 300.228000 -594.360000
v 731.520000 289.560000 -594.360000
v 838.200000 300.228000 -0.000000
v 838.200000 289.560000 -0.000000
v 838.200000 300.228000 -594.360000
v 838.200000 289.560000 -594.360000
v 350.520000 300.228000 121.920000
v 350.520000 289.560000 121.920000
v 350.520000 300.228000 -0.000000
v 350.520000 289.560000 -0.000000
v 838.200000 300.228000 121.920000
v 838.200000 289.560000 121.920000
v 838.200000 300.228000 -0.000000
v 838.200000 289.560000 -0.000000
f 140 139 137
f 141 142 144
f 137 141 142
f 144 140 139
f 142 144 140
f 139 137 141
f 148 147 145
f 149 150 152
f 145 149 150
f 152 148 147
f 150 152 148
f 147 145 149
f 156 155 153
f 157 158 160
f 153 157 158
f 160 156 155
f 158 160 156
f 155 153 157
f 164 163 161
f 165 166 168
f 161 165 166
f 168 164 163
f 166 168 164
f 163 161 165
f 172 171 169
f 173 174 176
f 169 173 174
f 176 172 171
f 174 176 172
f 171 169 173
f 180 179 177
f 181 182 184
f 177 181 182
f 184 180 179
f 182 184 180
f 179 177 181
f 188 187 185
f 189 190 192
f 185 189 190
f 192 188 187
f 190 192 188
f 187 185 189
f 196 195 193
f 197 198 200
f 193 197 198
f 200 196 195
f 198 200 196
f 195 193 197
f 204 203 201
f 205 206 208
f 201 205 206
f 208 204 203
f 206 208 204
f 203 201 205
f 212 211 209
f 213 214 216
f 209 213 214
f 216 212 211
f 214 216 212
f 211 209 213
f 220 219 217
f 221 222 224
f 217 221 222
f 224 220 219
f 222 224 220
f 219 217 221
f 228 227 225
f 229 230 232
f 225 229 230
f 232 228 227
f 230 232 228
f 227 225 229
f 236 235 233
f 237 238 240
f 233 237 238
f 240 236 235
f 238 240 236
f 235 233 237
f 244 243 241
f 245 246 248
f 241 245 246
f 248 244 243
f 246 248 244
f 243 241 245
f 252 251 249
f 253 254 256
f 249 253 254
f 256 252 251
f 254 256 252
f 251 249 253
f 260 259 257
f 261 262 264
f 257 261 262
f 264 260 259
f 262 264 260
f 259 257 261
f 268 267 265
f 269 270 272
f 265 269 270
f 272 268 267
f 270 272 268
f 267 265 269
f 276 275 273
f 277 278 280
f 273 277 278
f 280 276 275
f 278 280 276
f 275 273 277
f 284 283 281
f 285 286 288
f 281 285 286
f 288 284 283
f 286 288 284
f 283 281 285
f 292 291 289
f 293 294 296
f 289 293 294
f 296 292 291
f 294 296 292
f 291 289 293
f 137 138 140
f 144 143 141
f 142 138 137
f 139 143 144
f 140 138 142
f 141 143 139
f 145 146 148
f 152 151 149
f 150 146 145
f 147 151 152
f 148 146 150
f 149 151 147
f 153 154 156
f 160 159 157
f 158 154 153
f 155 159 160
f 156 154 158
f 157 159 155
f 161 162 164
f 168 167 165
f 166 162 161
f 163 167 168
f 164 162 166
f 165 167 163
f 169 170 172
f 176 175 173
f 174 170 169
f 171 175 176
f 172 170 174
f 173 175 171
f 177 178 180
f 184 183 181
f 182 178 177
f 179 183 184
f 180 178 182
f 181 183 179
f 185 186 188
f 192 191 189
f 190 186 185
f 187 191 192
f 188 186 190
f 189 191 187
f 193 194 196
f 200 199 197
f 198 194 193
f 195 199 200
f 196 194 198
f 197 199 195
f 201 202 204
f 208 207 205
f 206 202 201
f 203 207 208
f 204 202 206
f 205 207 203
f 209 210 212
f 216 215 213
f 214 210 209
f 211 215 216
f 212 210 214
f 213 215 211
f 217 218 220
f 224 223 221
f 222 218 217
f 219 223 224
f 220 218 222
f 221 223 219
f 225 226 228
f 232 231 229
f 230 226 225
f 227 231 232
f 228 226 230
f 229 231 227
f 233 234 236
f 240 239 237
f 238 234 233
f 235 239 240
f 236 234 238
f 237 239 235
f 241 242 244
f 248 247 245
f 246 242 241
f 243 247 248
f 244 242 246
f 245 247 243
f 249 250 252
f 256 255 253
f 254 250 249
f 251 255 256
f 252 250 254
f 253 255 251
f 257 258 260
f 264 263 261
f 262 258 257
f 259 263 264
f 260 258 262
f 261 263 259
f 265 266 268
f 272 271 269
f 270 266 265
f 267 271 272
f 268 266 270
f 269 271 267
f 273 274 276
f 280 279 277
f 278 274 273
f 275 279 280
f 276 274 278
f 277 279 275
f 281 282 284
f 288 287 285
f 286 282 281
f 283 287 288
f 284 282 286
f 285 287 283
f 289 290 292
f 296 295 293
f 294 290 289
f 291 295 296
f 292 290 294
f 293 295 291
o color_adb0a6
usemtl color_adb0a6
v 731.520000 7.620000 -0.000000
v 731.520000 0.000000 -0.000000
v 731.520000 7.620000 -594.360000
v 731.520000 0.000000 -594.360000
v 838.200000 7.620000 -0.000000
v 838.200000 0.000000 -0.000000
v 838.200000 7.620000 -594.360000
v 838.200000 0.000000 -594.360000
v 350.520000 7.620000 121.920000
v 350.520000 0.000000 121.920000
v 350.520000 7.620000 -0.000000
v 350.520000 0.000000 -0.000000
v 838.200000 7.620000 121.920000
v 838.200000 0.000000 121.920000
v 838.200000 7.620000 -0.000000
v 838.200000 0.000000 -0.000000
f 300 299 297
f 301 302 304
f 297 301 302
f 304 300 299
f 302 304 300
f 299 297 301
f 308 307 305
f 309 310 312
f 305 309 310
f 312 308 307
f 310 312 308
f 307 305 309
f 297 298 300
f 304 303 301
f 302 298 297
f 299 303 304
f 300 298 302
f 301 303 299
f 305 306 308
f 312 311 309
f 310 306 305
f 307 311 312
f 308 306 310
f 309 311 307
o color_b0ccf0
usemtl color_b0ccf0
v 16.764000 314.248800 -16.764000
v 16.764000 313.029600 -16.764000
v 16.764000 314.248800 -303.276000
v 16.764000 313.029600 -303.276000
v 309.372000 314.248800 -16.764000
v 309.372000 313.029600 -16.764000
v 309.372000 314.248800 -303.276000
v 309.372000 313.029600 -303.276000
f 316 315 313
f 317 318 320
f 313 317 318
f 320 316 315
f 318 320 316
f 315 313 317
f 313 314 316
f 320 319 317
f 318 314 313
f 315 319 320
f 316 314 318
f 317 319 315
o color_b8b8b3
usemtl color_b8b8b3
v 0.000000 15.240000 -0.000000
v 0.000000 0.000000 -0.000000
v 0.000000 15.240000 -609.600000
v 0.000000 0.000000 -609.600000
v 731.520000 15.240000 -0.000000
v 731.520000 0.000000 -0.000000
v 731.520000 15.240000 -609.600000
v 731.520000 0.000000 -609.600000
v 0.000000 312.420000 -0.000000
v 0.000000 289.560000 -0.000000
v 0.000000 312.420000 -609.600000
v 0.000000 289.560000 -609.600000
v 731.520000 312.420000 -0.000000
v 731.520000 289.560000 -0.000000
v 731.520000 312.420000 -609.600000
v 731.520000 289.560000 -609.600000
f 324 323 321
f 325 326 328
f 321 325 326
f 328 324 323
f 326 328 324
f 323 321 325
f 332 331 329
f 333 334 336
f 329 333 334
f 336 332 331
f 334 336 332
f 331 329 333
f 321 322 324
f 328 327 325
f 326 322 321
f 323 327 328
f 324 322 326
f 325 327 323
f 329 330 332
f 336 335 333
f 334 330 329
f 331 335 336
f 332 330 334
f 333 335 331
o color_b8bdbf
usemtl color_b8bdbf
v 637.032000 510.540000 -371.856000
v 637.032000 312.420000 -371.856000
v 637.032000 510.540000 -451.104000
v 637.032000 312.420000 -451.104000
v 713.232000 510.540000 -371.856000
v 713.232000 312.420000 -371.856000
v 713.232000 510.540000 -451.104000
v 713.232000 312.420000 -451.104000
f 340 339 337
f 341 342 344
f 337 341 342
f 344 340 339
f 342 344 340
f 339 337 341
f 337 338 340
f 344 343 341
f 342 338 337
f 339 343 344
f 340 338 342
f 341 343 339
o color_b8e3d1
usemtl color_b8e3d1
v 16.764000 314.248800 -314.858400
v 16.764000 313.029600 -314.858400
v 16.764000 314.248800 -492.252000
v 16.764000 313.029600 -492.252000
v 208.788000 314.248800 -314.858400
v 208.788000 313.029600 -314.858400
v 208.788000 314.248800 -492.252000
v 208.788000 313.029600 -492.252000
v 238.658400 17.068800 -436.778400
v 238.658400 15.849600 -436.778400
v 238.658400 17.068800 -592.836000
v 238.658400 15.849600 -592.836000
v 416.661600 17.068800 -436.778400
v 416.661600 15.849600 -436.778400
v 416.661600 17.068800 -592.836000
v 416.661600 15.849600 -592.836000
f 348 347 345
f 349 350 352
f 345 349 350
f 352 348 347
f 350 352 348
f 347 345 349
f 356 355 353
f 357 358 360
f 353 357 358
f 360 356 355
f 358 360 356
f 355 353 357
f 345 346 348
f 352 351 349
f 350 346 345
f 347 351 352
f 348 346 350
f 349 351 347
f 353 354 356
f 360 359 357
f 358 354 353
f 355 359 360
f 356 354 358
f 357 359 355
o color_bdd1b3
usemtl color_bdd1b3
v 716.280000 289.560000 -609.600000
v 716.280000 15.240000 -609.600000
v 716.280000 15.240000 -557.784000
v 716.280000 222.504000 -557.784000
v 716.280000 222.504000 -481.584000
v 716.280000 15.240000 -481.584000
v 716.280000 15.240000 -368.808000
v 716.280000 228.600000 -368.808000
v 716.280000 228.600000 -246.888000
v 716.280000 15.240000 -246.888000
v 716.280000 15.240000 -0.000000
v 716.280000 289.560000 -0.000000
v 716.280000 106.680000 -173.736000
v 716.280000 106.680000 -97.536000
v 716.280000 213.360000 -173.736000
v 716.280000 213.360000 -97.536000
v 731.520000 15.240000 -609.600000
v 731.520000 289.560000 -609.600000
v 731.520000 15.240000 -557.784000
v 731.520000 222.504000 -557.784000
v 731.520000 222.504000 -481.584000
v 731.520000 15.240000 -481.584000
v 731.520000 15.240000 -368.808000
v 731.520000 228.600000 -368.808000
v 731.520000 228.600000 -246.888000
v 731.520000 15.240000 -246.888000
v 731.520000 15.240000 -0.000000
v 731.520000 289.560000 -0.000000
v 731.520000 106.680000 -173.736000
v 731.520000 106.680000 -97.536000
v 731.520000 213.360000 -173.736000
v 731.520000 213.360000 -97.536000
v 0.000000 289.560000 -594.360000
v 0.000000 15.240000 -594.360000
v 0.000000 289.560000 -609.600000
v 0.000000 15.240000 -609.600000
v 731.520000 289.560000 -594.360000
v 731.520000 15.240000 -594.360000
v 731.520000 289.560000 -609.600000
v 731.520000 15.240000 -609.600000
v 0.000000 289.560000 -0.000000
v 0.000000 15.240000 -0.000000
v 0.000000 289.560000 -15.240000
v 0.000000 15.240000 -15.240000
v 731.520000 289.560000 -0.000000
v 731.520000 15.240000 -0.000000
v 731.520000 289.560000 -15.240000
v 731.520000 15.240000 -15.240000
v 0.000000 289.560000 -609.600000
v 0.000000 289.560000 -0.000000
v 0.000000 15.240000 -609.600000
v 0.000000 15.240000 -362.712000
v 0.000000 243.840000 -362.712000
v 0.000000 243.840000 -67.056000
v 0.000000 15.240000 -67.056000
v 0.000000 15.240000 -0.000000
v 15.240000 289.560000 -609.600000
v 15.240000 289.560000 -0.000000
v 15.240000 15.240000 -609.600000
v 15.240000 15.240000 -362.712000
v 15.240000 243.840000 -362.712000
v 15.240000 243.840000 -67.056000
v 15.240000 15.240000 -67.056000
v 15.240000 15.240000 -0.000000
v 716.280000 487.680000 -0.000000
v 716.280000 487.680000 -60.960000
v 716.280000 312.420000 -60.960000
v 716.280000 312.420000 -0.000000
v 731.520000 487.680000 -60.960000
v 731.520000 487.680000 -0.000000
v 731.520000 312.420000 -60.960000
v 731.520000 312.420000 -0.000000
v 716.280000 487.680000 -213.360000
v 716.280000 487.680000 -609.600000
v 716.280000 312.420000 -213.360000
v 716.280000 312.420000 -609.600000
v 716.280000 385.572000 -341.376000
v 716.280000 385.572000 -280.416000
v 716.280000 461.772000 -341.376000
v 716.280000 461.772000 -280.416000
v 731.520000 487.680000 -609.600000
v 731.520000 487.680000 -213.360000
v 731.520000 312.420000 -213.360000
v 731.520000 312.420000 -609.600000
v 731.520000 385.572000 -341.376000
v 731.520000 385.572000 -280.416000
v 731.520000 461.772000 -341.376000
v 731.520000 461.772000 -280.416000
v 0.000000 487.680000 -594.360000
v 0.000000 312.420000 -594.360000
v 0.000000 487.680000 -609.600000
v 0.000000 312.420000 -609.600000
v 731.520000 487.680000 -594.360000
v 731.520000 312.420000 -594.360000
v 731.520000 487.680000 -609.600000
v 731.520000 312.420000 -609.600000
v 0.000000 487.680000 -0.000000
v 0.000000 312.420000 -0.000000
v 0.000000 487.680000 -15.240000
v 0.000000 312.420000 -15.240000
v 731.520000 312.420000 -0.000000
v 731.520000 487.680000 -0.000000
v 457.200000 461.772000 -0.000000
v 533.400000 461.772000 -0.000000
v 533.400000 385.572000 -0.000000
v 457.200000 385.572000 -0.000000
v 731.520000 487.680000 -15.240000
v 731.520000 312.420000 -15.240000
v 457.200000 461.772000 -15.240000
v 533.400000 461.772000 -15.240000
v 533.400000 385.572000 -15.240000
v 457.200000 385.572000 -15.240000
v 0.000000 487.680000 -0.000000
v 0.000000 312.420000 -0.000000
v 0.000000 487.680000 -609.600000
v 0.000000 312.420000 -609.600000
v 0.000000 397.764000 -432.816000
v 0.000000 397.764000 -371.856000
v 0.000000 473.964000 -432.816000
v 0.000000 473.964000 -371.856000
v 0.000000 382.524000 -176.784000
v 0.000000 382.524000 -100.584000
v 0.000000 480.060000 -176.784000
v 0.000000 480.060000 -100.584000
v 15.240000 312.420000 -0.000000
v 15.240000 487.680000 -0.000000
v 15.240000 487.680000 -609.600000
v 15.240000 312.420000 -609.600000
v 15.240000 397.764000 -432.816000
v 15.240000 397.764000 -371.856000
v 15.240000 473.964000 -432.816000
v 15.240000 473.964000 -371.856000
v 15.240000 382.524000 -176.784000
v 15.240000 382.524000 -100.584000
v 15.240000 480.060000 -176.784000
v 15.240000 480.060000 -100.584000
f 363 364 362
f 364 361 362
f 367 365 366
f 364 365 361
f 367 368 365
f 365 368 361
f 373 369 370
f 370 374 373
f 370 371 374
f 373 375 369
f 374 372 376
f 376 372 375
f 371 372 374
f 375 372 369
f 372 361 369
f 369 361 368
f 377 362 361
f 361 378 377
f 379 377 362
f 362 363 379
f 364 380 379
f 379 363 364
f 365 381 380
f 380 364 365
f 382 366 365
f 365 381 382
f 383 382 366
f 366 367 383
f 368 384 383
f 383 367 368
f 369 385 384
f 384 368 369
f 386 370 369
f 369 385 386
f 387 386 370
f 370 371 387
f 372 388 387
f 387 371 372
f 361 372 388
f 388 378 361
f 389 373 374
f 374 390 389
f 375 391 389
f 389 373 375
f 390 374 376
f 376 392 390
f 376 392 391
f 391 375 376
f 380 379 377
f 378 380 377
f 381 383 382
f 381 380 378
f 384 383 381
f 384 381 378
f 385 389 386
f 390 386 389
f 387 386 390
f 391 389 385
f 388 390 392
f 388 392 391
f 388 387 390
f 388 391 385
f 378 388 385
f 378 385 384
f 396 395 393
f 393 394 396
f 397 398 400
f 400 399 397
f 393 397 398
f 398 394 393
f 400 396 395
f 395 399 400
f 398 400 396
f 396 394 398
f 395 393 397
f 397 399 395
f 404 403 401
f 401 402 404
f 405 406 408
f 408 407 405
f 401 405 406
f 406 402 401
f 408 404 403
f 403 407 408
f 406 408 404
f 404 402 406
f 403 401 405
f 405 407 403
f 416 415 414
f 416 414 413
f 416 413 412
f 416 412 411
f 416 411 409
f 416 409 410
f 409 410 418
f 418 417 409
f 419 411 409
f 409 417 419
f 420 419 411
f 411 412 420
f 413 421 420
f 420 412 413
f 414 422 421
f 421 413 414
f 423 415 414
f 414 422 423
f 424 423 415
f 415 416 424
f 410 418 424
f 424 416 410
f 417 418 424
f 417 424 423
f 417 423 422
f 417 422 421
f 417 421 420
f 417 420 419
f 428 427 426
f 426 425 428
f 426 425 430
f 430 429 426
f 431 427 426
f 426 429 431
f 432 431 427
f 427 428 432
f 425 430 432
f 432 428 425
f 429 430 432
f 432 431 429
f 436 437 434
f 436 435 437
f 435 438 437
f 437 439 434
f 438 433 440
f 440 433 439
f 435 433 438
f 433 434 439
f 434 433 442
f 442 441 434
f 433 442 443
f 443 435 433
f 444 436 434
f 434 441 444
f 443 444 436
f 436 435 443
f 445 437 438
f 438 446 445
f 439 447 445
f 445 437 439
f 440 448 447
f 447 439 440
f 446 438 440
f 440 448 446
f 445 444 441
f 443 444 445
f 446 443 445
f 447 445 441
f 442 446 448
f 442 448 447
f 442 443 446
f 441 442 447
f 452 451 449
f 449 450 452
f 453 454 456
f 456 455 453
f 449 453 454
f 454 450 449
f 456 452 451
f 451 455 456
f 454 456 452
f 452 450 454
f 451 449 453
f 453 455 451
f 460 459 457
f 457 458 460
f 458 466 457
f 466 463 457
f 466 461 465
f 465 462 464
f 461 462 465
f 458 461 466
f 462 457 464
f 464 457 463
f 459 457 462
f 462 467 459
f 472 460 459
f 469 472 459
f 468 472 471
f 467 471 470
f 467 468 471
f 468 460 472
f 459 467 470
f 459 470 469
f 461 468 460
f 460 458 461
f 462 461 468
f 468 467 462
f 464 470 469
f 469 463 464
f 465 471 470
f 470 464 465
f 472 466 465
f 465 471 472
f 469 463 466
f 466 472 469
f 476 477 475
f 476 478 477
f 477 479 475
f 476 481 478
f 478 483 480
f 481 483 478
f 481 474 482
f 482 473 484
f 474 473 482
f 476 474 481
f 473 475 484
f 484 475 483
f 483 475 480
f 480 475 479
f 473 486 485
f 485 474 473
f 475 473 486
f 486 487 475
f 485 488 476
f 476 474 485
f 488 476 475
f 475 487 488
f 489 477 478
f 478 490 489
f 479 491 489
f 489 477 479
f 480 492 491
f 491 479 480
f 490 478 480
f 480 492 490
f 493 481 482
f 482 494 493
f 483 495 493
f 493 481 483
f 494 482 484
f 484 496 494
f 484 496 495
f 495 483 484
f 489 488 487
f 490 488 489
f 491 489 487
f 493 488 490
f 495 490 492
f 495 493 490
f 485 493 494
f 486 494 496
f 486 485 494
f 485 488 493
f 487 486 496
f 487 496 495
f 487 495 492
f 487 492 491
o color_ccc2e6
usemtl color_ccc2e6
v 16.764000 314.248800 -503.834400
v 16.764000 313.029600 -503.834400
v 16.764000 314.248800 -592.836000
v 16.764000 313.029600 -592.836000
v 208.788000 314.248800 -503.834400
v 208.788000 313.029600 -503.834400
v 208.788000 314.248800 -592.836000
v 208.788000 313.029600 -592.836000
f 500 499 497
f 501 502 504
f 497 501 502
f 504 500 499
f 502 504 500
f 499 497 501
f 497 498 500
f 504 503 501
f 502 498 497
f 499 503 504
f 500 498 502
f 501 503 499
o color_d1d1c7
usemtl color_d1d1c7
v 16.764000 17.068800 -16.764000
v 16.764000 15.849600 -16.764000
v 16.764000 17.068800 -425.196000
v 16.764000 15.849600 -425.196000
v 425.196000 17.068800 -16.764000
v 425.196000 15.849600 -16.764000
v 425.196000 17.068800 -425.196000
v 425.196000 15.849600 -425.196000
v 16.764000 17.068800 -428.244000
v 16.764000 15.849600 -428.244000
v 16.764000 17.068800 -592.836000
v 16.764000 15.849600 -592.836000
v 227.076000 17.068800 -428.244000
v 227.076000 15.849600 -428.244000
v 227.076000 17.068800 -592.836000
v 227.076000 15.849600 -592.836000
f 508 507 505
f 509 510 512
f 505 509 510
f 512 508 507
f 510 512 508
f 507 505 509
f 516 515 513
f 517 518 520
f 513 517 518
f 520 516 515
f 518 520 516
f 515 513 517
f 505 506 508
f 512 511 509
f 510 506 505
f 507 511 512
f 508 506 510
f 509 511 507
f 513 514 516
f 520 519 517
f 518 514 513
f 515 519 520
f 516 514 518
f 517 519 515
o color_ebe6d6
usemtl color_ebe6d6
v 228.600000 289.560000 -426.720000
v 228.600000 15.240000 -426.720000
v 228.600000 289.560000 -436.778400
v 228.600000 15.240000 -436.778400
v 329.184000 15.240000 -426.720000
v 329.184000 222.504000 -426.720000
v 402.336000 222.504000 -426.720000
v 402.336000 15.240000 -426.720000
v 426.720000 15.240000 -426.720000
v 426.720000 289.560000 -426.720000
v 426.720000 289.560000 -436.778400
v 329.184000 15.240000 -436.778400
v 329.184000 222.504000 -436.778400
v 402.336000 222.504000 -436.778400
v 402.336000 15.240000 -436.778400
v 426.720000 15.240000 -436.778400
v 228.600000 289.560000 -426.720000
v 228.600000 15.240000 -426.720000
v 228.600000 289.560000 -594.360000
v 228.600000 15.240000 -594.360000
v 238.658400 289.560000 -426.720000
v 238.658400 15.240000 -426.720000
v 238.658400 289.560000 -594.360000
v 238.658400 15.240000 -594.360000
v 426.720000 289.560000 -594.360000
v 426.720000 289.560000 -15.240000
v 426.720000 15.240000 -594.360000
v 426.720000 15.240000 -335.280000
v 426.720000 228.600000 -335.280000
v 426.720000 228.600000 -243.840000
v 426.720000 15.240000 -243.840000
v 426.720000 15.240000 -15.240000
v 436.778400 289.560000 -594.360000
v 436.778400 289.560000 -15.240000
v 436.778400 15.240000 -594.360000
v 436.778400 15.240000 -335.280000
v 436.778400 228.600000 -335.280000
v 436.778400 228.600000 -243.840000
v 436.778400 15.240000 -243.840000
v 436.778400 15.240000 -15.240000
v 426.720000 289.560000 -426.720000
v 426.720000 15.240000 -426.720000
v 426.720000 289.560000 -436.778400
v 426.720000 15.240000 -436.778400
v 487.680000 15.240000 -426.720000
v 487.680000 222.504000 -426.720000
v 566.928000 222.504000 -426.720000
v 566.928000 15.240000 -426.720000
v 716.280000 15.240000 -426.720000
v 716.280000 289.560000 -426.720000
v 716.280000 289.560000 -436.778400
v 487.680000 15.240000 -436.778400
v 487.680000 222.504000 -436.778400
v 566.928000 222.504000 -436.778400
v 566.928000 15.240000 -436.778400
v 716.280000 15.240000 -436.778400
v 210.312000 487.680000 -304.800000
v 210.312000 487.680000 -335.280000
v 210.312000 312.420000 -335.280000
v 210.312000 312.420000 -304.800000
v 220.370400 487.680000 -335.280000
v 220.370400 487.680000 -304.800000
v 220.370400 312.420000 -335.280000
v 220.370400 312.420000 -304.800000
v 210.312000 487.680000 -408.432000
v 210.312000 487.680000 -493.776000
v 210.312000 312.420000 -493.776000
v 210.312000 312.420000 -408.432000
v 220.370400 487.680000 -493.776000
v 220.370400 487.680000 -408.432000
v 220.370400 312.420000 -493.776000
v 220.370400 312.420000 -408.432000
v 15.240000 487.680000 -493.776000
v 15.240000 312.420000 -493.776000
v 15.240000 487.680000 -503.834400
v 15.240000 312.420000 -503.834400
v 220.370400 487.680000 -493.776000
v 220.370400 312.420000 -493.776000
v 220.370400 487.680000 -503.834400
v 220.370400 312.420000 -503.834400
v 15.240000 487.680000 -243.840000
v 15.240000 312.420000 -243.840000
v 15.240000 487.680000 -253.898400
v 15.240000 312.420000 -253.898400
v 30.480000 312.420000 -243.840000
v 30.480000 487.680000 -243.840000
v 30.480000 487.680000 -253.898400
v 30.480000 312.420000 -253.898400
v 182.880000 312.420000 -243.840000
v 198.120000 312.420000 -243.840000
v 198.120000 487.680000 -243.840000
v 182.880000 487.680000 -243.840000
v 182.880000 312.420000 -253.898400
v 198.120000 312.420000 -253.898400
v 198.120000 487.680000 -253.898400
v 182.880000 487.680000 -253.898400
v 310.896000 487.680000 -15.240000
v 310.896000 487.680000 -216.408000
v 310.896000 312.420000 -216.408000
v 310.896000 312.420000 -15.240000
v 320.954400 487.680000 -216.408000
v 320.954400 487.680000 -15.240000
v 320.954400 312.420000 -216.408000
v 320.954400 312.420000 -15.240000
v 310.896000 487.680000 -289.560000
v 310.896000 487.680000 -304.800000
v 310.896000 312.420000 -304.800000
v 310.896000 312.420000 -289.560000
v 320.954400 487.680000 -304.800000
v 320.954400 487.680000 -289.560000
v 320.954400 312.420000 -304.800000
v 320.954400 312.420000 -289.560000
v 15.240000 487.680000 -304.800000
v 15.240000 312.420000 -304.800000
v 15.240000 487.680000 -314.858400
v 15.240000 312.420000 -314.858400
v 320.954400 487.680000 -304.800000
v 320.954400 312.420000 -304.800000
v 320.954400 487.680000 -314.858400
v 320.954400 312.420000 -314.858400
v 365.760000 434.340000 -224.028000
v 365.760000 312.420000 -224.028000
v 365.760000 434.340000 -234.696000
v 365.760000 312.420000 -234.696000
v 563.880000 434.340000 -224.028000
v 563.880000 312.420000 -224.028000
v 563.880000 434.340000 -234.696000
v 563.880000 312.420000 -234.696000
f 524 523 521
f 521 522 524
f 521 530 529
f 521 529 528
f 521 528 527
f 521 527 526
f 521 526 525
f 521 525 522
f 523 521 530
f 530 531 523
f 532 524 523
f 532 523 531
f 532 531 536
f 532 536 535
f 532 535 534
f 532 534 533
f 522 525 532
f 532 524 522
f 533 526 525
f 525 532 533
f 527 534 533
f 533 526 527
f 528 535 534
f 534 527 528
f 528 529 536
f 536 535 528
f 530 529 536
f 536 531 530
f 540 539 537
f 537 538 540
f 541 542 544
f 544 543 541
f 537 541 542
f 542 538 537
f 544 540 539
f 539 543 544
f 542 544 540
f 540 538 542
f 539 537 541
f 541 543 539
f 552 551 550
f 552 550 549
f 552 549 548
f 552 548 547
f 552 547 545
f 552 545 546
f 545 546 554
f 554 553 545
f 555 547 545
f 545 553 555
f 556 555 547
f 547 548 556
f 549 557 556
f 556 548 549
f 550 558 557
f 557 549 550
f 559 551 550
f 550 558 559
f 560 559 551
f 551 552 560
f 546 554 560
f 560 552 546
f 553 554 560
f 553 560 559
f 553 559 558
f 553 558 557
f 553 557 556
f 553 556 555
f 564 563 561
f 561 562 564
f 561 570 569
f 561 569 568
f 561 568 567
f 561 567 566
f 561 566 565
f 561 565 562
f 563 561 570
f 570 571 563
f 572 564 563
f 572 563 571
f 572 571 576
f 572 576 575
f 572 575 574
f 572 574 573
f 562 565 572
f 572 564 562
f 573 566 565
f 565 572 573
f 567 574 573
f 573 566 567
f 568 575 574
f 574 567 568
f 568 569 576
f 576 575 568
f 570 569 576
f 576 571 570
f 580 579 578
f 578 577 580
f 578 577 582
f 582 581 578
f 583 579 578
f 578 581 583
f 584 583 579
f 579 580 584
f 577 582 584
f 584 580 577
f 581 582 584
f 584 583 581
f 588 587 586
f 586 585 588
f 586 585 590
f 590 589 586
f 591 587 586
f 586 589 591
f 592 591 587
f 587 588 592
f 585 590 592
f 592 588 585
f 589 590 592
f 592 591 589
f 596 595 593
f 593 594 596
f 597 598 600
f 600 599 597
f 593 597 598
f 598 594 593
f 600 596 595
f 595 599 600
f 598 600 596
f 596 594 598
f 595 593 597
f 597 599 595
f 604 603 601
f 601 602 604
f 601 606 605
f 605 602 601
f 607 603 601
f 601 606 607
f 608 604 603
f 603 607 608
f 602 605 608
f 608 604 602
f 606 605 608
f 608 607 606
f 612 611 610
f 610 609 612
f 609 610 614
f 614 613 609
f 611 610 614
f 614 615 611
f 615 616 612
f 612 611 615
f 613 616 612
f 612 609 613
f 614 613 616
f 616 615 614
f 620 619 618
f 618 617 620
f 618 617 622
f 622 621 618
f 623 619 618
f 618 621 623
f 624 623 619
f 619 620 624
f 617 622 624
f 624 620 617
f 621 622 624
f 624 623 621
f 628 627 626
f 626 625 628
f 626 625 630
f 630 629 626
f 631 627 626
f 626 629 631
f 632 631 627
f 627 628 632
f 625 630 632
f 632 628 625
f 629 630 632
f 632 631 629
f 636 635 633
f 633 634 636
f 637 638 640
f 640 639 637
f 633 637 638
f 638 634 633
f 640 636 635
f 635 639 640
f 638 640 636
f 636 634 638
f 635 633 637
f 637 639 635
f 644 643 641
f 641 642 644
f 645 646 648
f 648 647 645
f 641 645 646
f 646 642 641
f 648 644 643
f 643 647 648
f 646 648 644
f 644 642 646
f 643 641 645
f 645 647 643
o color_ebf0f2
usemtl color_ebf0f2
v 240.792000 19.812000 -490.728000
v 240.792000 15.240000 -490.728000
v 240.792000 19.812000 -582.168000
v 240.792000 15.240000 -582.168000
v 332.232000 19.812000 -490.728000
v 332.232000 15.240000 -490.728000
v 332.232000 19.812000 -582.168000
v 332.232000 15.240000 -582.168000
v 21.336000 316.992000 -316.992000
v 21.336000 312.420000 -316.992000
v 21.336000 316.992000 -408.432000
v 21.336000 312.420000 -408.432000
v 112.776000 316.992000 -316.992000
v 112.776000 312.420000 -316.992000
v 112.776000 316.992000 -408.432000
v 112.776000 312.420000 -408.432000
f 652 651 649
f 653 654 656
f 649 653 654
f 656 652 651
f 654 656 652
f 651 649 653
f 660 659 657
f 661 662 664
f 657 661 662
f 664 660 659
f 662 664 660
f 659 657 661
f 649 650 652
f 656 655 653
f 654 650 649
f 651 655 656
f 652 650 654
f 653 655 651
f 657 658 660
f 664 663 661
f 662 658 657
f 659 663 664
f 660 658 662
f 661 663 659
o color_f5bdb3
usemtl color_f5bdb3
v 321.564000 314.248800 -16.764000
v 321.564000 313.029600 -16.764000
v 321.564000 314.248800 -263.652000
v 321.564000 313.029600 -263.652000
v 714.756000 314.248800 -16.764000
v 714.756000 313.029600 -16.764000
v 714.756000 314.248800 -263.652000
v 714.756000 313.029600 -263.652000
f 668 667 665
f 669 670 672
f 665 669 670
f 672 668 667
f 670 672 668
f 667 665 669
f 665 666 668
f 672 671 669
f 670 666 665
f 667 671 672
f 668 666 670
f 669 671 667
o color_f5c7b8
usemtl color_f5c7b8
v 436.778400 17.068800 -16.764000
v 436.778400 15.849600 -16.764000
v 436.778400 17.068800 -425.196000
v 436.778400 15.849600 -425.196000
v 714.756000 17.068800 -16.764000
v 714.756000 15.849600 -16.764000
v 714.756000 17.068800 -425.196000
v 714.756000 15.849600 -425.196000
f 676 675 673
f 677 678 680
f 673 677 678
f 680 676 675
f 678 680 676
f 675 673 677
f 673 674 676
f 680 679 677
f 678 674 673
f 675 679 680
f 676 674 678
f 677 679 675
o color_f5dba6
usemtl color_f5dba6
v 321.564000 314.248800 -265.176000
v 321.564000 313.029600 -265.176000
v 321.564000 314.248800 -472.440000
v 321.564000 313.029600 -472.440000
v 714.756000 314.248800 -265.176000
v 714.756000 313.029600 -265.176000
v 714.756000 314.248800 -472.440000
v 714.756000 313.029600 -472.440000
v 436.778400 17.068800 -436.778400
v 436.778400 15.849600 -436.778400
v 436.778400 17.068800 -592.836000
v 436.778400 15.849600 -592.836000
v 714.756000 17.068800 -436.778400
v 714.756000 15.849600 -436.778400
v 714.756000 17.068800 -592.836000
v 714.756000 15.849600 -592.836000
f 684 683 681
f 685 686 688
f 681 685 686
f 688 684 683
f 686 688 684
f 683 681 685
f 692 691 689
f 693 694 696
f 689 693 694
f 696 692 691
f 694 696 692
f 691 689 693
f 681 682 684
f 688 687 685
f 686 682 681
f 683 687 688
f 684 682 686
f 685 687 683
f 689 690 692
f 696 695 693
f 694 690 689
f 691 695 696
f 692 690 694
f 693 695 691
