# Created by FreeCAD <https://www.freecad.org>
v 167.639999 4922.520020 3130.295898
v 167.639999 3148.583984 3130.295898
v 167.639999 4922.520020 3142.488037
v 167.639999 3148.583984 3142.488037
v 2087.879883 3148.583984 3130.295898
v 2087.879883 4922.520020 3130.295898
v 2087.879883 4922.520020 3142.488037
v 2087.879883 3148.583984 3142.488037
v 167.639999 3032.760010 3130.295898
v 167.639999 167.639999 3130.295898
v 167.639999 3032.760010 3142.488037
v 167.639999 167.639999 3142.488037
v 3093.719971 167.639999 3130.295898
v 3093.719971 3032.760010 3130.295898
v 3093.719971 3032.760010 3142.488037
v 3093.719971 167.639999 3142.488037
v 8345.423828 0.000000 3925.823975
v 8345.423828 0.000000 3962.399902
v 8345.423828 5943.600098 3925.823975
v 8345.423828 5943.600098 3962.399902
v 8382.000000 0.000000 3962.399902
v 8382.000000 0.000000 3925.823975
v 8382.000000 5943.600098 3925.823975
v 8382.000000 5943.600098 3962.399902
v 6501.383789 4602.479980 3124.199951
v 6501.383789 2590.800049 3124.199951
v 6501.383789 4602.479980 4038.600098
v 6501.383789 2590.800049 4038.600098
v 7162.799805 2590.800049 3124.199951
v 7162.799805 4602.479980 3124.199951
v 7162.799805 4602.479980 4038.600098
v 7162.799805 2590.800049 4038.600098
v 7219.950195 2804.159912 3855.719971
v 7219.950195 3413.760010 4617.720215
v 7219.950195 3413.760010 3855.719971
v 7219.950195 2804.159912 4617.720215
v 7258.049805 3413.760010 4617.720215
v 7258.049805 2804.159912 3855.719971
v 7258.049805 3413.760010 3855.719971
v 7258.049805 2804.159912 4617.720215
v 7219.950195 609.599976 3124.199951
v 7219.950195 2133.600098 5044.439941
v 7219.950195 2133.600098 3124.199951
v 7219.950195 609.599976 5044.439941
v 7258.049805 2133.600098 5044.439941
v 7258.049805 609.599976 3124.199951
v 7258.049805 2133.600098 3124.199951
v 7258.049805 609.599976 5044.439941
v 152.399994 -1219.199951 0.000000
v 152.399994 -1219.199951 222.738464
v 152.399994 0.000000 0.000000
v 152.399994 0.000000 222.738464
v 419.451691 -1219.199951 222.738464
v 419.451691 -1219.199951 0.000000
v 419.451691 0.000000 0.000000
v 419.451691 0.000000 222.738464
v 410.307678 0.000000 0.000000
v 410.307678 -1219.199951 0.000000
v 410.307678 0.000000 445.476929
v 410.307678 -1219.199951 445.476929
v 677.359375 -1219.199951 0.000000
v 677.359375 0.000000 0.000000
v 677.359375 0.000000 445.476929
v 677.359375 -1219.199951 445.476929
v 668.215393 -1219.199951 0.000000
v 668.215393 -1219.199951 668.215393
v 668.215393 0.000000 0.000000
v 668.215393 0.000000 668.215393
v 935.267090 -1219.199951 668.215393
v 935.267090 -1219.199951 0.000000
v 935.267090 0.000000 0.000000
v 935.267090 0.000000 668.215393
v 926.123047 -1219.199951 0.000000
v 926.123047 -1219.199951 890.953857
v 926.123047 0.000000 0.000000
v 926.123047 0.000000 890.953857
v 1193.174805 -1219.199951 890.953857
v 1193.174805 -1219.199951 0.000000
v 1193.174805 0.000000 0.000000
v 1193.174805 0.000000 890.953857
v 1184.030762 -1219.199951 0.000000
v 1184.030762 -1219.199951 1113.692261
v 1184.030762 0.000000 0.000000
v 1184.030762 0.000000 1113.692261
v 1451.082520 -1219.199951 1113.692261
v 1451.082520 -1219.199951 0.000000
v 1451.082520 0.000000 0.000000
v 1451.082520 0.000000 1113.692261
v 1441.938477 -1219.199951 0.000000
v 1441.938477 -1219.199951 1336.430786
v 1441.938477 0.000000 0.000000
v 1441.938477 0.000000 1336.430786
v 1708.990112 -1219.199951 1336.430786
v 1708.990112 -1219.199951 0.000000
v 1708.990112 0.000000 0.000000
v 1708.990112 0.000000 1336.430786
v 1699.846191 -1219.199951 0.000000
v 1699.846191 -1219.199951 1559.169189
v 1699.846191 0.000000 0.000000
v 1699.846191 0.000000 1559.169189
v 1966.897827 -1219.199951 1559.169189
v 1966.897827 -1219.199951 0.000000
v 1966.897827 0.000000 0.000000
v 1966.897827 0.000000 1559.169189
v 1957.753906 -1219.199951 0.000000
v 1957.753906 -1219.199951 1781.907715
v 1957.753906 0.000000 0.000000
v 1957.753906 0.000000 1781.907715
v 2224.805420 -1219.199951 1781.907715
v 2224.805420 -1219.199951 0.000000
v 2224.805420 0.000000 0.000000
v 2224.805420 0.000000 1781.907715
v 2215.661621 -1219.199951 0.000000
v 2215.661621 0.000000 2004.646118
v 2215.661621 0.000000 0.000000
v 2215.661621 -1219.199951 2004.646118
v 2482.713135 0.000000 2004.646118
v 2482.713135 -1219.199951 0.000000
v 2482.713135 0.000000 0.000000
v 2482.713135 -1219.199951 2004.646118
v 2473.569336 -1219.199951 0.000000
v 2473.569336 0.000000 2227.384521
v 2473.569336 0.000000 0.000000
v 2473.569336 -1219.199951 2227.384521
v 2740.620850 0.000000 2227.384521
v 2740.620850 -1219.199951 0.000000
v 2740.620850 0.000000 0.000000
v 2740.620850 -1219.199951 2227.384521
v 2731.476807 -1219.199951 0.000000
v 2731.476807 -1219.199951 2450.123047
v 2731.476807 0.000000 0.000000
v 2731.476807 0.000000 2450.123047
v 2998.528564 -1219.199951 2450.123047
v 2998.528564 -1219.199951 0.000000
v 2998.528564 0.000000 0.000000
v 2998.528564 0.000000 2450.123047
v 2989.384521 -1219.199951 0.000000
v 2989.384521 -1219.199951 2672.861572
v 2989.384521 0.000000 0.000000
v 2989.384521 0.000000 2672.861572
v 3256.436279 -1219.199951 2672.861572
v 3256.436279 -1219.199951 0.000000
v 3256.436279 0.000000 0.000000
v 3256.436279 0.000000 2672.861572
v 3247.292236 -1219.199951 0.000000
v 3247.292236 -1219.199951 2895.600098
v 3247.292236 0.000000 0.000000
v 3247.292236 0.000000 2895.600098
v 3514.343994 -1219.199951 2895.600098
v 3514.343994 -1219.199951 0.000000
v 3514.343994 0.000000 0.000000
v 3514.343994 0.000000 2895.600098
v 167.639999 167.639999 158.496002
v 167.639999 167.639999 170.688004
v 167.639999 4251.959961 158.496002
v 167.639999 4251.959961 170.688004
v 4251.959961 167.639999 170.688004
v 4251.959961 167.639999 158.496002
v 4251.959961 4251.959961 158.496002
v 4251.959961 4251.959961 170.688004
v 167.639999 4282.439941 158.496002
v 167.639999 4282.439941 170.688004
v 167.639999 5928.359863 158.496002
v 167.639999 5928.359863 170.688004
v 2270.760010 4282.439941 170.688004
v 2270.760010 4282.439941 158.496002
v 2270.760010 5928.359863 158.496002
v 2270.760010 5928.359863 170.688004
v 57.150002 3627.120117 152.399994
v 57.150002 670.559998 152.399994
v 57.150002 3627.120117 2438.399902
v 57.150002 670.559998 2438.399902
v 95.250000 670.559998 152.399994
v 95.250000 3627.120117 152.399994
v 95.250000 3627.120117 2438.399902
v 95.250000 670.559998 2438.399902
v 7315.200195 5943.600098 0.000000
v 7315.200195 0.000000 0.000000
v 7315.200195 5943.600098 76.199997
v 7315.200195 0.000000 76.199997
v 8382.000000 0.000000 0.000000
v 8382.000000 5943.600098 0.000000
v 8382.000000 5943.600098 76.199997
v 8382.000000 0.000000 76.199997
v 3505.199951 -1219.199951 0.000000
v 3505.199951 -1219.199951 76.199997
v 3505.199951 0.000000 0.000000
v 3505.199951 0.000000 76.199997
v 8382.000000 -1219.199951 76.199997
v 8382.000000 -1219.199951 0.000000
v 8382.000000 0.000000 0.000000
v 8382.000000 0.000000 76.199997
v 3215.639893 4724.399902 3130.295898
v 3215.639893 2651.760010 3130.295898
v 3215.639893 4724.399902 3142.488037
v 3215.639893 2651.760010 3142.488037
v 7147.560059 2651.760010 3130.295898
v 7147.560059 4724.399902 3130.295898
v 7147.560059 4724.399902 3142.488037
v 7147.560059 2651.760010 3142.488037
v 3657.600098 2712.719971 3124.199951
v 3657.600098 2712.719971 4038.600098
v 3657.600098 3383.280029 3124.199951
v 3657.600098 3383.280029 4038.600098
v 5913.120117 2712.719971 4038.600098
v 5913.120117 2712.719971 3124.199951
v 5913.120117 3383.280029 3124.199951
v 5913.120117 3383.280029 4038.600098
v 2286.000000 4267.200195 152.399994
v 2286.000000 4267.200195 2895.600098
v 2286.000000 4367.784180 152.399994
v 2286.000000 4367.784180 2895.600098
v 3291.840088 4267.200195 152.399994
v 3291.840088 4267.200195 2225.040039
v 4267.200195 4267.200195 152.399994
v 4023.360107 4267.200195 2225.040039
v 4023.360107 4267.200195 152.399994
v 4267.200195 4267.200195 2895.600098
v 4267.200195 4367.784180 2895.600098
v 3291.840088 4367.784180 2225.040039
v 3291.840088 4367.784180 152.399994
v 4023.360107 4367.784180 2225.040039
v 4267.200195 4367.784180 152.399994
v 4023.360107 4367.784180 152.399994
v 2286.000000 4267.200195 152.399994
v 2286.000000 4267.200195 2895.600098
v 2286.000000 5943.600098 152.399994
v 2286.000000 5943.600098 2895.600098
v 2386.583984 4267.200195 2895.600098
v 2386.583984 4267.200195 152.399994
v 2386.583984 5943.600098 152.399994
v 2386.583984 5943.600098 2895.600098
v 7162.799805 5577.839844 152.399994
v 7162.799805 5577.839844 2225.040039
v 7162.799805 6096.000000 152.399994
v 7162.799805 6096.000000 2895.600098
v 7162.799805 3688.080078 152.399994
v 7162.799805 4815.839844 2225.040039
v 7162.799805 4815.839844 152.399994
v 7162.799805 3688.080078 2286.000000
v 7162.799805 1737.359985 1066.800049
v 7162.799805 2468.879883 2286.000000
v 7162.799805 2468.879883 152.399994
v 7162.799805 975.359985 1066.800049
v 7162.799805 0.000000 152.399994
v 7162.799805 1737.359985 2133.600098
v 7162.799805 0.000000 2895.600098
v 7162.799805 975.359985 2133.600098
v 7315.200195 6096.000000 152.399994
v 7315.200195 6096.000000 2895.600098
v 7315.200195 5577.839844 152.399994
v 7315.200195 5577.839844 2225.040039
v 7315.200195 4815.839844 2225.040039
v 7315.200195 4815.839844 152.399994
v 7315.200195 3688.080078 152.399994
v 7315.200195 3688.080078 2286.000000
v 7315.200195 2468.879883 2286.000000
v 7315.200195 2468.879883 152.399994
v 7315.200195 0.000000 152.399994
v 7315.200195 0.000000 2895.600098
v 7315.200195 1737.359985 1066.800049
v 7315.200195 975.359985 1066.800049
v 7315.200195 1737.359985 2133.600098
v 7315.200195 975.359985 2133.600098
v 4267.200195 3352.800049 152.399994
v 4267.200195 3352.800049 2286.000000
v 4267.200195 5943.600098 152.399994
v 4267.200195 5943.600098 2895.600098
v 4267.200195 2438.399902 152.399994
v 4267.200195 152.399994 152.399994
v 4267.200195 2438.399902 2286.000000
v 4267.200195 152.399994 2895.600098
v 4367.784180 5943.600098 2895.600098
v 4367.784180 152.399994 2895.600098
v 4367.784180 5943.600098 152.399994
v 4367.784180 3352.800049 152.399994
v 4367.784180 3352.800049 2286.000000
v 4367.784180 2438.399902 2286.000000
v 4367.784180 2438.399902 152.399994
v 4367.784180 152.399994 152.399994
v 0.000000 5943.600098 152.399994
v 0.000000 6096.000000 2895.600098
v 0.000000 6096.000000 152.399994
v 0.000000 5943.600098 2895.600098
v 7315.200195 6096.000000 2895.600098
v 7315.200195 5943.600098 152.399994
v 7315.200195 6096.000000 152.399994
v 7315.200195 5943.600098 2895.600098
v 4267.200195 4267.200195 152.399994
v 4267.200195 4267.200195 2895.600098
v 4267.200195 4367.784180 152.399994
v 4267.200195 4367.784180 2895.600098
v 4876.799805 4267.200195 152.399994
v 4876.799805 4267.200195 2225.040039
v 7162.799805 4267.200195 152.399994
v 5669.279785 4267.200195 2225.040039
v 5669.279785 4267.200195 152.399994
v 7162.799805 4267.200195 2895.600098
v 7162.799805 4367.784180 2895.600098
v 4876.799805 4367.784180 2225.040039
v 4876.799805 4367.784180 152.399994
v 5669.279785 4367.784180 2225.040039
v 7162.799805 4367.784180 152.399994
v 5669.279785 4367.784180 152.399994
v 2407.919922 4907.279785 152.399994
v 2407.919922 4907.279785 198.119995
v 2407.919922 5821.680176 152.399994
v 2407.919922 5821.680176 198.119995
v 3322.320068 4907.279785 198.119995
v 3322.320068 4907.279785 152.399994
v 3322.320068 5821.680176 152.399994
v 3322.320068 5821.680176 198.119995
v 0.000000 0.000000 152.399994
v 0.000000 152.399994 2895.600098
v 0.000000 152.399994 152.399994
v 0.000000 0.000000 2895.600098
v 7315.200195 152.399994 2895.600098
v 7315.200195 0.000000 152.399994
v 7315.200195 152.399994 152.399994
v 7315.200195 0.000000 2895.600098
v 2438.399902 4373.879883 152.399994
v 2438.399902 4373.879883 1005.840027
v 2438.399902 4815.839844 152.399994
v 2438.399902 4815.839844 1005.840027
v 3169.919922 4373.879883 1005.840027
v 3169.919922 4373.879883 152.399994
v 3169.919922 4815.839844 152.399994
v 3169.919922 4815.839844 1005.840027
v 0.000000 3627.120117 152.399994
v 0.000000 3627.120117 2438.399902
v 0.000000 6096.000000 152.399994
v 0.000000 6096.000000 2895.600098
v 0.000000 0.000000 152.399994
v 0.000000 670.559998 2438.399902
v 0.000000 670.559998 152.399994
v 0.000000 0.000000 2895.600098
v 152.399994 0.000000 2895.600098
v 152.399994 6096.000000 2895.600098
v 152.399994 6096.000000 152.399994
v 152.399994 3627.120117 152.399994
v 152.399994 3627.120117 2438.399902
v 152.399994 670.559998 2438.399902
v 152.399994 670.559998 152.399994
v 152.399994 0.000000 152.399994
v 2103.120117 3048.000000 3124.199951
v 2103.120117 3352.800049 4876.799805
v 2103.120117 3352.800049 3124.199951
v 2103.120117 3048.000000 4876.799805
v 2203.704102 3048.000000 4876.799805
v 2203.704102 3352.800049 4876.799805
v 2203.704102 3352.800049 3124.199951
v 2203.704102 3048.000000 3124.199951
v 2103.120117 4084.320068 3124.199951
v 2103.120117 4084.320068 4876.799805
v 2103.120117 4937.759766 3124.199951
v 2103.120117 4937.759766 4876.799805
v 2203.704102 4084.320068 4876.799805
v 2203.704102 4937.759766 4876.799805
v 2203.704102 4937.759766 3124.199951
v 2203.704102 4084.320068 3124.199951
v 152.399994 4937.759766 3124.199951
v 152.399994 4937.759766 4876.799805
v 152.399994 5038.344238 3124.199951
v 152.399994 5038.344238 4876.799805
v 2203.704102 4937.759766 4876.799805
v 2203.704102 4937.759766 3124.199951
v 2203.704102 5038.344238 3124.199951
v 2203.704102 5038.344238 4876.799805
v 152.399994 2438.399902 3124.199951
v 152.399994 2438.399902 4876.799805
v 152.399994 2538.983887 3124.199951
v 152.399994 2538.983887 4876.799805
v 304.799988 2438.399902 3124.199951
v 304.799988 2438.399902 4876.799805
v 304.799988 2538.983887 4876.799805
v 304.799988 2538.983887 3124.199951
v 1981.199951 2438.399902 3124.199951
v 1828.800049 2438.399902 4876.799805
v 1828.800049 2438.399902 3124.199951
v 1981.199951 2438.399902 4876.799805
v 1828.800049 2538.983887 3124.199951
v 1981.199951 2538.983887 3124.199951
v 1981.199951 2538.983887 4876.799805
v 1828.800049 2538.983887 4876.799805
v 3108.959961 152.399994 3124.199951
v 3108.959961 152.399994 4876.799805
v 3108.959961 2164.080078 3124.199951
v 3108.959961 2164.080078 4876.799805
v 3209.543945 2164.080078 4876.799805
v 3209.543945 152.399994 4876.799805
v 3209.543945 2164.080078 3124.199951
v 3209.543945 152.399994 3124.199951
v 3108.959961 2895.600098 3124.199951
v 3108.959961 3048.000000 4876.799805
v 3108.959961 3048.000000 3124.199951
v 3108.959961 2895.600098 4876.799805
v 3209.543945 3048.000000 4876.799805
v 3209.543945 2895.600098 4876.799805
v 3209.543945 3048.000000 3124.199951
v 3209.543945 2895.600098 3124.199951
v 152.399994 3048.000000 3124.199951
v 152.399994 3048.000000 4876.799805
v 152.399994 3148.583984 3124.199951
v 152.399994 3148.583984 4876.799805
v 3209.543945 3048.000000 4876.799805
v 3209.543945 3048.000000 3124.199951
v 3209.543945 3148.583984 3124.199951
v 3209.543945 3148.583984 4876.799805
v 7162.799805 0.000000 3124.199951
v 7162.799805 609.599976 4876.799805
v 7162.799805 609.599976 3124.199951
v 7162.799805 0.000000 4876.799805
v 7315.200195 609.599976 4876.799805
v 7315.200195 0.000000 4876.799805
v 7315.200195 609.599976 3124.199951
v 7315.200195 0.000000 3124.199951
v 7162.799805 6096.000000 3124.199951
v 7162.799805 3413.760010 3855.719971
v 7162.799805 6096.000000 4876.799805
v 7162.799805 2133.600098 3124.199951
v 7162.799805 2804.159912 3855.719971
v 7162.799805 3413.760010 4617.720215
v 7162.799805 2133.600098 4876.799805
v 7162.799805 2804.159912 4617.720215
v 7315.200195 6096.000000 4876.799805
v 7315.200195 2133.600098 4876.799805
v 7315.200195 2133.600098 3124.199951
v 7315.200195 6096.000000 3124.199951
v 7315.200195 2804.159912 3855.719971
v 7315.200195 3413.760010 3855.719971
v 7315.200195 3413.760010 4617.720215
v 7315.200195 2804.159912 4617.720215
v 0.000000 5943.600098 3124.199951
v 0.000000 5943.600098 4876.799805
v 0.000000 6096.000000 3124.199951
v 0.000000 6096.000000 4876.799805
v 7315.200195 5943.600098 4876.799805
v 7315.200195 5943.600098 3124.199951
v 7315.200195 6096.000000 3124.199951
v 7315.200195 6096.000000 4876.799805
v 213.360001 3169.919922 3124.199951
v 213.360001 3169.919922 3169.919922
v 213.360001 4084.320068 3124.199951
v 213.360001 4084.320068 3169.919922
v 1127.760010 3169.919922 3169.919922
v 1127.760010 3169.919922 3124.199951
v 1127.760010 4084.320068 3124.199951
v 1127.760010 4084.320068 3169.919922
v 0.000000 0.000000 3124.199951
v 0.000000 0.000000 4876.799805
v 0.000000 152.399994 3124.199951
v 0.000000 152.399994 4876.799805
v 4572.000000 0.000000 3855.719971
v 4572.000000 0.000000 4617.720215
v 7315.200195 0.000000 3124.199951
v 5334.000000 0.000000 3855.719971
v 7315.200195 0.000000 4876.799805
v 5334.000000 0.000000 4617.720215
v 7315.200195 152.399994 4876.799805
v 4572.000000 152.399994 3855.719971
v 4572.000000 152.399994 4617.720215
v 7315.200195 152.399994 3124.199951
v 5334.000000 152.399994 3855.719971
v 5334.000000 152.399994 4617.720215
v 213.360001 4191.000000 3124.199951
v 213.360001 4724.399902 3977.639893
v 213.360001 4724.399902 3124.199951
v 213.360001 4191.000000 3977.639893
v 944.880005 4724.399902 3977.639893
v 944.880005 4191.000000 3124.199951
v 944.880005 4724.399902 3124.199951
v 944.880005 4191.000000 3977.639893
v 0.000000 6096.000000 3124.199951
v 0.000000 4328.160156 3977.639893
v 0.000000 6096.000000 4876.799805
v 0.000000 3718.560059 3977.639893
v 0.000000 4328.160156 4739.640137
v 0.000000 1767.839966 3825.239990
v 0.000000 1767.839966 4800.600098
v 0.000000 3718.560059 4739.640137
v 0.000000 0.000000 3124.199951
v 0.000000 1005.840027 3825.239990
v 0.000000 0.000000 4876.799805
v 0.000000 1005.840027 4800.600098
v 152.399994 0.000000 3124.199951
v 152.399994 0.000000 4876.799805
v 152.399994 6096.000000 4876.799805
v 152.399994 6096.000000 3124.199951
v 152.399994 4328.160156 3977.639893
v 152.399994 3718.560059 3977.639893
v 152.399994 4328.160156 4739.640137
v 152.399994 3718.560059 4739.640137
v 152.399994 1005.840027 3825.239990
v 152.399994 1767.839966 3825.239990
v 152.399994 1767.839966 4800.600098
v 152.399994 1005.840027 4800.600098
v 2386.583984 4367.784180 158.496002
v 2386.583984 4367.784180 170.688004
v 2386.583984 5928.359863 158.496002
v 2386.583984 5928.359863 170.688004
v 4166.616211 4367.784180 170.688004
v 4166.616211 4367.784180 158.496002
v 4166.616211 5928.359863 158.496002
v 4166.616211 5928.359863 170.688004
v 0.000000 6096.000000 0.000000
v 0.000000 0.000000 0.000000
v 0.000000 6096.000000 152.399994
v 0.000000 0.000000 152.399994
v 7315.200195 0.000000 0.000000
v 7315.200195 6096.000000 0.000000
v 7315.200195 6096.000000 152.399994
v 7315.200195 0.000000 152.399994
v 0.000000 6096.000000 2895.600098
v 0.000000 0.000000 2895.600098
v 0.000000 6096.000000 3124.199951
v 0.000000 0.000000 3124.199951
v 7315.200195 0.000000 2895.600098
v 7315.200195 6096.000000 2895.600098
v 7315.200195 6096.000000 3124.199951
v 7315.200195 0.000000 3124.199951
v 3657.600098 2240.280029 3124.199951
v 3657.600098 2346.959961 4343.399902
v 3657.600098 2346.959961 3124.199951
v 3657.600098 2240.280029 4343.399902
v 5638.799805 2346.959961 4343.399902
v 5638.799805 2240.280029 3124.199951
v 5638.799805 2346.959961 3124.199951
v 5638.799805 2240.280029 4343.399902
v 167.639999 5038.344238 3130.295898
v 167.639999 5038.344238 3142.488037
v 167.639999 5928.359863 3130.295898
v 167.639999 5928.359863 3142.488037
v 2087.879883 5038.344238 3142.488037
v 2087.879883 5038.344238 3130.295898
v 2087.879883 5928.359863 3130.295898
v 2087.879883 5928.359863 3142.488037
v 0.000000 6096.000000 4876.799805
v 0.000000 3048.000000 6096.000000
v 7315.200195 3048.000000 6096.000000
v 7315.200195 6096.000000 4876.799805
v 7315.200195 6096.000000 4770.120117
v 0.000000 6096.000000 4770.120117
v 0.000000 3048.000000 5989.319824
v 7315.200195 3048.000000 5989.319824
v 4367.784180 4367.784180 158.496002
v 4367.784180 4367.784180 170.688004
v 4367.784180 5928.359863 158.496002
v 4367.784180 5928.359863 170.688004
v 7147.560059 4367.784180 170.688004
v 7147.560059 4367.784180 158.496002
v 7147.560059 5928.359863 158.496002
v 7147.560059 5928.359863 170.688004
v 4572.000000 5242.560059 152.399994
v 4572.000000 5242.560059 914.400024
v 4572.000000 5730.240234 152.399994
v 4572.000000 5730.240234 914.400024
v 6278.879883 5242.560059 914.400024
v 6278.879883 5242.560059 152.399994
v 6278.879883 5730.240234 152.399994
v 6278.879883 5730.240234 914.400024
v 7219.950195 4815.839844 152.399994
v 7219.950195 4815.839844 2225.040039
v 7219.950195 5577.839844 152.399994
v 7219.950195 5577.839844 2225.040039
v 7258.049805 4815.839844 2225.040039
v 7258.049805 4815.839844 152.399994
v 7258.049805 5577.839844 152.399994
v 7258.049805 5577.839844 2225.040039
v 3215.639893 2636.520020 3130.295898
v 3215.639893 167.639999 3130.295898
v 3215.639893 2636.520020 3142.488037
v 3215.639893 167.639999 3142.488037
v 7147.560059 167.639999 3130.295898
v 7147.560059 2636.520020 3130.295898
v 7147.560059 2636.520020 3142.488037
v 7147.560059 167.639999 3142.488037
v 6537.959961 2743.199951 3124.199951
v 6537.959961 2743.199951 5105.399902
v 6537.959961 3474.719971 3124.199951
v 6537.959961 3474.719971 5105.399902
v 7056.120117 2743.199951 5105.399902
v 7056.120117 2743.199951 3124.199951
v 7056.120117 3474.719971 3124.199951
v 7056.120117 3474.719971 5105.399902
v 6370.319824 3718.560059 3124.199951
v 6370.319824 3718.560059 5105.399902
v 6370.319824 4511.040039 3124.199951
v 6370.319824 4511.040039 5105.399902
v 7132.319824 3718.560059 5105.399902
v 7132.319824 3718.560059 3124.199951
v 7132.319824 4511.040039 3124.199951
v 7132.319824 4511.040039 5105.399902
v 3505.199951 -1219.199951 2895.600098
v 3505.199951 -1219.199951 3962.399902
v 3505.199951 -1182.624023 2895.600098
v 3505.199951 -1182.624023 3962.399902
v 3541.775879 -1219.199951 3962.399902
v 3541.775879 -1219.199951 2895.600098
v 3541.775879 -1182.624023 2895.600098
v 3541.775879 -1182.624023 3962.399902
v 5943.600098 -1219.199951 2895.600098
v 5943.600098 -1219.199951 3962.399902
v 5943.600098 -1182.624023 2895.600098
v 5943.600098 -1182.624023 3962.399902
v 5980.175781 -1219.199951 3962.399902
v 5980.175781 -1219.199951 2895.600098
v 5980.175781 -1182.624023 2895.600098
v 5980.175781 -1182.624023 3962.399902
v 8345.423828 -1219.199951 2895.600098
v 8345.423828 -1219.199951 3962.399902
v 8345.423828 -1182.624023 2895.600098
v 8345.423828 -1182.624023 3962.399902
v 8382.000000 -1219.199951 3962.399902
v 8382.000000 -1219.199951 2895.600098
v 8382.000000 -1182.624023 2895.600098
v 8382.000000 -1182.624023 3962.399902
v 3505.199951 -1219.199951 3925.823975
v 3505.199951 -1182.624023 3962.399902
v 3505.199951 -1182.624023 3925.823975
v 3505.199951 -1219.199951 3962.399902
v 8382.000000 -1182.624023 3962.399902
v 8382.000000 -1219.199951 3925.823975
v 8382.000000 -1182.624023 3925.823975
v 8382.000000 -1219.199951 3962.399902
v 4572.000000 57.150002 3855.719971
v 4572.000000 57.150002 4617.720215
v 4572.000000 95.250000 3855.719971
v 4572.000000 95.250000 4617.720215
v 5334.000000 57.150002 4617.720215
v 5334.000000 57.150002 3855.719971
v 5334.000000 95.250000 3855.719971
v 5334.000000 95.250000 4617.720215
v 0.000000 3048.000000 6096.000000
v 0.000000 0.000000 4876.799805
v 7315.200195 0.000000 4876.799805
v 7315.200195 3048.000000 6096.000000
v 7315.200195 3048.000000 5989.319824
v 0.000000 3048.000000 5989.319824
v 0.000000 0.000000 4770.120117
v 7315.200195 0.000000 4770.120117
v 4367.784180 167.639999 158.496002
v 4367.784180 167.639999 170.688004
v 4367.784180 4251.959961 158.496002
v 4367.784180 4251.959961 170.688004
v 7147.560059 167.639999 170.688004
v 7147.560059 167.639999 158.496002
v 7147.560059 4251.959961 158.496002
v 7147.560059 4251.959961 170.688004
v 7219.950195 2468.879883 152.399994
v 7219.950195 2468.879883 2286.000000
v 7219.950195 3688.080078 152.399994
v 7219.950195 3688.080078 2286.000000
v 7258.049805 2468.879883 2286.000000
v 7258.049805 2468.879883 152.399994
v 7258.049805 3688.080078 152.399994
v 7258.049805 3688.080078 2286.000000
v 7219.950195 975.359985 1066.800049
v 7219.950195 1737.359985 2133.600098
v 7219.950195 1737.359985 1066.800049
v 7219.950195 975.359985 2133.600098
v 7258.049805 1737.359985 2133.600098
v 7258.049805 975.359985 1066.800049
v 7258.049805 1737.359985 1066.800049
v 7258.049805 975.359985 2133.600098
v 7315.200195 0.000000 2895.600098
v 7315.200195 0.000000 3002.280029
v 7315.200195 5943.600098 2895.600098
v 7315.200195 5943.600098 3002.280029
v 8382.000000 0.000000 3002.280029
v 8382.000000 0.000000 2895.600098
v 8382.000000 5943.600098 2895.600098
v 8382.000000 5943.600098 3002.280029
v 3505.199951 -1219.199951 2895.600098
v 3505.199951 -1219.199951 3002.280029
v 3505.199951 0.000000 2895.600098
v 3505.199951 0.000000 3002.280029
v 8382.000000 -1219.199951 3002.280029
v 8382.000000 -1219.199951 2895.600098
v 8382.000000 0.000000 2895.600098
v 8382.000000 0.000000 3002.280029
v 57.150002 3718.560059 3977.639893
v 57.150002 4328.160156 4739.640137
v 57.150002 4328.160156 3977.639893
v 57.150002 3718.560059 4739.640137
v 95.250000 4328.160156 4739.640137
v 95.250000 3718.560059 3977.639893
v 95.250000 4328.160156 3977.639893
v 95.250000 3718.560059 4739.640137
v 57.150002 1005.840027 3825.239990
v 57.150002 1767.839966 4800.600098
v 57.150002 1767.839966 3825.239990
v 57.150002 1005.840027 4800.600098
v 95.250000 1767.839966 4800.600098
v 95.250000 1005.840027 3825.239990
v 95.250000 1767.839966 3825.239990
v 95.250000 1005.840027 4800.600098
vn -1.000000 0.000000 0.000000
vn -1.000000 0.000000 0.000000
vn 1.000000 0.000000 0.000000
vn 1.000000 -0.000000 0.000000
vn 0.000000 -1.000000 0.000000
vn 0.000000 -1.000000 0.000000
vn 0.000000 1.000000 0.000000
vn 0.000000 1.000000 0.000000
vn 0.000000 0.000000 -1.000000
vn 0.000000 0.000000 -1.000000
vn 0.000000 0.000000 1.000000
vn 0.000000 0.000000 1.000000
vn -1.000000 0.000000 0.000000
vn -1.000000 0.000000 0.000000
vn 1.000000 0.000000 0.000000
vn 1.000000 -0.000000 0.000000
vn 0.000000 -1.000000 0.000000
vn 0.000000 -1.000000 0.000000
vn 0.000000 1.000000 0.000000
vn 0.000000 1.000000 0.000000
vn 0.000000 0.000000 -1.000000
vn 0.000000 0.000000 -1.000000
vn 0.000000 0.000000 1.000000
vn 0.000000 0.000000 1.000000
vn -1.000000 0.000000 0.000000
vn -1.000000 0.000000 0.000000
vn 1.000000 0.000000 0.000000
vn 1.000000 -0.000000 0.000000
vn 0.000000 -1.000000 0.000000
vn 0.000000 -1.000000 0.000000
vn 0.000000 1.000000 0.000000
vn 0.000000 1.000000 0.000000
vn 0.000000 0.000000 -1.000000
vn 0.000000 0.000000 -1.000000
vn 0.000000 0.000000 1.000000
vn 0.000000 0.000000 1.000000
vn -1.000000 0.000000 0.000000
vn -1.000000 0.000000 0.000000
vn 1.000000 0.000000 0.000000
vn 1.000000 -0.000000 0.000000
vn 0.000000 -1.000000 0.000000
vn 0.000000 -1.000000 0.000000
vn 0.000000 1.000000 0.000000
vn 0.000000 1.000000 0.000000
vn 0.000000 0.000000 -1.000000
vn 0.000000 0.000000 -1.000000
vn 0.000000 0.000000 1.000000
vn 0.000000 0.000000 1.000000
vn -1.000000 0.000000 0.000000
vn -1.000000 0.000000 0.000000
vn 1.000000 0.000000 0.000000
vn 1.000000 -0.000000 0.000000
vn 0.000000 -1.000000 0.000000
vn 0.000000 -1.000000 0.000000
vn 0.000000 1.000000 0.000000
vn 0.000000 1.000000 0.000000
vn 0.000000 0.000000 -1.000000
vn 0.000000 0.000000 -1.000000
vn 0.000000 0.000000 1.000000
vn 0.000000 0.000000 1.000000
vn -1.000000 0.000000 0.000000
vn -1.000000 0.000000 0.000000
vn 1.000000 0.000000 0.000000
vn 1.000000 -0.000000 0.000000
vn 0.000000 -1.000000 0.000000
vn 0.000000 -1.000000 0.000000
vn 0.000000 1.000000 0.000000
vn 0.000000 1.000000 0.000000
vn 0.000000 0.000000 -1.000000
vn 0.000000 0.000000 -1.000000
vn 0.000000 0.000000 1.000000
vn 0.000000 0.000000 1.000000
vn -1.000000 0.000000 0.000000
vn -1.000000 0.000000 0.000000
vn 1.000000 0.000000 0.000000
vn 1.000000 -0.000000 0.000000
vn 0.000000 -1.000000 0.000000
vn 0.000000 -1.000000 0.000000
vn 0.000000 1.000000 0.000000
vn 0.000000 1.000000 0.000000
vn 0.000000 0.000000 -1.000000
vn 0.000000 0.000000 -1.000000
vn 0.000000 0.000000 1.000000
vn 0.000000 0.000000 1.000000
vn -1.000000 0.000000 0.000000
vn -1.000000 0.000000 0.000000
vn 1.000000 0.000000 0.000000
vn 1.000000 -0.000000 0.000000
vn 0.000000 -1.000000 0.000000
vn 0.000000 -1.000000 0.000000
vn 0.000000 1.000000 0.000000
vn 0.000000 1.000000 0.000000
vn 0.000000 0.000000 -1.000000
vn 0.000000 0.000000 -1.000000
vn 0.000000 0.000000 1.000000
vn 0.000000 0.000000 1.000000
vn -1.000000 0.000000 0.000000
vn -1.000000 0.000000 0.000000
vn 1.000000 0.000000 0.000000
vn 1.000000 -0.000000 0.000000
vn 0.000000 -1.000000 0.000000
vn 0.000000 -1.000000 0.000000
vn 0.000000 1.000000 0.000000
vn 0.000000 1.000000 0.000000
vn 0.000000 0.000000 -1.000000
vn 0.000000 0.000000 -1.000000
vn 0.000000 0.000000 1.000000
vn 0.000000 0.000000 1.000000
vn -1.000000 0.000000 0.000000
vn -1.000000 0.000000 0.000000
vn 1.000000 0.000000 0.000000
vn 1.000000 -0.000000 0.000000
vn 0.000000 -1.000000 0.000000
vn 0.000000 -1.000000 0.000000
vn 0.000000 1.000000 0.000000
vn 0.000000 1.000000 0.000000
vn 0.000000 0.000000 -1.000000
vn 0.000000 0.000000 -1.000000
vn 0.000000 0.000000 1.000000
vn 0.000000 0.000000 1.000000
vn -1.000000 0.000000 0.000000
vn -1.000000 0.000000 0.000000
vn 1.000000 0.000000 0.000000
vn 1.000000 -0.000000 0.000000
vn 0.000000 -1.000000 0.000000
vn 0.000000 -1.000000 0.000000
vn 0.000000 1.000000 0.000000
vn 0.000000 1.000000 0.000000
vn 0.000000 0.000000 -1.000000
vn 0.000000 0.000000 -1.000000
vn 0.000000 0.000000 1.000000
vn 0.000000 0.000000 1.000000
vn -1.000000 0.000000 0.000000
vn -1.000000 0.000000 0.000000
vn 1.000000 0.000000 0.000000
vn 1.000000 -0.000000 0.000000
vn 0.000000 -1.000000 0.000000
vn 0.000000 -1.000000 0.000000
vn 0.000000 1.000000 0.000000
vn 0.000000 1.000000 0.000000
vn 0.000000 0.000000 -1.000000
vn 0.000000 0.000000 -1.000000
vn 0.000000 0.000000 1.000000
vn 0.000000 0.000000 1.000000
vn -1.000000 0.000000 0.000000
vn -1.000000 0.000000 0.000000
vn 1.000000 0.000000 0.000000
vn 1.000000 -0.000000 0.000000
vn 0.000000 -1.000000 0.000000
vn 0.000000 -1.000000 0.000000
vn 0.000000 1.000000 0.000000
vn 0.000000 1.000000 0.000000
vn 0.000000 0.000000 -1.000000
vn 0.000000 0.000000 -1.000000
vn 0.000000 0.000000 1.000000
vn 0.000000 0.000000 1.000000
vn -1.000000 0.000000 0.000000
vn -1.000000 0.000000 0.000000
vn 1.000000 0.000000 0.000000
vn 1.000000 -0.000000 0.000000
vn 0.000000 -1.000000 0.000000
vn 0.000000 -1.000000 0.000000
vn 0.000000 1.000000 0.000000
vn 0.000000 1.000000 0.000000
vn 0.000000 0.000000 -1.000000
vn 0.000000 0.000000 -1.000000
vn 0.000000 0.000000 1.000000
vn 0.000000 0.000000 1.000000
vn -1.000000 0.000000 0.000000
vn -1.000000 0.000000 0.000000
vn 1.000000 0.000000 0.000000
vn 1.000000 -0.000000 0.000000
vn 0.000000 -1.000000 0.000000
vn 0.000000 -1.000000 0.000000
vn 0.000000 1.000000 0.000000
vn 0.000000 1.000000 0.000000
vn 0.000000 0.000000 -1.000000
vn 0.000000 0.000000 -1.000000
vn 0.000000 0.000000 1.000000
vn 0.000000 0.000000 1.000000
vn -1.000000 0.000000 0.000000
vn -1.000000 0.000000 0.000000
vn 1.000000 0.000000 0.000000
vn 1.000000 -0.000000 0.000000
vn 0.000000 -1.000000 0.000000
vn 0.000000 -1.000000 0.000000
vn 0.000000 1.000000 0.000000
vn 0.000000 1.000000 0.000000
vn 0.000000 0.000000 -1.000000
vn 0.000000 0.000000 -1.000000
vn 0.000000 0.000000 1.000000
vn 0.000000 0.000000 1.000000
vn -1.000000 0.000000 0.000000
vn -1.000000 0.000000 0.000000
vn 1.000000 0.000000 0.000000
vn 1.000000 -0.000000 0.000000
vn 0.000000 -1.000000 0.000000
vn 0.000000 -1.000000 0.000000
vn 0.000000 1.000000 0.000000
vn 0.000000 1.000000 0.000000
vn 0.000000 0.000000 -1.000000
vn 0.000000 0.000000 -1.000000
vn 0.000000 0.000000 1.000000
vn 0.000000 0.000000 1.000000
vn -1.000000 0.000000 0.000000
vn -1.000000 0.000000 0.000000
vn 1.000000 0.000000 0.000000
vn 1.000000 -0.000000 0.000000
vn 0.000000 -1.000000 0.000000
vn 0.000000 -1.000000 0.000000
vn 0.000000 1.000000 0.000000
vn 0.000000 1.000000 0.000000
vn 0.000000 0.000000 -1.000000
vn 0.000000 0.000000 -1.000000
vn 0.000000 0.000000 1.000000
vn 0.000000 0.000000 1.000000
vn -1.000000 0.000000 0.000000
vn -1.000000 0.000000 0.000000
vn 1.000000 0.000000 0.000000
vn 1.000000 -0.000000 0.000000
vn 0.000000 -1.000000 0.000000
vn 0.000000 -1.000000 0.000000
vn 0.000000 1.000000 0.000000
vn 0.000000 1.000000 0.000000
vn 0.000000 0.000000 -1.000000
vn 0.000000 0.000000 -1.000000
vn 0.000000 0.000000 1.000000
vn 0.000000 0.000000 1.000000
vn -1.000000 0.000000 0.000000
vn -1.000000 0.000000 0.000000
vn 1.000000 0.000000 0.000000
vn 1.000000 -0.000000 0.000000
vn 0.000000 -1.000000 0.000000
vn 0.000000 -1.000000 0.000000
vn 0.000000 1.000000 0.000000
vn 0.000000 1.000000 0.000000
vn 0.000000 0.000000 -1.000000
vn 0.000000 0.000000 -1.000000
vn 0.000000 0.000000 1.000000
vn 0.000000 0.000000 1.000000
vn -1.000000 0.000000 0.000000
vn -1.000000 0.000000 0.000000
vn 1.000000 0.000000 0.000000
vn 1.000000 -0.000000 0.000000
vn 0.000000 -1.000000 0.000000
vn 0.000000 -1.000000 0.000000
vn 0.000000 1.000000 0.000000
vn 0.000000 1.000000 0.000000
vn 0.000000 0.000000 -1.000000
vn 0.000000 0.000000 -1.000000
vn 0.000000 0.000000 1.000000
vn 0.000000 0.000000 1.000000
vn -1.000000 0.000000 0.000000
vn -1.000000 0.000000 0.000000
vn 1.000000 0.000000 0.000000
vn 1.000000 -0.000000 0.000000
vn 0.000000 -1.000000 0.000000
vn 0.000000 -1.000000 0.000000
vn 0.000000 1.000000 0.000000
vn 0.000000 1.000000 0.000000
vn 0.000000 0.000000 -1.000000
vn 0.000000 0.000000 -1.000000
vn 0.000000 0.000000 1.000000
vn 0.000000 0.000000 1.000000
vn -1.000000 0.000000 0.000000
vn -1.000000 0.000000 0.000000
vn 1.000000 0.000000 0.000000
vn 1.000000 -0.000000 0.000000
vn 0.000000 -1.000000 0.000000
vn 0.000000 -1.000000 0.000000
vn 0.000000 1.000000 0.000000
vn 0.000000 1.000000 0.000000
vn 0.000000 0.000000 -1.000000
vn 0.000000 0.000000 -1.000000
vn 0.000000 0.000000 1.000000
vn 0.000000 0.000000 1.000000
vn -1.000000 0.000000 0.000000
vn -1.000000 0.000000 0.000000
vn 1.000000 0.000000 0.000000
vn 1.000000 -0.000000 0.000000
vn 0.000000 -1.000000 0.000000
vn 0.000000 -1.000000 0.000000
vn 0.000000 1.000000 0.000000
vn 0.000000 1.000000 0.000000
vn 0.000000 0.000000 -1.000000
vn 0.000000 0.000000 -1.000000
vn 0.000000 0.000000 1.000000
vn 0.000000 0.000000 1.000000
vn -1.000000 0.000000 0.000000
vn -1.000000 0.000000 0.000000
vn 1.000000 0.000000 0.000000
vn 1.000000 -0.000000 0.000000
vn 0.000000 -1.000000 0.000000
vn 0.000000 -1.000000 0.000000
vn 0.000000 1.000000 0.000000
vn 0.000000 1.000000 0.000000
vn 0.000000 0.000000 -1.000000
vn 0.000000 0.000000 -1.000000
vn 0.000000 0.000000 1.000000
vn 0.000000 0.000000 1.000000
vn -1.000000 0.000000 0.000000
vn -1.000000 0.000000 0.000000
vn 1.000000 0.000000 0.000000
vn 1.000000 -0.000000 0.000000
vn 0.000000 -1.000000 0.000000
vn 0.000000 -1.000000 0.000000
vn 0.000000 1.000000 0.000000
vn 0.000000 1.000000 0.000000
vn 0.000000 0.000000 -1.000000
vn 0.000000 0.000000 -1.000000
vn 0.000000 0.000000 1.000000
vn 0.000000 0.000000 1.000000
vn -1.000000 0.000000 0.000000
vn -1.000000 0.000000 0.000000
vn 0.000000 -1.000000 0.000000
vn 0.000000 -1.000000 0.000000
vn 0.000000 -1.000000 0.000000
vn 0.000000 -1.000000 0.000000
vn 0.000000 -1.000000 0.000000
vn 0.000000 -1.000000 0.000000
vn 0.000000 0.000000 1.000000
vn 0.000000 0.000000 1.000000
vn 0.000000 1.000000 0.000000
vn 0.000000 1.000000 0.000000
vn 0.000000 1.000000 0.000000
vn 0.000000 1.000000 0.000000
vn 0.000000 1.000000 0.000000
vn 0.000000 1.000000 0.000000
vn 0.000000 0.000000 -1.000000
vn 0.000000 0.000000 -1.000000
vn 1.000000 0.000000 0.000000
vn 1.000000 -0.000000 0.000000
vn 0.000000 0.000000 -1.000000
vn 0.000000 0.000000 -1.000000
vn -1.000000 0.000000 0.000000
vn -1.000000 0.000000 0.000000
vn 0.000000 0.000000 -1.000000
vn 0.000000 0.000000 -1.000000
vn 1.000000 0.000000 0.000000
vn 1.000000 -0.000000 0.000000
vn -1.000000 0.000000 0.000000
vn -1.000000 0.000000 0.000000
vn 1.000000 0.000000 0.000000
vn 1.000000 -0.000000 0.000000
vn 0.000000 -1.000000 0.000000
vn 0.000000 -1.000000 0.000000
vn 0.000000 1.000000 0.000000
vn 0.000000 1.000000 0.000000
vn 0.000000 0.000000 -1.000000
vn 0.000000 0.000000 -1.000000
vn 0.000000 0.000000 1.000000
vn 0.000000 0.000000 1.000000
vn -1.000000 0.000000 0.000000
vn -1.000000 0.000000 0.000000
vn -1.000000 0.000000 0.000000
vn -1.000000 0.000000 0.000000
vn -1.000000 0.000000 0.000000
vn -1.000000 0.000000 0.000000
vn -1.000000 0.000000 0.000000
vn -1.000000 0.000000 0.000000
vn -1.000000 0.000000 0.000000
vn -1.000000 0.000000 0.000000
vn -1.000000 0.000000 0.000000
vn -1.000000 0.000000 0.000000
vn -1.000000 0.000000 0.000000
vn -1.000000 0.000000 0.000000
vn -1.000000 0.000000 0.000000
vn -1.000000 0.000000 0.000000
vn 0.000000 1.000000 0.000000
vn 0.000000 1.000000 0.000000
vn 0.000000 0.000000 -1.000000
vn 0.000000 0.000000 -1.000000
vn 0.000000 -1.000000 0.000000
vn 0.000000 -1.000000 0.000000
vn 0.000000 0.000000 -1.000000
vn 0.000000 0.000000 -1.000000
vn 0.000000 1.000000 0.000000
vn 0.000000 1.000000 0.000000
vn 0.000000 0.000000 -1.000000
vn 0.000000 0.000000 -1.000000
vn 0.000000 -1.000000 0.000000
vn 0.000000 -1.000000 0.000000
vn 0.000000 0.000000 -1.000000
vn 0.000000 0.000000 -1.000000
vn 0.000000 1.000000 0.000000
vn 0.000000 1.000000 0.000000
vn 0.000000 0.000000 -1.000000
vn 0.000000 0.000000 -1.000000
vn 0.000000 -1.000000 0.000000
vn 0.000000 -1.000000 0.000000
vn 0.000000 0.000000 1.000000
vn 0.000000 0.000000 1.000000
vn 0.000000 0.000000 1.000000
vn 0.000000 0.000000 1.000000
vn 0.000000 -1.000000 0.000000
vn 0.000000 -1.000000 0.000000
vn 0.000000 1.000000 0.000000
vn 0.000000 1.000000 0.000000
vn 0.000000 0.000000 -1.000000
vn 0.000000 0.000000 -1.000000
vn 1.000000 0.000000 0.000000
vn 1.000000 0.000000 0.000000
vn 1.000000 0.000000 0.000000
vn 1.000000 0.000000 0.000000
vn 1.000000 0.000000 0.000000
vn 1.000000 -0.000000 0.000000
vn 1.000000 0.000000 0.000000
vn 1.000000 -0.000000 0.000000
vn 1.000000 0.000000 0.000000
vn 1.000000 -0.000000 0.000000
vn 1.000000 0.000000 0.000000
vn 1.000000 0.000000 0.000000
vn 1.000000 0.000000 0.000000
vn 1.000000 0.000000 0.000000
vn 1.000000 0.000000 0.000000
vn 1.000000 0.000000 0.000000
vn -1.000000 0.000000 0.000000
vn -1.000000 0.000000 0.000000
vn -1.000000 0.000000 0.000000
vn -1.000000 0.000000 0.000000
vn -1.000000 0.000000 0.000000
vn -1.000000 0.000000 0.000000
vn 0.000000 0.000000 1.000000
vn 0.000000 0.000000 1.000000
vn 0.000000 1.000000 0.000000
vn 0.000000 1.000000 0.000000
vn 0.000000 0.000000 -1.000000
vn 0.000000 0.000000 -1.000000
vn 0.000000 -1.000000 0.000000
vn 0.000000 -1.000000 0.000000
vn 0.000000 0.000000 -1.000000
vn 0.000000 0.000000 -1.000000
vn 0.000000 1.000000 0.000000
vn 0.000000 1.000000 0.000000
vn 0.000000 0.000000 -1.000000
vn 0.000000 0.000000 -1.000000
vn 0.000000 -1.000000 0.000000
vn 0.000000 -1.000000 0.000000
vn 1.000000 0.000000 0.000000
vn 1.000000 -0.000000 0.000000
vn 1.000000 0.000000 0.000000
vn 1.000000 0.000000 0.000000
vn 1.000000 0.000000 0.000000
vn 1.000000 0.000000 0.000000
vn -1.000000 0.000000 0.000000
vn -1.000000 0.000000 0.000000
vn 1.000000 0.000000 0.000000
vn 1.000000 -0.000000 0.000000
vn 0.000000 -1.000000 0.000000
vn 0.000000 -1.000000 0.000000
vn 0.000000 1.000000 0.000000
vn 0.000000 1.000000 0.000000
vn 0.000000 0.000000 -1.000000
vn 0.000000 0.000000 -1.000000
vn 0.000000 0.000000 1.000000
vn 0.000000 0.000000 1.000000
vn -1.000000 0.000000 0.000000
vn -1.000000 0.000000 0.000000
vn 0.000000 -1.000000 0.000000
vn -0.000000 -1.000000 0.000000
vn 0.000000 -1.000000 0.000000
vn 0.000000 -1.000000 0.000000
vn 0.000000 -1.000000 0.000000
vn 0.000000 -1.000000 0.000000
vn 0.000000 0.000000 1.000000
vn 0.000000 0.000000 1.000000
vn 0.000000 1.000000 0.000000
vn 0.000000 1.000000 0.000000
vn 0.000000 1.000000 0.000000
vn 0.000000 1.000000 0.000000
vn 0.000000 1.000000 0.000000
vn 0.000000 1.000000 0.000000
vn 0.000000 0.000000 -1.000000
vn 0.000000 0.000000 -1.000000
vn 1.000000 0.000000 0.000000
vn 1.000000 -0.000000 0.000000
vn 0.000000 0.000000 -1.000000
vn 0.000000 0.000000 -1.000000
vn -1.000000 0.000000 0.000000
vn -1.000000 0.000000 0.000000
vn 0.000000 0.000000 -1.000000
vn 0.000000 0.000000 -1.000000
vn 1.000000 0.000000 0.000000
vn 1.000000 -0.000000 0.000000
vn -1.000000 0.000000 0.000000
vn -1.000000 0.000000 0.000000
vn 1.000000 0.000000 0.000000
vn 1.000000 -0.000000 0.000000
vn 0.000000 -1.000000 0.000000
vn 0.000000 -1.000000 0.000000
vn 0.000000 1.000000 0.000000
vn 0.000000 1.000000 0.000000
vn 0.000000 0.000000 -1.000000
vn 0.000000 0.000000 -1.000000
vn 0.000000 0.000000 1.000000
vn 0.000000 0.000000 1.000000
vn -1.000000 0.000000 0.000000
vn -1.000000 0.000000 0.000000
vn 1.000000 0.000000 0.000000
vn 1.000000 -0.000000 0.000000
vn 0.000000 -1.000000 0.000000
vn 0.000000 -1.000000 0.000000
vn 0.000000 1.000000 0.000000
vn 0.000000 1.000000 0.000000
vn 0.000000 0.000000 -1.000000
vn 0.000000 0.000000 -1.000000
vn 0.000000 0.000000 1.000000
vn 0.000000 0.000000 1.000000
vn -1.000000 0.000000 0.000000
vn -1.000000 0.000000 0.000000
vn 1.000000 0.000000 0.000000
vn 1.000000 -0.000000 0.000000
vn 0.000000 -1.000000 0.000000
vn 0.000000 -1.000000 0.000000
vn 0.000000 1.000000 0.000000
vn 0.000000 1.000000 0.000000
vn 0.000000 0.000000 -1.000000
vn 0.000000 0.000000 -1.000000
vn 0.000000 0.000000 1.000000
vn 0.000000 0.000000 1.000000
vn -1.000000 0.000000 0.000000
vn -1.000000 0.000000 0.000000
vn -1.000000 0.000000 0.000000
vn -1.000000 0.000000 0.000000
vn -1.000000 0.000000 0.000000
vn -1.000000 0.000000 0.000000
vn 0.000000 0.000000 1.000000
vn 0.000000 0.000000 1.000000
vn 0.000000 1.000000 0.000000
vn 0.000000 1.000000 0.000000
vn 0.000000 0.000000 -1.000000
vn 0.000000 0.000000 -1.000000
vn 0.000000 -1.000000 0.000000
vn 0.000000 -1.000000 0.000000
vn 0.000000 0.000000 -1.000000
vn 0.000000 0.000000 -1.000000
vn 0.000000 1.000000 0.000000
vn 0.000000 1.000000 0.000000
vn 0.000000 0.000000 -1.000000
vn 0.000000 0.000000 -1.000000
vn 0.000000 -1.000000 0.000000
vn 0.000000 -1.000000 0.000000
vn 1.000000 0.000000 0.000000
vn 1.000000 -0.000000 0.000000
vn 1.000000 0.000000 0.000000
vn 1.000000 0.000000 0.000000
vn 1.000000 0.000000 0.000000
vn 1.000000 0.000000 0.000000
vn -1.000000 0.000000 0.000000
vn -1.000000 0.000000 0.000000
vn 0.000000 0.000000 1.000000
vn 0.000000 0.000000 1.000000
vn 0.000000 1.000000 0.000000
vn 0.000000 1.000000 0.000000
vn 0.000000 0.000000 -1.000000
vn 0.000000 0.000000 -1.000000
vn 0.000000 -1.000000 0.000000
vn 0.000000 -1.000000 0.000000
vn 1.000000 0.000000 0.000000
vn 1.000000 -0.000000 0.000000
vn -1.000000 0.000000 0.000000
vn -1.000000 0.000000 0.000000
vn 0.000000 0.000000 1.000000
vn 0.000000 0.000000 1.000000
vn 0.000000 1.000000 0.000000
vn 0.000000 1.000000 0.000000
vn 0.000000 0.000000 -1.000000
vn 0.000000 0.000000 -1.000000
vn 0.000000 -1.000000 0.000000
vn 0.000000 -1.000000 0.000000
vn 1.000000 0.000000 0.000000
vn 1.000000 -0.000000 0.000000
vn -1.000000 0.000000 0.000000
vn -1.000000 0.000000 0.000000
vn 1.000000 0.000000 0.000000
vn 1.000000 -0.000000 0.000000
vn 0.000000 -1.000000 0.000000
vn 0.000000 -1.000000 0.000000
vn 0.000000 1.000000 0.000000
vn 0.000000 1.000000 0.000000
vn 0.000000 0.000000 -1.000000
vn 0.000000 0.000000 -1.000000
vn 0.000000 0.000000 1.000000
vn 0.000000 0.000000 1.000000
vn -1.000000 0.000000 0.000000
vn -1.000000 0.000000 0.000000
vn 0.000000 -1.000000 0.000000
vn 0.000000 -1.000000 0.000000
vn 0.000000 0.000000 1.000000
vn 0.000000 0.000000 1.000000
vn 0.000000 1.000000 0.000000
vn 0.000000 1.000000 0.000000
vn 0.000000 0.000000 -1.000000
vn 0.000000 0.000000 -1.000000
vn 1.000000 0.000000 0.000000
vn 1.000000 -0.000000 0.000000
vn 0.000000 -1.000000 0.000000
vn 0.000000 -1.000000 0.000000
vn 0.000000 0.000000 -1.000000
vn 0.000000 0.000000 -1.000000
vn 1.000000 0.000000 0.000000
vn 1.000000 -0.000000 0.000000
vn 0.000000 0.000000 1.000000
vn 0.000000 0.000000 1.000000
vn -1.000000 0.000000 0.000000
vn -1.000000 0.000000 0.000000
vn 0.000000 1.000000 0.000000
vn 0.000000 1.000000 0.000000
vn -1.000000 0.000000 0.000000
vn -1.000000 0.000000 0.000000
vn 0.000000 0.000000 1.000000
vn 0.000000 0.000000 1.000000
vn 0.000000 1.000000 0.000000
vn 0.000000 1.000000 0.000000
vn 0.000000 0.000000 -1.000000
vn 0.000000 0.000000 -1.000000
vn 0.000000 -1.000000 0.000000
vn 0.000000 -1.000000 0.000000
vn 1.000000 0.000000 0.000000
vn 1.000000 -0.000000 0.000000
vn -1.000000 0.000000 0.000000
vn -1.000000 0.000000 0.000000
vn 0.000000 0.000000 1.000000
vn 0.000000 0.000000 1.000000
vn 0.000000 1.000000 0.000000
vn 0.000000 1.000000 0.000000
vn 0.000000 0.000000 -1.000000
vn 0.000000 0.000000 -1.000000
vn 0.000000 -1.000000 0.000000
vn 0.000000 -1.000000 0.000000
vn 1.000000 0.000000 0.000000
vn 1.000000 -0.000000 0.000000
vn -1.000000 0.000000 0.000000
vn -1.000000 0.000000 0.000000
vn 1.000000 0.000000 0.000000
vn 1.000000 -0.000000 0.000000
vn 0.000000 -1.000000 0.000000
vn 0.000000 -1.000000 0.000000
vn 0.000000 1.000000 0.000000
vn 0.000000 1.000000 0.000000
vn 0.000000 0.000000 -1.000000
vn 0.000000 0.000000 -1.000000
vn 0.000000 0.000000 1.000000
vn 0.000000 0.000000 1.000000
vn -1.000000 0.000000 0.000000
vn -1.000000 0.000000 0.000000
vn 0.000000 0.000000 1.000000
vn 0.000000 0.000000 1.000000
vn 0.000000 1.000000 0.000000
vn 0.000000 1.000000 0.000000
vn 0.000000 0.000000 -1.000000
vn 0.000000 0.000000 -1.000000
vn 0.000000 -1.000000 0.000000
vn 0.000000 -1.000000 0.000000
vn 1.000000 0.000000 0.000000
vn 1.000000 -0.000000 0.000000
vn -1.000000 0.000000 0.000000
vn -1.000000 0.000000 0.000000
vn -1.000000 0.000000 0.000000
vn -1.000000 0.000000 0.000000
vn -1.000000 0.000000 0.000000
vn -1.000000 0.000000 0.000000
vn -1.000000 0.000000 0.000000
vn -1.000000 0.000000 0.000000
vn 0.000000 0.000000 1.000000
vn 0.000000 0.000000 1.000000
vn 0.000000 -1.000000 0.000000
vn 0.000000 -1.000000 0.000000
vn 0.000000 1.000000 0.000000
vn 0.000000 1.000000 0.000000
vn 0.000000 0.000000 -1.000000
vn 0.000000 0.000000 -1.000000
vn 0.000000 0.000000 1.000000
vn 0.000000 0.000000 1.000000
vn 0.000000 -1.000000 0.000000
vn 0.000000 -1.000000 0.000000
vn 0.000000 0.000000 -1.000000
vn 0.000000 0.000000 -1.000000
vn 0.000000 1.000000 0.000000
vn 0.000000 1.000000 0.000000
vn 1.000000 -0.000000 0.000000
vn 1.000000 0.000000 0.000000
vn 1.000000 -0.000000 0.000000
vn 1.000000 -0.000000 0.000000
vn 1.000000 0.000000 0.000000
vn 1.000000 0.000000 0.000000
vn 1.000000 0.000000 0.000000
vn 1.000000 0.000000 0.000000
vn -1.000000 0.000000 0.000000
vn -1.000000 0.000000 0.000000
vn 1.000000 0.000000 0.000000
vn 1.000000 -0.000000 0.000000
vn 0.000000 -1.000000 0.000000
vn 0.000000 -1.000000 0.000000
vn 0.000000 1.000000 0.000000
vn 0.000000 1.000000 0.000000
vn 0.000000 0.000000 -1.000000
vn 0.000000 0.000000 -1.000000
vn 0.000000 0.000000 1.000000
vn 0.000000 0.000000 1.000000
vn -1.000000 0.000000 0.000000
vn -1.000000 0.000000 0.000000
vn 1.000000 0.000000 0.000000
vn 1.000000 -0.000000 0.000000
vn 0.000000 -1.000000 0.000000
vn 0.000000 -1.000000 0.000000
vn 0.000000 1.000000 0.000000
vn 0.000000 1.000000 0.000000
vn 0.000000 0.000000 -1.000000
vn 0.000000 0.000000 -1.000000
vn 0.000000 0.000000 1.000000
vn 0.000000 0.000000 1.000000
vn -1.000000 0.000000 0.000000
vn -1.000000 0.000000 0.000000
vn 0.000000 -1.000000 0.000000
vn 0.000000 -1.000000 0.000000
vn 0.000000 -1.000000 0.000000
vn 0.000000 -1.000000 0.000000
vn 0.000000 -1.000000 0.000000
vn 0.000000 -1.000000 0.000000
vn -0.000000 -1.000000 0.000000
vn 0.000000 -1.000000 0.000000
vn 0.000000 0.000000 1.000000
vn 0.000000 0.000000 1.000000
vn 0.000000 1.000000 0.000000
vn 0.000000 1.000000 0.000000
vn 0.000000 1.000000 0.000000
vn 0.000000 1.000000 0.000000
vn 0.000000 1.000000 0.000000
vn 0.000000 1.000000 0.000000
vn -0.000000 1.000000 0.000000
vn 0.000000 1.000000 0.000000
vn 0.000000 0.000000 -1.000000
vn 0.000000 0.000000 -1.000000
vn 1.000000 0.000000 0.000000
vn 1.000000 -0.000000 0.000000
vn 0.000000 0.000000 -1.000000
vn 0.000000 0.000000 -1.000000
vn -1.000000 0.000000 0.000000
vn -1.000000 0.000000 0.000000
vn 0.000000 0.000000 1.000000
vn 0.000000 0.000000 1.000000
vn 1.000000 0.000000 0.000000
vn 1.000000 -0.000000 0.000000
vn -1.000000 0.000000 0.000000
vn -1.000000 0.000000 0.000000
vn 1.000000 0.000000 0.000000
vn 1.000000 -0.000000 0.000000
vn 0.000000 -1.000000 0.000000
vn 0.000000 -1.000000 0.000000
vn 0.000000 1.000000 0.000000
vn 0.000000 1.000000 0.000000
vn 0.000000 0.000000 -1.000000
vn 0.000000 0.000000 -1.000000
vn 0.000000 0.000000 1.000000
vn 0.000000 0.000000 1.000000
vn -1.000000 0.000000 0.000000
vn -1.000000 0.000000 0.000000
vn -1.000000 0.000000 0.000000
vn -1.000000 0.000000 0.000000
vn -1.000000 0.000000 0.000000
vn -1.000000 0.000000 0.000000
vn -1.000000 -0.000000 0.000000
vn -1.000000 0.000000 0.000000
vn -1.000000 0.000000 0.000000
vn -1.000000 0.000000 0.000000
vn -1.000000 0.000000 0.000000
vn -1.000000 0.000000 0.000000
vn -1.000000 0.000000 0.000000
vn -1.000000 0.000000 0.000000
vn 0.000000 -1.000000 0.000000
vn 0.000000 -1.000000 0.000000
vn 0.000000 0.000000 1.000000
vn 0.000000 0.000000 1.000000
vn 0.000000 0.000000 -1.000000
vn 0.000000 0.000000 -1.000000
vn 0.000000 1.000000 0.000000
vn 0.000000 1.000000 0.000000
vn 0.000000 0.000000 1.000000
vn 0.000000 0.000000 1.000000
vn 0.000000 -1.000000 0.000000
vn 0.000000 -1.000000 0.000000
vn 0.000000 0.000000 -1.000000
vn 0.000000 0.000000 -1.000000
vn 0.000000 1.000000 0.000000
vn 0.000000 1.000000 0.000000
vn 0.000000 0.000000 1.000000
vn 0.000000 0.000000 1.000000
vn 0.000000 -1.000000 0.000000
vn 0.000000 -1.000000 0.000000
vn 0.000000 1.000000 0.000000
vn 0.000000 1.000000 0.000000
vn 0.000000 0.000000 -1.000000
vn 0.000000 0.000000 -1.000000
vn 1.000000 -0.000000 0.000000
vn 1.000000 -0.000000 0.000000
vn 1.000000 -0.000000 0.000000
vn 1.000000 -0.000000 0.000000
vn 1.000000 0.000000 0.000000
vn 1.000000 0.000000 0.000000
vn 1.000000 0.000000 0.000000
vn 1.000000 0.000000 0.000000
vn 1.000000 0.000000 0.000000
vn 1.000000 0.000000 0.000000
vn 1.000000 0.000000 0.000000
vn 1.000000 0.000000 0.000000
vn 1.000000 0.000000 0.000000
vn 1.000000 0.000000 0.000000
vn -1.000000 0.000000 0.000000
vn -1.000000 0.000000 0.000000
vn 1.000000 0.000000 0.000000
vn 1.000000 -0.000000 0.000000
vn 0.000000 -1.000000 0.000000
vn 0.000000 -1.000000 0.000000
vn 0.000000 1.000000 0.000000
vn 0.000000 1.000000 0.000000
vn 0.000000 0.000000 -1.000000
vn 0.000000 0.000000 -1.000000
vn 0.000000 0.000000 1.000000
vn 0.000000 0.000000 1.000000
vn -1.000000 0.000000 0.000000
vn -1.000000 0.000000 0.000000
vn 1.000000 0.000000 0.000000
vn 1.000000 -0.000000 0.000000
vn 0.000000 -1.000000 0.000000
vn 0.000000 -1.000000 0.000000
vn 0.000000 1.000000 0.000000
vn 0.000000 1.000000 0.000000
vn 0.000000 0.000000 -1.000000
vn 0.000000 0.000000 -1.000000
vn 0.000000 0.000000 1.000000
vn 0.000000 0.000000 1.000000
vn -1.000000 0.000000 0.000000
vn -1.000000 0.000000 0.000000
vn 1.000000 0.000000 0.000000
vn 1.000000 -0.000000 0.000000
vn 0.000000 -1.000000 0.000000
vn 0.000000 -1.000000 0.000000
vn 0.000000 1.000000 0.000000
vn 0.000000 1.000000 0.000000
vn 0.000000 0.000000 -1.000000
vn 0.000000 0.000000 -1.000000
vn 0.000000 0.000000 1.000000
vn 0.000000 0.000000 1.000000
vn -1.000000 0.000000 0.000000
vn -1.000000 0.000000 0.000000
vn 1.000000 0.000000 0.000000
vn 1.000000 -0.000000 0.000000
vn 0.000000 -1.000000 0.000000
vn 0.000000 -1.000000 0.000000
vn 0.000000 1.000000 0.000000
vn 0.000000 1.000000 0.000000
vn 0.000000 0.000000 -1.000000
vn 0.000000 0.000000 -1.000000
vn 0.000000 0.000000 1.000000
vn 0.000000 0.000000 1.000000
vn -1.000000 0.000000 0.000000
vn -1.000000 0.000000 0.000000
vn 1.000000 0.000000 0.000000
vn 1.000000 -0.000000 0.000000
vn 0.000000 -1.000000 0.000000
vn 0.000000 -1.000000 0.000000
vn 0.000000 1.000000 0.000000
vn 0.000000 1.000000 0.000000
vn 0.000000 0.000000 -1.000000
vn 0.000000 0.000000 -1.000000
vn 0.000000 0.000000 1.000000
vn 0.000000 0.000000 1.000000
vn 0.000000 0.371391 0.928477
vn -0.000000 0.371391 0.928477
vn -0.000000 1.000000 0.000000
vn 0.000000 1.000000 0.000000
vn 0.000000 -0.371391 -0.928477
vn 0.000000 -0.371391 -0.928477
vn 0.000000 -1.000000 0.000000
vn 0.000000 -1.000000 0.000000
vn -1.000000 0.000000 0.000000
vn -1.000000 0.000000 0.000000
vn 1.000000 0.000000 0.000000
vn 1.000000 0.000000 0.000000
vn -1.000000 0.000000 0.000000
vn -1.000000 0.000000 0.000000
vn 1.000000 0.000000 0.000000
vn 1.000000 -0.000000 0.000000
vn 0.000000 -1.000000 0.000000
vn 0.000000 -1.000000 0.000000
vn 0.000000 1.000000 0.000000
vn 0.000000 1.000000 0.000000
vn 0.000000 0.000000 -1.000000
vn 0.000000 0.000000 -1.000000
vn 0.000000 0.000000 1.000000
vn 0.000000 0.000000 1.000000
vn -1.000000 0.000000 0.000000
vn -1.000000 0.000000 0.000000
vn 1.000000 0.000000 0.000000
vn 1.000000 -0.000000 0.000000
vn 0.000000 -1.000000 0.000000
vn 0.000000 -1.000000 0.000000
vn 0.000000 1.000000 0.000000
vn 0.000000 1.000000 0.000000
vn 0.000000 0.000000 -1.000000
vn 0.000000 0.000000 -1.000000
vn 0.000000 0.000000 1.000000
vn 0.000000 0.000000 1.000000
vn -1.000000 0.000000 0.000000
vn -1.000000 0.000000 0.000000
vn 1.000000 0.000000 0.000000
vn 1.000000 -0.000000 0.000000
vn 0.000000 -1.000000 0.000000
vn 0.000000 -1.000000 0.000000
vn 0.000000 1.000000 0.000000
vn 0.000000 1.000000 0.000000
vn 0.000000 0.000000 -1.000000
vn 0.000000 0.000000 -1.000000
vn 0.000000 0.000000 1.000000
vn 0.000000 0.000000 1.000000
vn -1.000000 0.000000 0.000000
vn -1.000000 0.000000 0.000000
vn 1.000000 0.000000 0.000000
vn 1.000000 -0.000000 0.000000
vn 0.000000 -1.000000 0.000000
vn 0.000000 -1.000000 0.000000
vn 0.000000 1.000000 0.000000
vn 0.000000 1.000000 0.000000
vn 0.000000 0.000000 -1.000000
vn 0.000000 0.000000 -1.000000
vn 0.000000 0.000000 1.000000
vn 0.000000 0.000000 1.000000
vn -1.000000 0.000000 0.000000
vn -1.000000 0.000000 0.000000
vn 1.000000 0.000000 0.000000
vn 1.000000 -0.000000 0.000000
vn 0.000000 -1.000000 0.000000
vn 0.000000 -1.000000 0.000000
vn 0.000000 1.000000 0.000000
vn 0.000000 1.000000 0.000000
vn 0.000000 0.000000 -1.000000
vn 0.000000 0.000000 -1.000000
vn 0.000000 0.000000 1.000000
vn 0.000000 0.000000 1.000000
vn -1.000000 0.000000 0.000000
vn -1.000000 0.000000 0.000000
vn 1.000000 0.000000 0.000000
vn 1.000000 -0.000000 0.000000
vn 0.000000 -1.000000 0.000000
vn 0.000000 -1.000000 0.000000
vn 0.000000 1.000000 0.000000
vn 0.000000 1.000000 0.000000
vn 0.000000 0.000000 -1.000000
vn 0.000000 0.000000 -1.000000
vn 0.000000 0.000000 1.000000
vn 0.000000 0.000000 1.000000
vn -1.000000 0.000000 0.000000
vn -1.000000 0.000000 0.000000
vn 1.000000 0.000000 0.000000
vn 1.000000 -0.000000 0.000000
vn 0.000000 -1.000000 0.000000
vn 0.000000 -1.000000 0.000000
vn 0.000000 1.000000 0.000000
vn 0.000000 1.000000 0.000000
vn 0.000000 0.000000 -1.000000
vn 0.000000 0.000000 -1.000000
vn 0.000000 0.000000 1.000000
vn 0.000000 0.000000 1.000000
vn -1.000000 0.000000 0.000000
vn -1.000000 0.000000 0.000000
vn 1.000000 0.000000 0.000000
vn 1.000000 -0.000000 0.000000
vn 0.000000 -1.000000 0.000000
vn 0.000000 -1.000000 0.000000
vn 0.000000 1.000000 0.000000
vn 0.000000 1.000000 0.000000
vn 0.000000 0.000000 -1.000000
vn 0.000000 0.000000 -1.000000
vn 0.000000 0.000000 1.000000
vn 0.000000 0.000000 1.000000
vn -1.000000 0.000000 0.000000
vn -1.000000 0.000000 0.000000
vn 1.000000 0.000000 0.000000
vn 1.000000 -0.000000 0.000000
vn 0.000000 -1.000000 0.000000
vn 0.000000 -1.000000 0.000000
vn 0.000000 1.000000 0.000000
vn 0.000000 1.000000 0.000000
vn 0.000000 0.000000 -1.000000
vn 0.000000 0.000000 -1.000000
vn 0.000000 0.000000 1.000000
vn 0.000000 0.000000 1.000000
vn -1.000000 0.000000 0.000000
vn -1.000000 0.000000 0.000000
vn 1.000000 0.000000 0.000000
vn 1.000000 -0.000000 0.000000
vn 0.000000 -1.000000 0.000000
vn 0.000000 -1.000000 0.000000
vn 0.000000 1.000000 0.000000
vn 0.000000 1.000000 0.000000
vn 0.000000 0.000000 -1.000000
vn 0.000000 0.000000 -1.000000
vn 0.000000 0.000000 1.000000
vn 0.000000 0.000000 1.000000
vn -1.000000 0.000000 0.000000
vn -1.000000 0.000000 0.000000
vn 1.000000 0.000000 0.000000
vn 1.000000 -0.000000 0.000000
vn 0.000000 -1.000000 0.000000
vn 0.000000 -1.000000 0.000000
vn 0.000000 1.000000 0.000000
vn 0.000000 1.000000 0.000000
vn 0.000000 0.000000 -1.000000
vn 0.000000 0.000000 -1.000000
vn 0.000000 0.000000 1.000000
vn 0.000000 0.000000 1.000000
vn -0.000000 -0.371391 0.928477
vn 0.000000 -0.371391 0.928477
vn -0.000000 1.000000 0.000000
vn 0.000000 1.000000 0.000000
vn -0.000000 0.371391 -0.928477
vn 0.000000 0.371391 -0.928477
vn 0.000000 -1.000000 0.000000
vn 0.000000 -1.000000 0.000000
vn -1.000000 0.000000 0.000000
vn -1.000000 0.000000 0.000000
vn 1.000000 0.000000 0.000000
vn 1.000000 -0.000000 0.000000
vn -1.000000 0.000000 0.000000
vn -1.000000 0.000000 0.000000
vn 1.000000 0.000000 0.000000
vn 1.000000 -0.000000 0.000000
vn 0.000000 -1.000000 0.000000
vn 0.000000 -1.000000 0.000000
vn 0.000000 1.000000 0.000000
vn 0.000000 1.000000 0.000000
vn 0.000000 0.000000 -1.000000
vn 0.000000 0.000000 -1.000000
vn 0.000000 0.000000 1.000000
vn 0.000000 0.000000 1.000000
vn -1.000000 0.000000 0.000000
vn -1.000000 0.000000 0.000000
vn 1.000000 0.000000 0.000000
vn 1.000000 -0.000000 0.000000
vn 0.000000 -1.000000 0.000000
vn 0.000000 -1.000000 0.000000
vn 0.000000 1.000000 0.000000
vn 0.000000 1.000000 0.000000
vn 0.000000 0.000000 -1.000000
vn 0.000000 0.000000 -1.000000
vn 0.000000 0.000000 1.000000
vn 0.000000 0.000000 1.000000
vn -1.000000 0.000000 0.000000
vn -1.000000 0.000000 0.000000
vn 1.000000 0.000000 0.000000
vn 1.000000 -0.000000 0.000000
vn 0.000000 -1.000000 0.000000
vn 0.000000 -1.000000 0.000000
vn 0.000000 1.000000 0.000000
vn 0.000000 1.000000 0.000000
vn 0.000000 0.000000 -1.000000
vn 0.000000 0.000000 -1.000000
vn 0.000000 0.000000 1.000000
vn 0.000000 0.000000 1.000000
vn -1.000000 0.000000 0.000000
vn -1.000000 0.000000 0.000000
vn 1.000000 0.000000 0.000000
vn 1.000000 -0.000000 0.000000
vn 0.000000 -1.000000 0.000000
vn 0.000000 -1.000000 0.000000
vn 0.000000 1.000000 0.000000
vn 0.000000 1.000000 0.000000
vn 0.000000 0.000000 -1.000000
vn 0.000000 0.000000 -1.000000
vn 0.000000 0.000000 1.000000
vn 0.000000 0.000000 1.000000
vn -1.000000 0.000000 0.000000
vn -1.000000 0.000000 0.000000
vn 1.000000 0.000000 0.000000
vn 1.000000 -0.000000 0.000000
vn 0.000000 -1.000000 0.000000
vn 0.000000 -1.000000 0.000000
vn 0.000000 1.000000 0.000000
vn 0.000000 1.000000 0.000000
vn 0.000000 0.000000 -1.000000
vn 0.000000 0.000000 -1.000000
vn 0.000000 0.000000 1.000000
vn 0.000000 0.000000 1.000000
vn -1.000000 0.000000 0.000000
vn -1.000000 0.000000 0.000000
vn 1.000000 0.000000 0.000000
vn 1.000000 -0.000000 0.000000
vn 0.000000 -1.000000 0.000000
vn 0.000000 -1.000000 0.000000
vn 0.000000 1.000000 0.000000
vn 0.000000 1.000000 0.000000
vn 0.000000 0.000000 -1.000000
vn 0.000000 0.000000 -1.000000
vn 0.000000 0.000000 1.000000
vn 0.000000 0.000000 1.000000
vn -1.000000 0.000000 0.000000
vn -1.000000 0.000000 0.000000
vn 1.000000 0.000000 0.000000
vn 1.000000 -0.000000 0.000000
vn 0.000000 -1.000000 0.000000
vn 0.000000 -1.000000 0.000000
vn 0.000000 1.000000 0.000000
vn 0.000000 1.000000 0.000000
vn 0.000000 0.000000 -1.000000
vn 0.000000 0.000000 -1.000000
vn 0.000000 0.000000 1.000000
vn 0.000000 0.000000 1.000000
g Bathroom and laundry
f 1//1 2//1 3//1
f 2//2 4//2 3//2
f 5//3 6//3 7//3
f 8//4 5//4 7//4
f 5//5 8//5 2//5
f 2//6 8//6 4//6
f 7//7 6//7 1//7
f 7//8 1//8 3//8
f 1//9 6//9 2//9
f 2//10 6//10 5//10
f 7//11 3//11 4//11
f 7//12 4//12 8//12
g Bedroom
f 9//13 10//13 11//13
f 10//14 12//14 11//14
f 13//15 14//15 15//15
f 16//16 13//16 15//16
f 10//17 13//17 12//17
f 13//18 16//18 12//18
f 14//19 9//19 11//19
f 15//20 14//20 11//20
f 9//21 14//21 10//21
f 10//22 14//22 13//22
f 15//23 11//23 12//23
f 15//24 12//24 16//24
g East balcony guard rail
f 17//25 18//25 19//25
f 19//26 18//26 20//26
f 21//27 22//27 23//27
f 21//28 23//28 24//28
f 22//29 21//29 17//29
f 17//30 21//30 18//30
f 24//31 23//31 19//31
f 24//32 19//32 20//32
f 19//33 23//33 17//33
f 17//34 23//34 22//34
f 24//35 20//35 18//35
f 24//36 18//36 21//36
g East gable appliance run
f 25//37 26//37 27//37
f 26//38 28//38 27//38
f 29//39 30//39 31//39
f 32//40 29//40 31//40
f 29//41 32//41 26//41
f 26//42 32//42 28//42
f 31//43 30//43 25//43
f 31//44 25//44 27//44
f 25//45 30//45 26//45
f 26//46 30//46 29//46
f 31//47 27//47 28//47
f 31//48 28//48 32//48
g East kitchen window
f 33//49 34//49 35//49
f 33//50 36//50 34//50
f 37//51 38//51 39//51
f 40//52 38//52 37//52
f 38//53 40//53 33//53
f 33//54 40//54 36//54
f 37//55 39//55 35//55
f 37//56 35//56 34//56
f 35//57 39//57 33//57
f 33//58 39//58 38//58
f 37//59 34//59 36//59
f 37//60 36//60 40//60
g East sliding glass entry
f 41//61 42//61 43//61
f 41//62 44//62 42//62
f 45//63 46//63 47//63
f 48//64 46//64 45//64
f 46//65 48//65 41//65
f 41//66 48//66 44//66
f 45//67 47//67 43//67
f 45//68 43//68 42//68
f 43//69 47//69 41//69
f 41//70 47//70 46//70
f 45//71 42//71 44//71
f 45//72 44//72 48//72
g Exterior stair step 01
f 49//73 50//73 51//73
f 51//74 50//74 52//74
f 53//75 54//75 55//75
f 53//76 55//76 56//76
f 49//77 54//77 50//77
f 54//78 53//78 50//78
f 55//79 51//79 52//79
f 56//80 55//80 52//80
f 51//81 55//81 49//81
f 49//82 55//82 54//82
f 56//83 52//83 50//83
f 56//84 50//84 53//84
g Exterior stair step 02
f 57//85 58//85 59//85
f 58//86 60//86 59//86
f 61//87 62//87 63//87
f 64//88 61//88 63//88
f 61//89 64//89 58//89
f 58//90 64//90 60//90
f 63//91 62//91 57//91
f 63//92 57//92 59//92
f 57//93 62//93 58//93
f 58//94 62//94 61//94
f 63//95 59//95 60//95
f 63//96 60//96 64//96
g Exterior stair step 03
f 65//97 66//97 67//97
f 67//98 66//98 68//98
f 69//99 70//99 71//99
f 69//100 71//100 72//100
f 70//101 66//101 65//101
f 70//102 69//102 66//102
f 68//103 71//103 67//103
f 72//104 71//104 68//104
f 67//105 71//105 65//105
f 65//106 71//106 70//106
f 72//107 68//107 66//107
f 72//108 66//108 69//108
g Exterior stair step 04
f 73//109 74//109 75//109
f 75//110 74//110 76//110
f 77//111 78//111 79//111
f 77//112 79//112 80//112
f 78//113 77//113 73//113
f 73//114 77//114 74//114
f 80//115 79//115 75//115
f 80//116 75//116 76//116
f 75//117 79//117 73//117
f 73//118 79//118 78//118
f 80//119 76//119 74//119
f 80//120 74//120 77//120
g Exterior stair step 05
f 81//121 82//121 83//121
f 83//122 82//122 84//122
f 85//123 86//123 87//123
f 85//124 87//124 88//124
f 86//125 85//125 81//125
f 81//126 85//126 82//126
f 88//127 87//127 83//127
f 88//128 83//128 84//128
f 83//129 87//129 81//129
f 81//130 87//130 86//130
f 88//131 84//131 82//131
f 88//132 82//132 85//132
g Exterior stair step 06
f 89//133 90//133 91//133
f 91//134 90//134 92//134
f 93//135 94//135 95//135
f 93//136 95//136 96//136
f 94//137 93//137 89//137
f 89//138 93//138 90//138
f 96//139 95//139 91//139
f 96//140 91//140 92//140
f 91//141 95//141 89//141
f 89//142 95//142 94//142
f 96//143 92//143 90//143
f 96//144 90//144 93//144
g Exterior stair step 07
f 97//145 98//145 99//145
f 99//146 98//146 100//146
f 101//147 102//147 103//147
f 101//148 103//148 104//148
f 102//149 101//149 97//149
f 97//150 101//150 98//150
f 104//151 103//151 99//151
f 104//152 99//152 100//152
f 99//153 103//153 97//153
f 97//154 103//154 102//154
f 104//155 100//155 98//155
f 104//156 98//156 101//156
g Exterior stair step 08
f 105//157 106//157 107//157
f 107//158 106//158 108//158
f 109//159 110//159 111//159
f 109//160 111//160 112//160
f 110//161 109//161 105//161
f 105//162 109//162 106//162
f 112//163 111//163 107//163
f 112//164 107//164 108//164
f 107//165 111//165 105//165
f 105//166 111//166 110//166
f 112//167 108//167 106//167
f 112//168 106//168 109//168
g Exterior stair step 09
f 113//169 114//169 115//169
f 113//170 116//170 114//170
f 117//171 118//171 119//171
f 120//172 118//172 117//172
f 118//173 120//173 113//173
f 113//174 120//174 116//174
f 117//175 119//175 115//175
f 117//176 115//176 114//176
f 115//177 119//177 113//177
f 113//178 119//178 118//178
f 117//179 114//179 116//179
f 117//180 116//180 120//180
g Exterior stair step 10
f 121//181 122//181 123//181
f 121//182 124//182 122//182
f 125//183 126//183 127//183
f 128//184 126//184 125//184
f 126//185 128//185 121//185
f 121//186 128//186 124//186
f 125//187 127//187 123//187
f 125//188 123//188 122//188
f 123//189 127//189 121//189
f 121//190 127//190 126//190
f 125//191 122//191 124//191
f 125//192 124//192 128//192
g Exterior stair step 11
f 129//193 130//193 131//193
f 131//194 130//194 132//194
f 133//195 134//195 135//195
f 133//196 135//196 136//196
f 134//197 130//197 129//197
f 134//198 133//198 130//198
f 132//199 135//199 131//199
f 136//200 135//200 132//200
f 131//201 135//201 129//201
f 129//202 135//202 134//202
f 136//203 132//203 130//203
f 136//204 130//204 133//204
g Exterior stair step 12
f 137//205 138//205 139//205
f 139//206 138//206 140//206
f 141//207 142//207 143//207
f 141//208 143//208 144//208
f 142//209 138//209 137//209
f 142//210 141//210 138//210
f 140//211 143//211 139//211
f 144//212 143//212 140//212
f 139//213 143//213 137//213
f 137//214 143//214 142//214
f 144//215 140//215 138//215
f 144//216 138//216 141//216
g Exterior stair step 13
f 145//217 146//217 147//217
f 147//218 146//218 148//218
f 149//219 150//219 151//219
f 149//220 151//220 152//220
f 150//221 149//221 145//221
f 145//222 149//222 146//222
f 152//223 151//223 147//223
f 152//224 147//224 148//224
f 147//225 151//225 145//225
f 145//226 151//226 150//226
f 152//227 148//227 146//227
f 152//228 146//228 149//228
g Garage and storage zone
f 153//229 154//229 155//229
f 155//230 154//230 156//230
f 157//231 158//231 159//231
f 157//232 159//232 160//232
f 153//233 158//233 154//233
f 158//234 157//234 154//234
f 159//235 155//235 156//235
f 160//236 159//236 156//236
f 155//237 159//237 153//237
f 153//238 159//238 158//238
f 160//239 156//239 154//239
f 160//240 154//240 157//240
g Garage north return
f 161//241 162//241 163//241
f 163//242 162//242 164//242
f 165//243 166//243 167//243
f 165//244 167//244 168//244
f 166//245 165//245 161//245
f 161//246 165//246 162//246
f 168//247 167//247 163//247
f 168//248 163//248 164//248
f 163//249 167//249 161//249
f 161//250 167//250 166//250
f 168//251 164//251 162//251
f 168//252 162//252 165//252
g Garage overhead door
f 169//253 170//253 171//253
f 170//254 172//254 171//254
f 173//255 174//255 175//255
f 176//256 173//256 175//256
f 173//257 176//257 170//257
f 170//258 176//258 172//258
f 175//259 174//259 169//259
f 175//260 169//260 171//260
f 169//261 174//261 170//261
f 170//262 174//262 173//262
f 175//263 171//263 172//263
f 175//264 172//264 176//264
g Ground east patio
f 177//265 178//265 179//265
f 178//266 180//266 179//266
f 181//267 182//267 183//267
f 184//268 181//268 183//268
f 181//269 184//269 178//269
f 178//270 184//270 180//270
f 183//271 182//271 177//271
f 183//272 177//272 179//272
f 178//273 177//273 181//273
f 177//274 182//274 181//274
f 179//275 180//275 184//275
f 183//276 179//276 184//276
g Ground south covered patio
f 185//277 186//277 187//277
f 187//278 186//278 188//278
f 189//279 190//279 191//279
f 189//280 191//280 192//280
f 185//281 190//281 186//281
f 190//282 189//282 186//282
f 191//283 187//283 188//283
f 192//284 191//284 188//284
f 187//285 190//285 185//285
f 187//286 191//286 190//286
f 189//287 188//287 186//287
f 192//288 188//288 189//288
g Kitchen and dining
f 193//289 194//289 195//289
f 194//290 196//290 195//290
f 197//291 198//291 199//291
f 200//292 197//292 199//292
f 194//293 197//293 196//293
f 197//294 200//294 196//294
f 198//295 193//295 195//295
f 199//296 198//296 195//296
f 193//297 198//297 194//297
f 194//298 198//298 197//298
f 199//299 195//299 196//299
f 199//300 196//300 200//300
g Kitchen ridge island
f 201//301 202//301 203//301
f 203//302 202//302 204//302
f 205//303 206//303 207//303
f 205//304 207//304 208//304
f 206//305 205//305 201//305
f 201//306 205//306 202//306
f 208//307 207//307 203//307
f 208//308 203//308 204//308
f 203//309 206//309 201//309
f 203//310 207//310 206//310
f 205//311 204//311 202//311
f 208//312 204//312 205//312
g L1 bathroom south wall
f 209//313 210//313 211//313
f 211//314 210//314 212//314
f 213//315 214//315 209//315
f 209//316 214//316 210//316
f 215//317 216//317 217//317
f 216//318 218//318 214//318
f 214//319 218//319 210//319
f 215//320 218//320 216//320
f 218//321 212//321 210//321
f 219//322 212//322 218//322
f 220//323 221//323 211//323
f 220//324 211//324 212//324
f 222//325 223//325 224//325
f 219//326 222//326 220//326
f 219//327 220//327 212//327
f 219//328 223//328 222//328
f 211//329 221//329 209//329
f 209//330 221//330 213//330
f 214//331 213//331 221//331
f 214//332 221//332 220//332
f 220//333 216//333 214//333
f 220//334 222//334 216//334
f 217//335 216//335 224//335
f 224//336 216//336 222//336
f 224//337 215//337 217//337
f 224//338 223//338 215//338
f 218//339 215//339 223//339
f 218//340 223//340 219//340
g L1 bathroom west wall
f 225//341 226//341 227//341
f 227//342 226//342 228//342
f 229//343 230//343 231//343
f 229//344 231//344 232//344
f 230//345 229//345 225//345
f 225//346 229//346 226//346
f 232//347 231//347 227//347
f 232//348 227//348 228//348
f 225//349 227//349 230//349
f 227//350 231//350 230//350
f 228//351 226//351 229//351
f 232//352 228//352 229//352
g L1 east exterior wall
f 233//353 234//353 235//353
f 234//354 236//354 235//354
f 237//355 238//355 239//355
f 234//356 238//356 236//356
f 237//357 240//357 238//357
f 238//358 240//358 236//358
f 241//359 242//359 243//359
f 243//360 244//360 241//360
f 243//361 245//361 244//361
f 241//362 246//362 242//362
f 244//363 247//363 248//363
f 248//364 247//364 246//364
f 245//365 247//365 244//365
f 246//366 247//366 242//366
f 247//367 236//367 242//367
f 242//368 236//368 240//368
f 236//369 249//369 235//369
f 250//370 249//370 236//370
f 235//371 249//371 233//371
f 233//372 249//372 251//372
f 251//373 252//373 233//373
f 233//374 252//374 234//374
f 238//375 234//375 253//375
f 234//376 252//376 253//376
f 253//377 254//377 239//377
f 253//378 239//378 238//378
f 239//379 254//379 237//379
f 237//380 254//380 255//380
f 255//381 256//381 237//381
f 237//382 256//382 240//382
f 240//383 256//383 242//383
f 242//384 256//384 257//384
f 257//385 258//385 243//385
f 257//386 243//386 242//386
f 245//387 243//387 259//387
f 243//388 258//388 259//388
f 259//389 247//389 245//389
f 259//390 260//390 247//390
f 236//391 247//391 260//391
f 250//392 236//392 260//392
f 261//393 241//393 244//393
f 261//394 244//394 262//394
f 261//395 246//395 241//395
f 261//396 263//396 246//396
f 248//397 262//397 244//397
f 264//398 262//398 248//398
f 246//399 263//399 248//399
f 248//400 263//400 264//400
f 252//401 251//401 249//401
f 250//402 252//402 249//402
f 253//403 255//403 254//403
f 253//404 252//404 250//404
f 256//405 255//405 253//405
f 256//406 253//406 250//406
f 257//407 261//407 258//407
f 262//408 258//408 261//408
f 259//409 258//409 262//409
f 263//410 261//410 257//410
f 260//411 262//411 264//411
f 260//412 264//412 263//412
f 260//413 259//413 262//413
f 260//414 263//414 257//414
f 250//415 260//415 257//415
f 250//416 257//416 256//416
g L1 garage to east rooms
f 265//417 266//417 267//417
f 267//418 266//418 268//418
f 269//419 270//419 271//419
f 271//420 272//420 266//420
f 270//421 272//421 271//421
f 272//422 268//422 266//422
f 273//423 268//423 272//423
f 273//424 272//424 274//424
f 273//425 275//425 267//425
f 273//426 267//426 268//426
f 267//427 275//427 265//427
f 265//428 275//428 276//428
f 276//429 277//429 265//429
f 265//430 277//430 266//430
f 266//431 277//431 271//431
f 271//432 277//432 278//432
f 278//433 279//433 269//433
f 278//434 269//434 271//434
f 270//435 269//435 280//435
f 269//436 279//436 280//436
f 280//437 274//437 270//437
f 270//438 274//438 272//438
f 277//439 276//439 275//439
f 277//440 275//440 273//440
f 280//441 279//441 278//441
f 274//442 278//442 277//442
f 274//443 280//443 278//443
f 273//444 274//444 277//444
g L1 north exterior wall
f 281//445 282//445 283//445
f 281//446 284//446 282//446
f 285//447 286//447 287//447
f 288//448 286//448 285//448
f 286//449 288//449 281//449
f 281//450 288//450 284//450
f 285//451 287//451 283//451
f 285//452 283//452 282//452
f 283//453 286//453 281//453
f 283//454 287//454 286//454
f 288//455 282//455 284//455
f 285//456 282//456 288//456
g L1 office south wall
f 289//457 290//457 291//457
f 291//458 290//458 292//458
f 293//459 294//459 289//459
f 294//460 290//460 289//460
f 295//461 296//461 297//461
f 294//462 296//462 290//462
f 295//463 298//463 296//463
f 296//464 298//464 290//464
f 299//465 292//465 290//465
f 299//466 290//466 298//466
f 300//467 301//467 291//467
f 292//468 300//468 291//468
f 302//469 303//469 304//469
f 302//470 300//470 292//470
f 299//471 303//471 302//471
f 299//472 302//472 292//472
f 291//473 293//473 289//473
f 291//474 301//474 293//474
f 294//475 293//475 301//475
f 294//476 301//476 300//476
f 300//477 296//477 294//477
f 300//478 302//478 296//478
f 297//479 296//479 304//479
f 304//480 296//480 302//480
f 304//481 303//481 297//481
f 297//482 303//482 295//482
f 298//483 295//483 303//483
f 298//484 303//484 299//484
g L1 shower
f 305//485 306//485 307//485
f 307//486 306//486 308//486
f 309//487 310//487 311//487
f 309//488 311//488 312//488
f 310//489 309//489 305//489
f 305//490 309//490 306//490
f 312//491 311//491 307//491
f 312//492 307//492 308//492
f 307//493 310//493 305//493
f 307//494 311//494 310//494
f 309//495 308//495 306//495
f 312//496 308//496 309//496
g L1 south exterior wall
f 313//497 314//497 315//497
f 313//498 316//498 314//498
f 317//499 318//499 319//499
f 320//500 318//500 317//500
f 318//501 320//501 313//501
f 313//502 320//502 316//502
f 317//503 319//503 315//503
f 317//504 315//504 314//504
f 315//505 319//505 313//505
f 313//506 319//506 318//506
f 317//507 314//507 316//507
f 317//508 316//508 320//508
g L1 vanity
f 321//509 322//509 323//509
f 323//510 322//510 324//510
f 325//511 326//511 327//511
f 325//512 327//512 328//512
f 326//513 325//513 321//513
f 321//514 325//514 322//514
f 328//515 327//515 323//515
f 328//516 323//516 324//516
f 323//517 326//517 321//517
f 323//518 327//518 326//518
f 325//519 324//519 322//519
f 328//520 324//520 325//520
g L1 west exterior wall with garage door
f 329//521 330//521 331//521
f 331//522 330//522 332//522
f 333//523 334//523 335//523
f 334//524 336//524 330//524
f 333//525 336//525 334//525
f 336//526 332//526 330//526
f 332//527 336//527 337//527
f 338//528 332//528 337//528
f 332//529 339//529 331//529
f 338//530 339//530 332//530
f 329//531 331//531 340//531
f 331//532 339//532 340//532
f 340//533 330//533 329//533
f 340//534 341//534 330//534
f 330//535 341//535 334//535
f 334//536 341//536 342//536
f 334//537 343//537 335//537
f 342//538 343//538 334//538
f 335//539 343//539 333//539
f 333//540 343//540 344//540
f 344//541 336//541 333//541
f 344//542 337//542 336//542
f 341//543 340//543 339//543
f 341//544 339//544 338//544
f 342//545 344//545 343//545
f 337//546 342//546 341//546
f 337//547 344//547 342//547
f 338//548 337//548 341//548
g L2 bath east wall
f 345//549 346//549 347//549
f 345//550 348//550 346//550
f 346//551 348//551 349//551
f 350//552 346//552 349//552
f 350//553 351//553 347//553
f 350//554 347//554 346//554
f 345//555 347//555 352//555
f 347//556 351//556 352//556
f 352//557 349//557 345//557
f 345//558 349//558 348//558
f 350//559 352//559 351//559
f 349//560 352//560 350//560
f 353//561 354//561 355//561
f 355//562 354//562 356//562
f 356//563 354//563 357//563
f 358//564 356//564 357//564
f 358//565 359//565 355//565
f 358//566 355//566 356//566
f 353//567 355//567 360//567
f 355//568 359//568 360//568
f 360//569 357//569 353//569
f 353//570 357//570 354//570
f 357//571 360//571 359//571
f 357//572 359//572 358//572
g L2 bath storage wall
f 361//573 362//573 363//573
f 363//574 362//574 364//574
f 365//575 366//575 367//575
f 365//576 367//576 368//576
f 366//577 365//577 361//577
f 361//578 365//578 362//578
f 368//579 367//579 363//579
f 368//580 363//580 364//580
f 363//581 367//581 361//581
f 361//582 367//582 366//582
f 368//583 364//583 362//583
f 368//584 362//584 365//584
g L2 bedroom closet wall
f 369//585 370//585 371//585
f 371//586 370//586 372//586
f 373//587 374//587 369//587
f 369//588 374//588 370//588
f 375//589 372//589 370//589
f 375//590 370//590 374//590
f 375//591 376//591 371//591
f 375//592 371//592 372//592
f 371//593 376//593 369//593
f 369//594 376//594 373//594
f 374//595 373//595 376//595
f 374//596 376//596 375//596
f 377//597 378//597 379//597
f 377//598 380//598 378//598
f 381//599 382//599 379//599
f 379//600 382//600 377//600
f 380//601 377//601 382//601
f 380//602 382//602 383//602
f 383//603 384//603 378//603
f 383//604 378//604 380//604
f 379//605 378//605 381//605
f 381//606 378//606 384//606
f 384//607 382//607 381//607
f 383//608 382//608 384//608
g L2 bedroom east wall
f 385//609 386//609 387//609
f 387//610 386//610 388//610
f 389//611 388//611 386//611
f 389//612 386//612 390//612
f 389//613 391//613 387//613
f 389//614 387//614 388//614
f 387//615 391//615 385//615
f 385//616 391//616 392//616
f 392//617 390//617 385//617
f 385//618 390//618 386//618
f 390//619 392//619 391//619
f 390//620 391//620 389//620
f 393//621 394//621 395//621
f 393//622 396//622 394//622
f 397//623 394//623 396//623
f 397//624 396//624 398//624
f 397//625 399//625 395//625
f 397//626 395//626 394//626
f 395//627 399//627 393//627
f 393//628 399//628 400//628
f 400//629 398//629 393//629
f 393//630 398//630 396//630
f 397//631 400//631 399//631
f 398//632 400//632 397//632
g L2 bedroom north wall
f 401//633 402//633 403//633
f 403//634 402//634 404//634
f 405//635 406//635 407//635
f 405//636 407//636 408//636
f 406//637 405//637 401//637
f 401//638 405//638 402//638
f 408//639 407//639 403//639
f 408//640 403//640 404//640
f 403//641 406//641 401//641
f 403//642 407//642 406//642
f 405//643 404//643 402//643
f 408//644 404//644 405//644
g L2 east exterior wall
f 409//645 410//645 411//645
f 409//646 412//646 410//646
f 413//647 410//647 412//647
f 413//648 412//648 414//648
f 413//649 415//649 411//649
f 413//650 411//650 410//650
f 411//651 415//651 409//651
f 409//652 415//652 416//652
f 416//653 414//653 409//653
f 409//654 414//654 412//654
f 413//655 416//655 415//655
f 414//656 416//656 413//656
f 417//657 418//657 419//657
f 417//658 420//658 418//658
f 420//659 421//659 418//659
f 418//660 422//660 419//660
f 421//661 423//661 424//661
f 424//662 423//662 422//662
f 420//663 423//663 421//663
f 423//664 419//664 422//664
f 425//665 419//665 423//665
f 425//666 423//666 426//666
f 427//667 426//667 420//667
f 420//668 426//668 423//668
f 425//669 428//669 417//669
f 425//670 417//670 419//670
f 417//671 428//671 420//671
f 420//672 428//672 427//672
f 418//673 421//673 429//673
f 430//674 418//674 429//674
f 430//675 422//675 418//675
f 430//676 431//676 422//676
f 424//677 422//677 432//677
f 422//678 431//678 432//678
f 424//679 429//679 421//679
f 432//680 429//680 424//680
f 430//681 428//681 425//681
f 427//682 428//682 430//682
f 429//683 427//683 430//683
f 431//684 430//684 425//684
f 426//685 429//685 432//685
f 426//686 432//686 431//686
f 426//687 427//687 429//687
f 425//688 426//688 431//688
g L2 north blank exterior wall
f 433//689 434//689 435//689
f 435//690 434//690 436//690
f 437//691 438//691 439//691
f 437//692 439//692 440//692
f 438//693 437//693 433//693
f 433//694 437//694 434//694
f 440//695 439//695 435//695
f 440//696 435//696 436//696
f 435//697 438//697 433//697
f 435//698 439//698 438//698
f 437//699 436//699 434//699
f 440//700 436//700 437//700
g L2 shower
f 441//701 442//701 443//701
f 443//702 442//702 444//702
f 445//703 446//703 447//703
f 445//704 447//704 448//704
f 446//705 445//705 441//705
f 441//706 445//706 442//706
f 448//707 447//707 443//707
f 448//708 443//708 444//708
f 441//709 443//709 446//709
f 443//710 447//710 446//710
f 444//711 442//711 445//711
f 448//712 444//712 445//712
g L2 south exterior wall
f 449//713 450//713 451//713
f 451//714 450//714 452//714
f 449//715 453//715 450//715
f 453//716 454//716 450//716
f 453//717 455//717 456//717
f 456//718 457//718 458//718
f 455//719 457//719 456//719
f 449//720 455//720 453//720
f 457//721 450//721 458//721
f 458//722 450//722 454//722
f 459//723 452//723 450//723
f 459//724 450//724 457//724
f 460//725 451//725 452//725
f 461//726 460//726 452//726
f 462//727 460//727 463//727
f 459//728 463//728 464//728
f 459//729 462//729 463//729
f 462//730 451//730 460//730
f 452//731 459//731 464//731
f 452//732 464//732 461//732
f 451//733 462//733 449//733
f 449//734 462//734 455//734
f 457//735 455//735 462//735
f 457//736 462//736 459//736
f 461//737 458//737 454//737
f 461//738 464//738 458//738
f 456//739 464//739 463//739
f 456//740 458//740 464//740
f 456//741 460//741 453//741
f 463//742 460//742 456//742
f 461//743 453//743 460//743
f 454//744 453//744 461//744
g L2 vanity
f 465//745 466//745 467//745
f 465//746 468//746 466//746
f 469//747 470//747 471//747
f 472//748 470//748 469//748
f 470//749 468//749 465//749
f 470//750 472//750 468//750
f 466//751 471//751 467//751
f 469//752 471//752 466//752
f 467//753 471//753 465//753
f 465//754 471//754 470//754
f 469//755 466//755 468//755
f 469//756 468//756 472//756
g L2 west exterior wall
f 473//757 474//757 475//757
f 473//758 476//758 474//758
f 474//759 477//759 475//759
f 473//760 478//760 476//760
f 476//761 479//761 480//761
f 478//762 479//762 476//762
f 478//763 481//763 482//763
f 482//764 483//764 484//764
f 481//765 483//765 482//765
f 473//766 481//766 478//766
f 483//767 475//767 484//767
f 484//768 475//768 479//768
f 479//769 475//769 480//769
f 480//770 475//770 477//770
f 485//771 486//771 481//771
f 481//772 486//772 483//772
f 475//773 483//773 486//773
f 487//774 475//774 486//774
f 481//775 473//775 485//775
f 473//776 488//776 485//776
f 487//777 488//777 473//777
f 487//778 473//778 475//778
f 489//779 474//779 476//779
f 489//780 476//780 490//780
f 489//781 477//781 474//781
f 489//782 491//782 477//782
f 477//783 491//783 480//783
f 480//784 491//784 492//784
f 480//785 490//785 476//785
f 492//786 490//786 480//786
f 478//787 482//787 493//787
f 494//788 478//788 493//788
f 494//789 495//789 478//789
f 478//790 495//790 479//790
f 496//791 493//791 482//791
f 496//792 482//792 484//792
f 484//793 479//793 496//793
f 479//794 495//794 496//794
f 489//795 488//795 487//795
f 490//796 488//796 489//796
f 491//797 489//797 487//797
f 494//798 488//798 490//798
f 495//799 490//799 492//799
f 495//800 494//800 490//800
f 485//801 494//801 493//801
f 486//802 493//802 496//802
f 486//803 485//803 493//803
f 485//804 488//804 494//804
f 487//805 486//805 496//805
f 487//806 496//806 495//806
f 487//807 495//807 492//807
f 487//808 492//808 491//808
g Level 1 bathroom
f 497//809 498//809 499//809
f 499//810 498//810 500//810
f 501//811 502//811 503//811
f 501//812 503//812 504//812
f 502//813 501//813 497//813
f 497//814 501//814 498//814
f 504//815 503//815 499//815
f 504//816 499//816 500//816
f 499//817 502//817 497//817
f 499//818 503//818 502//818
f 501//819 500//819 498//819
f 504//820 500//820 501//820
g Level 1 slab 20x24
f 505//821 506//821 507//821
f 506//822 508//822 507//822
f 509//823 510//823 511//823
f 512//824 509//824 511//824
f 509//825 512//825 506//825
f 506//826 512//826 508//826
f 511//827 510//827 505//827
f 511//828 505//828 507//828
f 505//829 510//829 506//829
f 506//830 510//830 509//830
f 511//831 507//831 508//831
f 511//832 508//832 512//832
g Level 2 floor assembly 20x24
f 513//833 514//833 515//833
f 514//834 516//834 515//834
f 517//835 518//835 519//835
f 520//836 517//836 519//836
f 517//837 520//837 514//837
f 514//838 520//838 516//838
f 519//839 518//839 513//839
f 519//840 513//840 515//840
f 513//841 518//841 514//841
f 514//842 518//842 517//842
f 519//843 515//843 516//843
f 519//844 516//844 520//844
g Low TV wall
f 521//845 522//845 523//845
f 521//846 524//846 522//846
f 525//847 526//847 527//847
f 528//848 526//848 525//848
f 521//849 526//849 524//849
f 526//850 528//850 524//850
f 527//851 523//851 522//851
f 525//852 527//852 522//852
f 523//853 527//853 521//853
f 521//854 527//854 526//854
f 525//855 522//855 524//855
f 525//856 524//856 528//856
g Low eave linen storage
f 529//857 530//857 531//857
f 531//858 530//858 532//858
f 533//859 534//859 535//859
f 533//860 535//860 536//860
f 534//861 533//861 529//861
f 529//862 533//862 530//862
f 536//863 535//863 531//863
f 536//864 531//864 532//864
f 531//865 534//865 529//865
f 531//866 535//866 534//866
f 533//867 532//867 530//867
f 536//868 532//868 533//868
g North roof plane
f 537//869 538//869 539//869
f 537//870 539//870 540//870
f 537//871 540//871 541//871
f 542//872 537//872 541//872
f 543//873 542//873 541//873
f 543//874 541//874 544//874
f 543//875 544//875 539//875
f 538//876 543//876 539//876
f 543//877 538//877 537//877
f 543//878 537//878 542//878
f 539//879 544//879 540//879
f 540//880 544//880 541//880
g Office
f 545//881 546//881 547//881
f 547//882 546//882 548//882
f 549//883 550//883 551//883
f 549//884 551//884 552//884
f 545//885 550//885 546//885
f 550//886 549//886 546//886
f 551//887 547//887 548//887
f 552//888 551//888 548//888
f 547//889 551//889 545//889
f 545//890 551//890 550//890
f 552//891 548//891 546//891
f 552//892 546//892 549//892
g Office desk
f 553//893 554//893 555//893
f 555//894 554//894 556//894
f 557//895 558//895 559//895
f 557//896 559//896 560//896
f 553//897 558//897 554//897
f 558//898 557//898 554//898
f 559//899 555//899 556//899
f 560//900 559//900 556//900
f 555//901 558//901 553//901
f 555//902 559//902 558//902
f 557//903 556//903 554//903
f 560//904 556//904 557//904
g Office east door
f 561//905 562//905 563//905
f 563//906 562//906 564//906
f 565//907 566//907 567//907
f 565//908 567//908 568//908
f 566//909 565//909 561//909
f 561//910 565//910 562//910
f 568//911 567//911 563//911
f 568//912 563//912 564//912
f 561//913 563//913 566//913
f 563//914 567//914 566//914
f 564//915 562//915 565//915
f 568//916 564//916 565//916
g Open living and dining
f 569//917 570//917 571//917
f 570//918 572//918 571//918
f 573//919 574//919 575//919
f 576//920 573//920 575//920
f 570//921 573//921 572//921
f 573//922 576//922 572//922
f 574//923 569//923 571//923
f 575//924 574//924 571//924
f 569//925 573//925 570//925
f 569//926 574//926 573//926
f 576//927 571//927 572//927
f 575//928 571//928 576//928
g Pantry
f 577//929 578//929 579//929
f 579//930 578//930 580//930
f 581//931 582//931 583//931
f 581//932 583//932 584//932
f 582//933 581//933 577//933
f 577//934 581//934 578//934
f 584//935 583//935 579//935
f 584//936 579//936 580//936
f 579//937 583//937 577//937
f 577//938 583//938 582//938
f 584//939 580//939 578//939
f 584//940 578//940 581//940
g Refrigerator
f 585//941 586//941 587//941
f 587//942 586//942 588//942
f 589//943 590//943 591//943
f 589//944 591//944 592//944
f 590//945 589//945 585//945
f 585//946 589//946 586//946
f 592//947 591//947 587//947
f 592//948 587//948 588//948
f 585//949 587//949 590//949
f 587//950 591//950 590//950
f 588//951 586//951 589//951
f 592//952 588//952 589//952
g South landing guard post 11.5
f 593//953 594//953 595//953
f 595//954 594//954 596//954
f 597//955 598//955 599//955
f 597//956 599//956 600//956
f 598//957 597//957 593//957
f 593//958 597//958 594//958
f 600//959 599//959 595//959
f 600//960 595//960 596//960
f 593//961 595//961 598//961
f 595//962 599//962 598//962
f 596//963 594//963 597//963
f 600//964 596//964 597//964
g South landing guard post 19.5
f 601//965 602//965 603//965
f 603//966 602//966 604//966
f 605//967 606//967 607//967
f 605//968 607//968 608//968
f 606//969 605//969 601//969
f 601//970 605//970 602//970
f 608//971 607//971 603//971
f 608//972 603//972 604//972
f 601//973 603//973 606//973
f 603//974 607//974 606//974
f 604//975 602//975 605//975
f 608//976 604//976 605//976
g South landing guard post 27.38
f 609//977 610//977 611//977
f 611//978 610//978 612//978
f 613//979 614//979 615//979
f 613//980 615//980 616//980
f 614//981 613//981 609//981
f 609//982 613//982 610//982
f 616//983 615//983 611//983
f 616//984 611//984 612//984
f 611//985 615//985 609//985
f 609//986 615//986 614//986
f 616//987 612//987 610//987
f 616//988 610//988 613//988
g South landing guard rail
f 617//989 618//989 619//989
f 617//990 620//990 618//990
f 621//991 622//991 623//991
f 624//992 622//992 621//992
f 622//993 624//993 617//993
f 617//994 624//994 620//994
f 621//995 623//995 619//995
f 621//996 619//996 618//996
f 619//997 623//997 617//997
f 617//998 623//998 622//998
f 621//999 618//999 620//999
f 621//1000 620//1000 624//1000
g South living window
f 625//1001 626//1001 627//1001
f 627//1002 626//1002 628//1002
f 629//1003 630//1003 631//1003
f 629//1004 631//1004 632//1004
f 630//1005 629//1005 625//1005
f 625//1006 629//1006 626//1006
f 632//1007 631//1007 627//1007
f 632//1008 627//1008 628//1008
f 627//1009 631//1009 625//1009
f 625//1010 631//1010 630//1010
f 632//1011 628//1011 626//1011
f 632//1012 626//1012 629//1012
g South roof plane
f 633//1013 634//1013 635//1013
f 633//1014 635//1014 636//1014
f 633//1015 636//1015 637//1015
f 638//1016 633//1016 637//1016
f 639//1017 638//1017 637//1017
f 639//1018 637//1018 640//1018
f 639//1019 640//1019 635//1019
f 634//1020 639//1020 635//1020
f 634//1021 633//1021 638//1021
f 639//1022 634//1022 638//1022
f 636//1023 635//1023 637//1023
f 635//1024 640//1024 637//1024
g Sunroom
f 641//1025 642//1025 643//1025
f 643//1026 642//1026 644//1026
f 645//1027 646//1027 647//1027
f 645//1028 647//1028 648//1028
f 641//1029 646//1029 642//1029
f 646//1030 645//1030 642//1030
f 647//1031 643//1031 644//1031
f 648//1032 647//1032 644//1032
f 643//1033 647//1033 641//1033
f 641//1034 647//1034 646//1034
f 648//1035 644//1035 642//1035
f 648//1036 642//1036 645//1036
g Sunroom east slider
f 649//1037 650//1037 651//1037
f 651//1038 650//1038 652//1038
f 653//1039 654//1039 655//1039
f 653//1040 655//1040 656//1040
f 654//1041 653//1041 649//1041
f 649//1042 653//1042 650//1042
f 656//1043 655//1043 651//1043
f 656//1044 651//1044 652//1044
f 651//1045 655//1045 649//1045
f 649//1046 655//1046 654//1046
f 656//1047 652//1047 650//1047
f 656//1048 650//1048 653//1048
g Sunroom east window
f 657//1049 658//1049 659//1049
f 657//1050 660//1050 658//1050
f 661//1051 662//1051 663//1051
f 664//1052 662//1052 661//1052
f 662//1053 664//1053 657//1053
f 657//1054 664//1054 660//1054
f 661//1055 663//1055 659//1055
f 661//1056 659//1056 658//1056
f 657//1057 659//1057 662//1057
f 659//1058 663//1058 662//1058
f 658//1059 660//1059 664//1059
f 661//1060 658//1060 664//1060
g Upper east balcony
f 665//1061 666//1061 667//1061
f 667//1062 666//1062 668//1062
f 669//1063 670//1063 671//1063
f 669//1064 671//1064 672//1064
f 665//1065 670//1065 666//1065
f 670//1066 669//1066 666//1066
f 671//1067 667//1067 668//1067
f 672//1068 671//1068 668//1068
f 665//1069 667//1069 670//1069
f 667//1070 671//1070 670//1070
f 668//1071 666//1071 669//1071
f 672//1072 668//1072 669//1072
g Upper south landing
f 673//1073 674//1073 675//1073
f 675//1074 674//1074 676//1074
f 677//1075 678//1075 679//1075
f 677//1076 679//1076 680//1076
f 678//1077 677//1077 673//1077
f 673//1078 677//1078 674//1078
f 680//1079 679//1079 675//1079
f 680//1080 675//1080 676//1080
f 675//1081 678//1081 673//1081
f 675//1082 679//1082 678//1082
f 677//1083 676//1083 674//1083
f 680//1084 676//1084 677//1084
g West bathroom window
f 681//1085 682//1085 683//1085
f 681//1086 684//1086 682//1086
f 685//1087 686//1087 687//1087
f 688//1088 686//1088 685//1088
f 686//1089 688//1089 681//1089
f 681//1090 688//1090 684//1090
f 685//1091 687//1091 683//1091
f 685//1092 683//1092 682//1092
f 683//1093 687//1093 681//1093
f 681//1094 687//1094 686//1094
f 685//1095 682//1095 684//1095
f 685//1096 684//1096 688//1096
g West bedroom window
f 689//1097 690//1097 691//1097
f 689//1098 692//1098 690//1098
f 693//1099 694//1099 695//1099
f 696//1100 694//1100 693//1100
f 694//1101 692//1101 689//1101
f 694//1102 696//1102 692//1102
f 690//1103 695//1103 691//1103
f 693//1104 695//1104 690//1104
f 689//1105 691//1105 694//1105
f 691//1106 695//1106 694//1106
f 690//1107 692//1107 696//1107
f 693//1108 690//1108 696//1108
