# FreeCAD v1.1 build3 Arch module
# https://www.freecad.org
mtllib adu-option-e-arch.mtl
o Bathroom and laundry
usemtl color_b8e3d1
v 167.64 3148.584 3142.488
v 167.64 3148.584 3130.296
v 167.64 4922.52 3142.488
v 167.64 4922.52 3130.296
v 2087.88 3148.584 3142.488
v 2087.88 3148.584 3130.296
v 2087.88 4922.52 3142.488
v 2087.88 4922.52 3130.296
f 4 3 1 2
f 5 6 8 7
f 1 5 6 2
f 8 4 3 7
f 6 8 4 2
f 3 1 5 7
o Bedroom
usemtl color_b0ccf0
v 167.64 167.64 3142.488
v 167.64 167.64 3130.296
v 167.64 3032.76 3142.488
v 167.64 3032.76 3130.296
v 3093.72 167.64 3142.488
v 3093.72 167.64 3130.296
v 3093.72 3032.76 3142.488
v 3093.72 3032.76 3130.296
f 12 11 9 10
f 13 14 16 15
f 9 13 14 10
f 16 12 11 15
f 14 16 12 10
f 11 9 13 15
o East balcony guard rail
usemtl color_a38c6b
v 8345.424 0.0 3962.4
v 8345.424 0.0 3925.824
v 8345.424 5943.6 3962.4
v 8345.424 5943.6 3925.824
v 8382.0 0.0 3962.4
v 8382.0 0.0 3925.824
v 8382.0 5943.6 3962.4
v 8382.0 5943.6 3925.824
f 20 19 17 18
f 21 22 24 23
f 17 21 22 18
f 24 20 19 23
f 22 24 20 18
f 19 17 21 23
o East gable appliance run
usemtl color_94734f
v 6501.384 2590.8 4038.6
v 6501.384 2590.8 3124.2
v 6501.384 4602.48 4038.6
v 6501.384 4602.48 3124.2
v 7162.8 2590.8 4038.6
v 7162.8 2590.8 3124.2
v 7162.8 4602.48 4038.6
v 7162.8 4602.48 3124.2
f 28 27 25 26
f 29 30 32 31
f 25 29 30 26
f 32 28 27 31
f 30 32 28 26
f 27 25 29 31
o East kitchen window
usemtl color_59b3e0
v 7219.95 2804.16 4617.72
v 7219.95 2804.16 3855.72
v 7219.95 3413.76 4617.72
v 7219.95 3413.76 3855.72
v 7258.05 2804.16 4617.72
v 7258.05 2804.16 3855.72
v 7258.05 3413.76 4617.72
v 7258.05 3413.76 3855.72
f 36 35 33 34
f 37 38 40 39
f 33 37 38 34
f 40 36 35 39
f 38 40 36 34
f 35 33 37 39
o East sliding glass entry
usemtl color_59b3e0
v 7219.95 609.6 5044.44
v 7219.95 609.6 3124.2
v 7219.95 2133.6 5044.44
v 7219.95 2133.6 3124.2
v 7258.05 609.6 5044.44
v 7258.05 609.6 3124.2
v 7258.05 2133.6 5044.44
v 7258.05 2133.6 3124.2
f 44 43 41 42
f 45 46 48 47
f 41 45 46 42
f 48 44 43 47
f 46 48 44 42
f 43 41 45 47
o Exterior stair step 01
usemtl color_a38c6b
v 152.4 -1219.2 222.738462
v 152.4 -1219.2 0.0
v 152.4 0.0 222.738462
v 152.4 0.0 0.0
v 419.451692 -1219.2 222.738462
v 419.451692 -1219.2 0.0
v 419.451692 0.0 222.738462
v 419.451692 0.0 0.0
f 52 51 49 50
f 53 54 56 55
f 49 53 54 50
f 56 52 51 55
f 54 56 52 50
f 51 49 53 55
o Exterior stair step 02
usemtl color_a38c6b
v 410.307692 -1219.2 445.476923
v 410.307692 -1219.2 0.0
v 410.307692 0.0 445.476923
v 410.307692 0.0 0.0
v 677.359385 -1219.2 445.476923
v 677.359385 -1219.2 0.0
v 677.359385 0.0 445.476923
v 677.359385 0.0 0.0
f 60 59 57 58
f 61 62 64 63
f 57 61 62 58
f 64 60 59 63
f 62 64 60 58
f 59 57 61 63
o Exterior stair step 03
usemtl color_a38c6b
v 668.215385 -1219.2 668.215385
v 668.215385 -1219.2 0.0
v 668.215385 0.0 668.215385
v 668.215385 0.0 0.0
v 935.267077 -1219.2 668.215385
v 935.267077 -1219.2 0.0
v 935.267077 0.0 668.215385
v 935.267077 0.0 0.0
f 68 67 65 66
f 69 70 72 71
f 65 69 70 66
f 72 68 67 71
f 70 72 68 66
f 67 65 69 71
o Exterior stair step 04
usemtl color_a38c6b
v 926.123077 -1219.2 890.953846
v 926.123077 -1219.2 0.0
v 926.123077 0.0 890.953846
v 926.123077 0.0 0.0
v 1193.174769 -1219.2 890.953846
v 1193.174769 -1219.2 0.0
v 1193.174769 0.0 890.953846
v 1193.174769 0.0 0.0
f 76 75 73 74
f 77 78 80 79
f 73 77 78 74
f 80 76 75 79
f 78 80 76 74
f 75 73 77 79
o Exterior stair step 05
usemtl color_a38c6b
v 1184.030769 -1219.2 1113.692308
v 1184.030769 -1219.2 0.0
v 1184.030769 0.0 1113.692308
v 1184.030769 0.0 0.0
v 1451.082462 -1219.2 1113.692308
v 1451.082462 -1219.2 0.0
v 1451.082462 0.0 1113.692308
v 1451.082462 0.0 0.0
f 84 83 81 82
f 85 86 88 87
f 81 85 86 82
f 88 84 83 87
f 86 88 84 82
f 83 81 85 87
o Exterior stair step 06
usemtl color_a38c6b
v 1441.938462 -1219.2 1336.430769
v 1441.938462 -1219.2 0.0
v 1441.938462 0.0 1336.430769
v 1441.938462 0.0 0.0
v 1708.990154 -1219.2 1336.430769
v 1708.990154 -1219.2 0.0
v 1708.990154 0.0 1336.430769
v 1708.990154 0.0 0.0
f 92 91 89 90
f 93 94 96 95
f 89 93 94 90
f 96 92 91 95
f 94 96 92 90
f 91 89 93 95
o Exterior stair step 07
usemtl color_a38c6b
v 1699.846154 -1219.2 1559.169231
v 1699.846154 -1219.2 0.0
v 1699.846154 0.0 1559.169231
v 1699.846154 0.0 0.0
v 1966.897846 -1219.2 1559.169231
v 1966.897846 -1219.2 0.0
v 1966.897846 0.0 1559.169231
v 1966.897846 0.0 0.0
f 100 99 97 98
f 101 102 104 103
f 97 101 102 98
f 104 100 99 103
f 102 104 100 98
f 99 97 101 103
o Exterior stair step 08
usemtl color_a38c6b
v 1957.753846 -1219.2 1781.907692
v 1957.753846 -1219.2 0.0
v 1957.753846 0.0 1781.907692
v 1957.753846 0.0 0.0
v 2224.805538 -1219.2 1781.907692
v 2224.805538 -1219.2 0.0
v 2224.805538 0.0 1781.907692
v 2224.805538 0.0 0.0
f 108 107 105 106
f 109 110 112 111
f 105 109 110 106
f 112 108 107 111
f 110 112 108 106
f 107 105 109 111
o Exterior stair step 09
usemtl color_a38c6b
v 2215.661538 -1219.2 2004.646154
v 2215.661538 -1219.2 0.0
v 2215.661538 0.0 2004.646154
v 2215.661538 0.0 0.0
v 2482.713231 -1219.2 2004.646154
v 2482.713231 -1219.2 0.0
v 2482.713231 0.0 2004.646154
v 2482.713231 0.0 0.0
f 116 115 113 114
f 117 118 120 119
f 113 117 118 114
f 120 116 115 119
f 118 120 116 114
f 115 113 117 119
o Exterior stair step 10
usemtl color_a38c6b
v 2473.569231 -1219.2 2227.384615
v 2473.569231 -1219.2 0.0
v 2473.569231 0.0 2227.384615
v 2473.569231 0.0 0.0
v 2740.620923 -1219.2 2227.384615
v 2740.620923 -1219.2 0.0
v 2740.620923 0.0 2227.384615
v 2740.620923 0.0 0.0
f 124 123 121 122
f 125 126 128 127
f 121 125 126 122
f 128 124 123 127
f 126 128 124 122
f 123 121 125 127
o Exterior stair step 11
usemtl color_a38c6b
v 2731.476923 -1219.2 2450.123077
v 2731.476923 -1219.2 0.0
v 2731.476923 0.0 2450.123077
v 2731.476923 0.0 0.0
v 2998.528615 -1219.2 2450.123077
v 2998.528615 -1219.2 0.0
v 2998.528615 0.0 2450.123077
v 2998.528615 0.0 0.0
f 132 131 129 130
f 133 134 136 135
f 129 133 134 130
f 136 132 131 135
f 134 136 132 130
f 131 129 133 135
o Exterior stair step 12
usemtl color_a38c6b
v 2989.384615 -1219.2 2672.861538
v 2989.384615 -1219.2 0.0
v 2989.384615 0.0 2672.861538
v 2989.384615 0.0 0.0
v 3256.436308 -1219.2 2672.861538
v 3256.436308 -1219.2 0.0
v 3256.436308 0.0 2672.861538
v 3256.436308 0.0 0.0
f 140 139 137 138
f 141 142 144 143
f 137 141 142 138
f 144 140 139 143
f 142 144 140 138
f 139 137 141 143
o Exterior stair step 13
usemtl color_a38c6b
v 3247.292308 -1219.2 2895.6
v 3247.292308 -1219.2 0.0
v 3247.292308 0.0 2895.6
v 3247.292308 0.0 0.0
v 3514.344 -1219.2 2895.6
v 3514.344 -1219.2 0.0
v 3514.344 0.0 2895.6
v 3514.344 0.0 0.0
f 148 147 145 146
f 149 150 152 151
f 145 149 150 146
f 152 148 147 151
f 150 152 148 146
f 147 145 149 151
o Garage and storage zone
usemtl color_d1d1c7
v 167.64 167.64 170.688
v 167.64 167.64 158.496
v 167.64 4251.96 170.688
v 167.64 4251.96 158.496
v 4251.96 167.64 170.688
v 4251.96 167.64 158.496
v 4251.96 4251.96 170.688
v 4251.96 4251.96 158.496
f 156 155 153 154
f 157 158 160 159
f 153 157 158 154
f 160 156 155 159
f 158 160 156 154
f 155 153 157 159
o Garage north return
usemtl color_d1d1c7
v 167.64 4282.44 170.688
v 167.64 4282.44 158.496
v 167.64 5928.36 170.688
v 167.64 5928.36 158.496
v 2270.76 4282.44 170.688
v 2270.76 4282.44 158.496
v 2270.76 5928.36 170.688
v 2270.76 5928.36 158.496
f 164 163 161 162
f 165 166 168 167
f 161 165 166 162
f 168 164 163 167
f 166 168 164 162
f 163 161 165 167
o Garage overhead door
usemtl color_7a4d2b
v 57.15 670.56 2438.4
v 57.15 670.56 152.4
v 57.15 3627.12 2438.4
v 57.15 3627.12 152.4
v 95.25 670.56 2438.4
v 95.25 670.56 152.4
v 95.25 3627.12 2438.4
v 95.25 3627.12 152.4
f 172 171 169 170
f 173 174 176 175
f 169 173 174 170
f 176 172 171 175
f 174 176 172 170
f 171 169 173 175
o Ground east patio
usemtl color_adb0a6
v 7315.2 0.0 76.2
v 7315.2 0.0 0.0
v 7315.2 5943.6 76.2
v 7315.2 5943.6 0.0
v 8382.0 0.0 76.2
v 8382.0 0.0 0.0
v 8382.0 5943.6 76.2
v 8382.0 5943.6 0.0
f 180 179 177 178
f 181 182 184 183
f 177 181 182 178
f 184 180 179 183
f 182 184 180 178
f 179 177 181 183
o Ground south covered patio
usemtl color_adb0a6
v 3505.2 -1219.2 76.2
v 3505.2 -1219.2 0.0
v 3505.2 0.0 76.2
v 3505.2 0.0 0.0
v 8382.0 -1219.2 76.2
v 8382.0 -1219.2 0.0
v 8382.0 0.0 76.2
v 8382.0 0.0 0.0
f 188 187 185 186
f 189 190 192 191
f 185 189 190 186
f 192 188 187 191
f 190 192 188 186
f 187 185 189 191
o Kitchen and dining
usemtl color_f5dba6
v 3215.64 2651.76 3142.488
v 3215.64 2651.76 3130.296
v 3215.64 4724.4 3142.488
v 3215.64 4724.4 3130.296
v 7147.56 2651.76 3142.488
v 7147.56 2651.76 3130.296
v 7147.56 4724.4 3142.488
v 7147.56 4724.4 3130.296
f 196 195 193 194
f 197 198 200 199
f 193 197 198 194
f 200 196 195 199
f 198 200 196 194
f 195 193 197 199
o Kitchen ridge island
usemtl color_94734f
v 3657.6 2712.72 4038.6
v 3657.6 2712.72 3124.2
v 3657.6 3383.28 4038.6
v 3657.6 3383.28 3124.2
v 5913.12 2712.72 4038.6
v 5913.12 2712.72 3124.2
v 5913.12 3383.28 4038.6
v 5913.12 3383.28 3124.2
f 204 203 201 202
f 205 206 208 207
f 201 205 206 202
f 208 204 203 207
f 206 208 204 202
f 203 201 205 207
o L1 bathroom south wall
usemtl color_ebe6d6
v 2286.0 4267.2 2895.6
v 2286.0 4267.2 152.4
v 2286.0 4367.784 2895.6
v 2286.0 4367.784 152.4
v 3291.84 4267.2 152.4
v 3291.84 4267.2 2225.04
v 4023.36 4267.2 2225.04
v 4023.36 4267.2 152.4
v 4267.2 4267.2 152.4
v 4267.2 4267.2 2895.6
v 4267.2 4367.784 2895.6
v 3291.84 4367.784 152.4
v 3291.84 4367.784 2225.04
v 4023.36 4367.784 2225.04
v 4023.36 4367.784 152.4
v 4267.2 4367.784 152.4
f 212 211 209 210
f 209 218 217 216 215 214 213 210
f 211 209 218 219
f 220 212 211 219 224 223 222 221
f 210 213 220 212
f 221 214 213 220
f 215 222 221 214
f 216 223 222 215
f 216 217 224 223
f 218 217 224 219
o L1 bathroom west wall
usemtl color_ebe6d6
v 2286.0 4267.2 2895.6
v 2286.0 4267.2 152.4
v 2286.0 5943.6 2895.6
v 2286.0 5943.6 152.4
v 2386.584 4267.2 2895.6
v 2386.584 4267.2 152.4
v 2386.584 5943.6 2895.6
v 2386.584 5943.6 152.4
f 228 227 225 226
f 229 230 232 231
f 225 229 230 226
f 232 228 227 231
f 230 232 228 226
f 227 225 229 231
o L1 east exterior wall
usemtl color_bdd1b3
v 7162.8 6096.0 2895.6
v 7162.8 6096.0 152.4
v 7162.8 5577.84 152.4
v 7162.8 5577.84 2225.04
v 7162.8 4815.84 2225.04
v 7162.8 4815.84 152.4
v 7162.8 3688.08 152.4
v 7162.8 3688.08 2286.0
v 7162.8 2468.88 2286.0
v 7162.8 2468.88 152.4
v 7162.8 0.0 152.4
v 7162.8 0.0 2895.6
v 7162.8 1737.36 1066.8
v 7162.8 975.36 1066.8
v 7162.8 1737.36 2133.6
v 7162.8 975.36 2133.6
v 7315.2 6096.0 152.4
v 7315.2 6096.0 2895.6
v 7315.2 5577.84 152.4
v 7315.2 5577.84 2225.04
v 7315.2 4815.84 2225.04
v 7315.2 4815.84 152.4
v 7315.2 3688.08 152.4
v 7315.2 3688.08 2286.0
v 7315.2 2468.88 2286.0
v 7315.2 2468.88 152.4
v 7315.2 0.0 152.4
v 7315.2 0.0 2895.6
v 7315.2 1737.36 1066.8
v 7315.2 975.36 1066.8
v 7315.2 1737.36 2133.6
v 7315.2 975.36 2133.6
f 235 236 234
f 236 233 234
f 239 237 238
f 236 237 233
f 239 240 237
f 237 240 233
f 245 241 242
f 242 246 245
f 242 243 246
f 245 247 241
f 246 244 248
f 248 244 247
f 243 244 246
f 247 244 241
f 244 233 241
f 241 233 240
f 249 234 233 250
f 251 249 234 235
f 236 252 251 235
f 237 253 252 236
f 254 238 237 253
f 255 254 238 239
f 240 256 255 239
f 241 257 256 240
f 258 242 241 257
f 259 258 242 243
f 244 260 259 243
f 233 244 260 250
f 261 245 246 262
f 247 263 261 245
f 262 246 248 264
f 248 264 263 247
f 252 251 249
f 250 252 249
f 253 255 254
f 253 252 250
f 256 255 253
f 256 253 250
f 257 261 258
f 262 258 261
f 259 258 262
f 263 261 257
f 260 262 264
f 260 264 263
f 260 259 262
f 260 263 257
f 250 260 257
f 250 257 256
o L1 garage to east rooms
usemtl color_ebe6d6
v 4267.2 5943.6 2895.6
v 4267.2 152.4 2895.6
v 4267.2 5943.6 152.4
v 4267.2 3352.8 152.4
v 4267.2 3352.8 2286.0
v 4267.2 2438.4 2286.0
v 4267.2 2438.4 152.4
v 4267.2 152.4 152.4
v 4367.784 5943.6 2895.6
v 4367.784 152.4 2895.6
v 4367.784 5943.6 152.4
v 4367.784 3352.8 152.4
v 4367.784 3352.8 2286.0
v 4367.784 2438.4 2286.0
v 4367.784 2438.4 152.4
v 4367.784 152.4 152.4
f 272 271 270 269 268 267 265 266
f 265 266 274 273
f 275 267 265 273
f 276 275 267 268
f 269 277 276 268
f 270 278 277 269
f 279 271 270 278
f 280 279 271 272
f 266 274 280 272
f 273 274 280 279 278 277 276 275
o L1 north exterior wall
usemtl color_bdd1b3
v 0.0 5943.6 2895.6
v 0.0 5943.6 152.4
v 0.0 6096.0 2895.6
v 0.0 6096.0 152.4
v 7315.2 5943.6 2895.6
v 7315.2 5943.6 152.4
v 7315.2 6096.0 2895.6
v 7315.2 6096.0 152.4
f 284 283 281 282
f 285 286 288 287
f 281 285 286 282
f 288 284 283 287
f 286 288 284 282
f 283 281 285 287
o L1 office south wall
usemtl color_ebe6d6
v 4267.2 4267.2 2895.6
v 4267.2 4267.2 152.4
v 4267.2 4367.784 2895.6
v 4267.2 4367.784 152.4
v 4876.8 4267.2 152.4
v 4876.8 4267.2 2225.04
v 5669.28 4267.2 2225.04
v 5669.28 4267.2 152.4
v 7162.8 4267.2 152.4
v 7162.8 4267.2 2895.6
v 7162.8 4367.784 2895.6
v 4876.8 4367.784 152.4
v 4876.8 4367.784 2225.04
v 5669.28 4367.784 2225.04
v 5669.28 4367.784 152.4
v 7162.8 4367.784 152.4
f 292 291 289 290
f 289 298 297 296 295 294 293 290
f 291 289 298 299
f 300 292 291 299 304 303 302 301
f 290 293 300 292
f 301 294 293 300
f 295 302 301 294
f 296 303 302 295
f 296 297 304 303
f 298 297 304 299
o L1 shower
usemtl color_ebf0f2
v 2407.92 4907.28 198.12
v 2407.92 4907.28 152.4
v 2407.92 5821.68 198.12
v 2407.92 5821.68 152.4
v 3322.32 4907.28 198.12
v 3322.32 4907.28 152.4
v 3322.32 5821.68 198.12
v 3322.32 5821.68 152.4
f 308 307 305 306
f 309 310 312 311
f 305 309 310 306
f 312 308 307 311
f 310 312 308 306
f 307 305 309 311
o L1 south exterior wall
usemtl color_bdd1b3
v 0.0 0.0 2895.6
v 0.0 0.0 152.4
v 0.0 152.4 2895.6
v 0.0 152.4 152.4
v 7315.2 0.0 2895.6
v 7315.2 0.0 152.4
v 7315.2 152.4 2895.6
v 7315.2 152.4 152.4
f 316 315 313 314
f 317 318 320 319
f 313 317 318 314
f 320 316 315 319
f 318 320 316 314
f 315 313 317 319
o L1 vanity
usemtl color_94734f
v 2438.4 4373.88 1005.84
v 2438.4 4373.88 152.4
v 2438.4 4815.84 1005.84
v 2438.4 4815.84 152.4
v 3169.92 4373.88 1005.84
v 3169.92 4373.88 152.4
v 3169.92 4815.84 1005.84
v 3169.92 4815.84 152.4
f 324 323 321 322
f 325 326 328 327
f 321 325 326 322
f 328 324 323 327
f 326 328 324 322
f 323 321 325 327
o L1 west exterior wall with garage door
usemtl color_bdd1b3
v 0.0 6096.0 2895.6
v 0.0 0.0 2895.6
v 0.0 6096.0 152.4
v 0.0 3627.12 152.4
v 0.0 3627.12 2438.4
v 0.0 670.56 2438.4
v 0.0 670.56 152.4
v 0.0 0.0 152.4
v 152.4 6096.0 2895.6
v 152.4 0.0 2895.6
v 152.4 6096.0 152.4
v 152.4 3627.12 152.4
v 152.4 3627.12 2438.4
v 152.4 670.56 2438.4
v 152.4 670.56 152.4
v 152.4 0.0 152.4
f 336 335 334 333 332 331 329 330
f 329 330 338 337
f 339 331 329 337
f 340 339 331 332
f 333 341 340 332
f 334 342 341 333
f 343 335 334 342
f 344 343 335 336
f 330 338 344 336
f 337 338 344 343 342 341 340 339
o L2 bath east wall
usemtl color_ebe6d6
v 2103.12 3048.0 4876.8
v 2103.12 3352.8 4876.8
v 2103.12 3352.8 3124.2
v 2103.12 3048.0 3124.2
v 2203.704 3352.8 4876.8
v 2203.704 3048.0 4876.8
v 2203.704 3352.8 3124.2
v 2203.704 3048.0 3124.2
v 2103.12 4084.32 4876.8
v 2103.12 4937.76 4876.8
v 2103.12 4937.76 3124.2
v 2103.12 4084.32 3124.2
v 2203.704 4937.76 4876.8
v 2203.704 4084.32 4876.8
v 2203.704 4937.76 3124.2
v 2203.704 4084.32 3124.2
f 348 347 346 345
f 346 345 350 349
f 351 347 346 349
f 352 351 347 348
f 345 350 352 348
f 349 350 352 351
f 356 355 354 353
f 354 353 358 357
f 359 355 354 357
f 360 359 355 356
f 353 358 360 356
f 357 358 360 359
o L2 bath storage wall
usemtl color_ebe6d6
v 152.4 4937.76 4876.8
v 152.4 4937.76 3124.2
v 152.4 5038.344 4876.8
v 152.4 5038.344 3124.2
v 2203.704 4937.76 4876.8
v 2203.704 4937.76 3124.2
v 2203.704 5038.344 4876.8
v 2203.704 5038.344 3124.2
f 364 363 361 362
f 365 366 368 367
f 361 365 366 362
f 368 364 363 367
f 366 368 364 362
f 363 361 365 367
o L2 bedroom closet wall
usemtl color_ebe6d6
v 152.4 2438.4 4876.8
v 152.4 2438.4 3124.2
v 152.4 2538.984 4876.8
v 152.4 2538.984 3124.2
v 304.8 2438.4 3124.2
v 304.8 2438.4 4876.8
v 304.8 2538.984 4876.8
v 304.8 2538.984 3124.2
v 1828.8 2438.4 3124.2
v 1981.2 2438.4 3124.2
v 1981.2 2438.4 4876.8
v 1828.8 2438.4 4876.8
v 1828.8 2538.984 3124.2
v 1981.2 2538.984 3124.2
v 1981.2 2538.984 4876.8
v 1828.8 2538.984 4876.8
f 372 371 369 370
f 369 374 373 370
f 375 371 369 374
f 376 372 371 375
f 370 373 376 372
f 374 373 376 375
f 380 379 378 377
f 377 378 382 381
f 379 378 382 383
f 383 384 380 379
f 381 384 380 377
f 382 381 384 383
o L2 bedroom east wall
usemtl color_ebe6d6
v 3108.96 152.4 4876.8
v 3108.96 2164.08 4876.8
v 3108.96 2164.08 3124.2
v 3108.96 152.4 3124.2
v 3209.544 2164.08 4876.8
v 3209.544 152.4 4876.8
v 3209.544 2164.08 3124.2
v 3209.544 152.4 3124.2
v 3108.96 2895.6 4876.8
v 3108.96 3048.0 4876.8
v 3108.96 3048.0 3124.2
v 3108.96 2895.6 3124.2
v 3209.544 3048.0 4876.8
v 3209.544 2895.6 4876.8
v 3209.544 3048.0 3124.2
v 3209.544 2895.6 3124.2
f 388 387 386 385
f 386 385 390 389
f 391 387 386 389
f 392 391 387 388
f 385 390 392 388
f 389 390 392 391
f 396 395 394 393
f 394 393 398 397
f 399 395 394 397
f 400 399 395 396
f 393 398 400 396
f 397 398 400 399
o L2 bedroom north wall
usemtl color_ebe6d6
v 152.4 3048.0 4876.8
v 152.4 3048.0 3124.2
v 152.4 3148.584 4876.8
v 152.4 3148.584 3124.2
v 3209.544 3048.0 4876.8
v 3209.544 3048.0 3124.2
v 3209.544 3148.584 4876.8
v 3209.544 3148.584 3124.2
f 404 403 401 402
f 405 406 408 407
f 401 405 406 402
f 408 404 403 407
f 406 408 404 402
f 403 401 405 407
o L2 east exterior wall
usemtl color_bdd1b3
v 7162.8 0.0 4876.8
v 7162.8 609.6 4876.8
v 7162.8 609.6 3124.2
v 7162.8 0.0 3124.2
v 7315.2 609.6 4876.8
v 7315.2 0.0 4876.8
v 7315.2 609.6 3124.2
v 7315.2 0.0 3124.2
v 7162.8 2133.6 4876.8
v 7162.8 6096.0 4876.8
v 7162.8 2133.6 3124.2
v 7162.8 6096.0 3124.2
v 7162.8 3413.76 3855.72
v 7162.8 2804.16 3855.72
v 7162.8 3413.76 4617.72
v 7162.8 2804.16 4617.72
v 7315.2 6096.0 4876.8
v 7315.2 2133.6 4876.8
v 7315.2 2133.6 3124.2
v 7315.2 6096.0 3124.2
v 7315.2 3413.76 3855.72
v 7315.2 2804.16 3855.72
v 7315.2 3413.76 4617.72
v 7315.2 2804.16 4617.72
f 412 411 410 409
f 410 409 414 413
f 415 411 410 413
f 416 415 411 412
f 409 414 416 412
f 413 414 416 415
f 420 421 418
f 420 419 421
f 419 422 421
f 421 423 418
f 422 417 424
f 424 417 423
f 419 417 422
f 417 418 423
f 418 417 426 425
f 417 426 427 419
f 428 420 418 425
f 427 428 420 419
f 429 421 422 430
f 423 431 429 421
f 424 432 431 423
f 430 422 424 432
f 429 428 425
f 427 428 429
f 430 427 429
f 431 429 425
f 426 430 432
f 426 432 431
f 426 427 430
f 425 426 431
o L2 north blank exterior wall
usemtl color_bdd1b3
v 0.0 5943.6 4876.8
v 0.0 5943.6 3124.2
v 0.0 6096.0 4876.8
v 0.0 6096.0 3124.2
v 7315.2 5943.6 4876.8
v 7315.2 5943.6 3124.2
v 7315.2 6096.0 4876.8
v 7315.2 6096.0 3124.2
f 436 435 433 434
f 437 438 440 439
f 433 437 438 434
f 440 436 435 439
f 438 440 436 434
f 435 433 437 439
o L2 shower
usemtl color_ebf0f2
v 213.36 3169.92 3169.92
v 213.36 3169.92 3124.2
v 213.36 4084.32 3169.92
v 213.36 4084.32 3124.2
v 1127.76 3169.92 3169.92
v 1127.76 3169.92 3124.2
v 1127.76 4084.32 3169.92
v 1127.76 4084.32 3124.2
f 444 443 441 442
f 445 446 448 447
f 441 445 446 442
f 448 444 443 447
f 446 448 444 442
f 443 441 445 447
o L2 south exterior wall
usemtl color_bdd1b3
v 0.0 0.0 4876.8
v 0.0 0.0 3124.2
v 0.0 152.4 4876.8
v 0.0 152.4 3124.2
v 7315.2 0.0 3124.2
v 7315.2 0.0 4876.8
v 4572.0 0.0 4617.72
v 5334.0 0.0 4617.72
v 5334.0 0.0 3855.72
v 4572.0 0.0 3855.72
v 7315.2 152.4 4876.8
v 7315.2 152.4 3124.2
v 4572.0 152.4 4617.72
v 5334.0 152.4 4617.72
v 5334.0 152.4 3855.72
v 4572.0 152.4 3855.72
f 452 451 449 450
f 450 458 449
f 458 455 449
f 458 453 457
f 457 454 456
f 453 454 457
f 450 453 458
f 454 449 456
f 456 449 455
f 451 449 454 459
f 464 452 451
f 461 464 451
f 460 464 463
f 459 463 462
f 459 460 463
f 460 452 464
f 451 459 462
f 451 462 461
f 453 460 452 450
f 454 453 460 459
f 456 462 461 455
f 457 463 462 456
f 464 458 457 463
f 461 455 458 464
o L2 vanity
usemtl color_94734f
v 213.36 4191.0 3977.64
v 213.36 4191.0 3124.2
v 213.36 4724.4 3977.64
v 213.36 4724.4 3124.2
v 944.88 4191.0 3977.64
v 944.88 4191.0 3124.2
v 944.88 4724.4 3977.64
v 944.88 4724.4 3124.2
f 468 467 465 466
f 469 470 472 471
f 465 469 470 466
f 472 468 467 471
f 470 472 468 466
f 467 465 469 471
o L2 west exterior wall
usemtl color_bdd1b3
v 0.0 0.0 4876.8
v 0.0 0.0 3124.2
v 0.0 6096.0 4876.8
v 0.0 6096.0 3124.2
v 0.0 4328.16 3977.64
v 0.0 3718.56 3977.64
v 0.0 4328.16 4739.64
v 0.0 3718.56 4739.64
v 0.0 1767.84 3825.24
v 0.0 1005.84 3825.24
v 0.0 1767.84 4800.6
v 0.0 1005.84 4800.6
v 152.4 0.0 3124.2
v 152.4 0.0 4876.8
v 152.4 6096.0 4876.8
v 152.4 6096.0 3124.2
v 152.4 4328.16 3977.64
v 152.4 3718.56 3977.64
v 152.4 4328.16 4739.64
v 152.4 3718.56 4739.64
v 152.4 1767.84 3825.24
v 152.4 1005.84 3825.24
v 152.4 1767.84 4800.6
v 152.4 1005.84 4800.6
f 476 477 475
f 476 478 477
f 477 479 475
f 476 481 478
f 478 483 480
f 481 483 478
f 481 474 482
f 482 473 484
f 474 473 482
f 476 474 481
f 473 475 484
f 484 475 483
f 483 475 480
f 480 475 479
f 473 486 485 474
f 475 473 486 487
f 485 488 476 474
f 488 476 475 487
f 489 477 478 490
f 479 491 489 477
f 480 492 491 479
f 490 478 480 492
f 493 481 482 494
f 483 495 493 481
f 494 482 484 496
f 484 496 495 483
f 489 488 487
f 490 488 489
f 491 489 487
f 493 488 490
f 495 490 492
f 495 493 490
f 485 493 494
f 486 494 496
f 486 485 494
f 485 488 493
f 487 486 496
f 487 496 495
f 487 495 492
f 487 492 491
o Level 1 bathroom
usemtl color_b8e3d1
v 2386.584 4367.784 170.688
v 2386.584 4367.784 158.496
v 2386.584 5928.36 170.688
v 2386.584 5928.36 158.496
v 4166.616 4367.784 170.688
v 4166.616 4367.784 158.496
v 4166.616 5928.36 170.688
v 4166.616 5928.36 158.496
f 500 499 497 498
f 501 502 504 503
f 497 501 502 498
f 504 500 499 503
f 502 504 500 498
f 499 497 501 503
o Level 1 slab 20x24
usemtl color_b8b8b3
v 0.0 0.0 152.4
v 0.0 0.0 0.0
v 0.0 6096.0 152.4
v 0.0 6096.0 0.0
v 7315.2 0.0 152.4
v 7315.2 0.0 0.0
v 7315.2 6096.0 152.4
v 7315.2 6096.0 0.0
f 508 507 505 506
f 509 510 512 511
f 505 509 510 506
f 512 508 507 511
f 510 512 508 506
f 507 505 509 511
o Level 2 floor assembly 20x24
usemtl color_b8b8b3
v 0.0 0.0 3124.2
v 0.0 0.0 2895.6
v 0.0 6096.0 3124.2
v 0.0 6096.0 2895.6
v 7315.2 0.0 3124.2
v 7315.2 0.0 2895.6
v 7315.2 6096.0 3124.2
v 7315.2 6096.0 2895.6
f 516 515 513 514
f 517 518 520 519
f 513 517 518 514
f 520 516 515 519
f 518 520 516 514
f 515 513 517 519
o Low TV wall
usemtl color_ebe6d6
v 3657.6 2240.28 4343.4
v 3657.6 2240.28 3124.2
v 3657.6 2346.96 4343.4
v 3657.6 2346.96 3124.2
v 5638.8 2240.28 4343.4
v 5638.8 2240.28 3124.2
v 5638.8 2346.96 4343.4
v 5638.8 2346.96 3124.2
f 524 523 521 522
f 525 526 528 527
f 521 525 526 522
f 528 524 523 527
f 526 528 524 522
f 523 521 525 527
o Low eave linen storage
usemtl color_ccc2e6
v 167.64 5038.344 3142.488
v 167.64 5038.344 3130.296
v 167.64 5928.36 3142.488
v 167.64 5928.36 3130.296
v 2087.88 5038.344 3142.488
v 2087.88 5038.344 3130.296
v 2087.88 5928.36 3142.488
v 2087.88 5928.36 3130.296
f 532 531 529 530
f 533 534 536 535
f 529 533 534 530
f 536 532 531 535
f 534 536 532 530
f 531 529 533 535
o North roof plane
usemtl color_475761
v 0.0 3048.0 6096.0
v 7315.2 3048.0 6096.0
v 0.0 6096.0 4876.8
v 7315.2 6096.0 4876.8
v 0.0 6096.0 4770.12
v 7315.2 6096.0 4770.12
v 0.0 3048.0 5989.32
v 7315.2 3048.0 5989.32
f 537 538 540 539
f 539 540 542 541
f 541 542 544 543
f 543 544 538 537
f 537 539 541 543
f 542 544 538 540
o Office
usemtl color_f5dba6
v 4367.784 4367.784 170.688
v 4367.784 4367.784 158.496
v 4367.784 5928.36 170.688
v 4367.784 5928.36 158.496
v 7147.56 4367.784 170.688
v 7147.56 4367.784 158.496
v 7147.56 5928.36 170.688
v 7147.56 5928.36 158.496
f 548 547 545 546
f 549 550 552 551
f 545 549 550 546
f 552 548 547 551
f 550 552 548 546
f 547 545 549 551
o Office desk
usemtl color_94734f
v 4572.0 5242.56 914.4
v 4572.0 5242.56 152.4
v 4572.0 5730.24 914.4
v 4572.0 5730.24 152.4
v 6278.88 5242.56 914.4
v 6278.88 5242.56 152.4
v 6278.88 5730.24 914.4
v 6278.88 5730.24 152.4
f 556 555 553 554
f 557 558 560 559
f 553 557 558 554
f 560 556 555 559
f 558 560 556 554
f 555 553 557 559
o Office east door
usemtl color_7a4d2b
v 7219.95 4815.84 2225.04
v 7219.95 4815.84 152.4
v 7219.95 5577.84 2225.04
v 7219.95 5577.84 152.4
v 7258.05 4815.84 2225.04
v 7258.05 4815.84 152.4
v 7258.05 5577.84 2225.04
v 7258.05 5577.84 152.4
f 564 563 561 562
f 565 566 568 567
f 561 565 566 562
f 568 564 563 567
f 566 568 564 562
f 563 561 565 567
o Open living and dining
usemtl color_f5bdb3
v 3215.64 167.64 3142.488
v 3215.64 167.64 3130.296
v 3215.64 2636.52 3142.488
v 3215.64 2636.52 3130.296
v 7147.56 167.64 3142.488
v 7147.56 167.64 3130.296
v 7147.56 2636.52 3142.488
v 7147.56 2636.52 3130.296
f 572 571 569 570
f 573 574 576 575
f 569 573 574 570
f 576 572 571 575
f 574 576 572 570
f 571 569 573 575
o Pantry
usemtl color_94734f
v 6537.96 2743.2 5105.4
v 6537.96 2743.2 3124.2
v 6537.96 3474.72 5105.4
v 6537.96 3474.72 3124.2
v 7056.12 2743.2 5105.4
v 7056.12 2743.2 3124.2
v 7056.12 3474.72 5105.4
v 7056.12 3474.72 3124.2
f 580 579 577 578
f 581 582 584 583
f 577 581 582 578
f 584 580 579 583
f 582 584 580 578
f 579 577 581 583
o Refrigerator
usemtl color_b8bdbf
v 6370.32 3718.56 5105.4
v 6370.32 3718.56 3124.2
v 6370.32 4511.04 5105.4
v 6370.32 4511.04 3124.2
v 7132.32 3718.56 5105.4
v 7132.32 3718.56 3124.2
v 7132.32 4511.04 5105.4
v 7132.32 4511.04 3124.2
f 588 587 585 586
f 589 590 592 591
f 585 589 590 586
f 592 588 587 591
f 590 592 588 586
f 587 585 589 591
o South landing guard post 11.5
usemtl color_a38c6b
v 3505.2 -1219.2 3962.4
v 3505.2 -1219.2 2895.6
v 3505.2 -1182.624 3962.4
v 3505.2 -1182.624 2895.6
v 3541.776 -1219.2 3962.4
v 3541.776 -1219.2 2895.6
v 3541.776 -1182.624 3962.4
v 3541.776 -1182.624 2895.6
f 596 595 593 594
f 597 598 600 599
f 593 597 598 594
f 600 596 595 599
f 598 600 596 594
f 595 593 597 599
o South landing guard post 19.5
usemtl color_a38c6b
v 5943.6 -1219.2 3962.4
v 5943.6 -1219.2 2895.6
v 5943.6 -1182.624 3962.4
v 5943.6 -1182.624 2895.6
v 5980.176 -1219.2 3962.4
v 5980.176 -1219.2 2895.6
v 5980.176 -1182.624 3962.4
v 5980.176 -1182.624 2895.6
f 604 603 601 602
f 605 606 608 607
f 601 605 606 602
f 608 604 603 607
f 606 608 604 602
f 603 601 605 607
o South landing guard post 27.38
usemtl color_a38c6b
v 8345.424 -1219.2 3962.4
v 8345.424 -1219.2 2895.6
v 8345.424 -1182.624 3962.4
v 8345.424 -1182.624 2895.6
v 8382.0 -1219.2 3962.4
v 8382.0 -1219.2 2895.6
v 8382.0 -1182.624 3962.4
v 8382.0 -1182.624 2895.6
f 612 611 609 610
f 613 614 616 615
f 609 613 614 610
f 616 612 611 615
f 614 616 612 610
f 611 609 613 615
o South landing guard rail
usemtl color_a38c6b
v 3505.2 -1219.2 3962.4
v 3505.2 -1219.2 3925.824
v 3505.2 -1182.624 3962.4
v 3505.2 -1182.624 3925.824
v 8382.0 -1219.2 3962.4
v 8382.0 -1219.2 3925.824
v 8382.0 -1182.624 3962.4
v 8382.0 -1182.624 3925.824
f 620 619 617 618
f 621 622 624 623
f 617 621 622 618
f 624 620 619 623
f 622 624 620 618
f 619 617 621 623
o South living window
usemtl color_59b3e0
v 4572.0 57.15 4617.72
v 4572.0 57.15 3855.72
v 4572.0 95.25 4617.72
v 4572.0 95.25 3855.72
v 5334.0 57.15 4617.72
v 5334.0 57.15 3855.72
v 5334.0 95.25 4617.72
v 5334.0 95.25 3855.72
f 628 627 625 626
f 629 630 632 631
f 625 629 630 626
f 632 628 627 631
f 630 632 628 626
f 627 625 629 631
o South roof plane
usemtl color_475761
v 0.0 0.0 4876.8
v 7315.2 0.0 4876.8
v 0.0 3048.0 6096.0
v 7315.2 3048.0 6096.0
v 0.0 3048.0 5989.32
v 7315.2 3048.0 5989.32
v 0.0 0.0 4770.12
v 7315.2 0.0 4770.12
f 633 634 636 635
f 635 636 638 637
f 637 638 640 639
f 639 640 634 633
f 633 635 637 639
f 638 640 634 636
o Sunroom
usemtl color_f5c7b8
v 4367.784 167.64 170.688
v 4367.784 167.64 158.496
v 4367.784 4251.96 170.688
v 4367.784 4251.96 158.496
v 7147.56 167.64 170.688
v 7147.56 167.64 158.496
v 7147.56 4251.96 170.688
v 7147.56 4251.96 158.496
f 644 643 641 642
f 645 646 648 647
f 641 645 646 642
f 648 644 643 647
f 646 648 644 642
f 643 641 645 647
o Sunroom east slider
usemtl color_59b3e0
v 7219.95 2468.88 2286.0
v 7219.95 2468.88 152.4
v 7219.95 3688.08 2286.0
v 7219.95 3688.08 152.4
v 7258.05 2468.88 2286.0
v 7258.05 2468.88 152.4
v 7258.05 3688.08 2286.0
v 7258.05 3688.08 152.4
f 652 651 649 650
f 653 654 656 655
f 649 653 654 650
f 656 652 651 655
f 654 656 652 650
f 651 649 653 655
o Sunroom east window
usemtl color_59b3e0
v 7219.95 975.36 2133.6
v 7219.95 975.36 1066.8
v 7219.95 1737.36 2133.6
v 7219.95 1737.36 1066.8
v 7258.05 975.36 2133.6
v 7258.05 975.36 1066.8
v 7258.05 1737.36 2133.6
v 7258.05 1737.36 1066.8
f 660 659 657 658
f 661 662 664 663
f 657 661 662 658
f 664 660 659 663
f 662 664 660 658
f 659 657 661 663
o Upper east balcony
usemtl color_a38c6b
v 7315.2 0.0 3002.28
v 7315.2 0.0 2895.6
v 7315.2 5943.6 3002.28
v 7315.2 5943.6 2895.6
v 8382.0 0.0 3002.28
v 8382.0 0.0 2895.6
v 8382.0 5943.6 3002.28
v 8382.0 5943.6 2895.6
f 668 667 665 666
f 669 670 672 671
f 665 669 670 666
f 672 668 667 671
f 670 672 668 666
f 667 665 669 671
o Upper south landing
usemtl color_a38c6b
v 3505.2 -1219.2 3002.28
v 3505.2 -1219.2 2895.6
v 3505.2 0.0 3002.28
v 3505.2 0.0 2895.6
v 8382.0 -1219.2 3002.28
v 8382.0 -1219.2 2895.6
v 8382.0 0.0 3002.28
v 8382.0 0.0 2895.6
f 676 675 673 674
f 677 678 680 679
f 673 677 678 674
f 680 676 675 679
f 678 680 676 674
f 675 673 677 679
o West bathroom window
usemtl color_59b3e0
v 57.15 3718.56 4739.64
v 57.15 3718.56 3977.64
v 57.15 4328.16 4739.64
v 57.15 4328.16 3977.64
v 95.25 3718.56 4739.64
v 95.25 3718.56 3977.64
v 95.25 4328.16 4739.64
v 95.25 4328.16 3977.64
f 684 683 681 682
f 685 686 688 687
f 681 685 686 682
f 688 684 683 687
f 686 688 684 682
f 683 681 685 687
o West bedroom window
usemtl color_59b3e0
v 57.15 1005.84 4800.6
v 57.15 1005.84 3825.24
v 57.15 1767.84 4800.6
v 57.15 1767.84 3825.24
v 95.25 1005.84 4800.6
v 95.25 1005.84 3825.24
v 95.25 1767.84 4800.6
v 95.25 1767.84 3825.24
f 692 691 689 690
f 693 694 696 695
f 689 693 694 690
f 696 692 691 695
f 694 696 692 690
f 691 689 693 695
