<svg xmlns="http://www.w3.org/2000/svg" width="1200" height="790" viewBox="0 0 1200 790" font-family="Helvetica, Arial, sans-serif">
  <!-- scale: 16 px = 1 ft. Building 24 ft (E-W) x 20 ft (N-S). Ridge E-W. North = up. Alley = west. -->
  <rect width="1200" height="790" fill="#ffffff"/>
  <text x="70" y="38" font-size="22" font-weight="bold" fill="#222">ADU floor plans — balcony-entry scheme (from your sketch)</text>
  <text x="70" y="60" font-size="13" fill="#555">24 × 20 ft · front gable to alley (ridge E–W) · 12:12 · knee walls N &amp; S upstairs · exterior stair on S wall → east balcony entry · no interior stair</text>

  <defs>
    <pattern id="noCount" width="8" height="8" patternTransform="rotate(45)" patternUnits="userSpaceOnUse">
      <rect width="8" height="8" fill="#f3d9d9"/>
      <line x1="0" y1="0" x2="0" y2="8" stroke="#c98f8f" stroke-width="2"/>
    </pattern>
    <marker id="arr2" markerWidth="8" markerHeight="8" refX="6" refY="3" orient="auto"><path d="M0,0 L6,3 L0,6 z" fill="#333"/></marker>
  </defs>

  <!-- ================= DOWNSTAIRS (left) ================= -->
  <text x="70" y="120" font-size="16" font-weight="bold" fill="#222">DOWNSTAIRS</text>
  <text x="185" y="120" font-size="11" fill="#666">garage · office · sunroom · bath — full-height ceilings everywhere</text>

  <!-- patio -->
  <rect x="454" y="182" width="112" height="256" fill="#eceae4" stroke="#b6b0a2" stroke-dasharray="6,4"/>
  <circle cx="506" cy="296" r="16" fill="none" stroke="#b09a72"/>
  <circle cx="484" cy="278" r="5" fill="none" stroke="#b09a72"/><circle cx="528" cy="278" r="5" fill="none" stroke="#b09a72"/>
  <circle cx="484" cy="314" r="5" fill="none" stroke="#b09a72"/><circle cx="528" cy="314" r="5" fill="none" stroke="#b09a72"/>
  <text x="510" y="416" font-size="12" fill="#8a8272" text-anchor="middle">PATIO</text>

  <!-- exterior walls -->
  <rect x="70" y="150" width="384" height="320" fill="#fdfcf9" stroke="#222" stroke-width="7"/>

  <!-- garage door opening on west wall -->
  <rect x="62" y="238" width="10" height="144" fill="#fff"/>
  <line x1="67" y1="238" x2="67" y2="382" stroke="#9e3f36" stroke-width="4" stroke-dasharray="10,4"/>
  <text x="56" y="310" font-size="11" fill="#9e3f36" text-anchor="middle" transform="rotate(-90 56 310)">carriage garage door 9 ft</text>

  <!-- garage / sunroom wall -->
  <line x1="246" y1="150" x2="246" y2="342" stroke="#222" stroke-width="4"/>
  <line x1="246" y1="390" x2="246" y2="470" stroke="#222" stroke-width="4"/>
  <path d="M 246 390 A 48 48 0 0 1 294 342" fill="none" stroke="#999" stroke-width="1.5"/>
  <text x="158" y="316" font-size="15" font-weight="bold" fill="#333">GARAGE</text>
  <text x="158" y="333" font-size="11" fill="#666">11 × 20 · ~220 sf</text>

  <!-- bath -->
  <line x1="246" y1="246" x2="326" y2="246" stroke="#222" stroke-width="4"/>
  <line x1="326" y1="150" x2="326" y2="246" stroke="#222" stroke-width="4"/>
  <rect x="250" y="154" width="46" height="46" fill="#dce6ef" stroke="#7d97ad"/>
  <line x1="250" y1="154" x2="296" y2="200" stroke="#aabdcd"/>
  <rect x="300" y="156" width="22" height="34" fill="#e8eef4" stroke="#7d97ad"/>
  <ellipse cx="310" cy="218" rx="10" ry="13" fill="#fff" stroke="#7d97ad"/>
  <rect x="302" y="230" width="16" height="9" fill="#fff" stroke="#7d97ad"/>
  <text x="288" y="242" font-size="11" font-weight="bold" fill="#333">BATH</text>
  <!-- bath door -->
  <line x1="250" y1="246" x2="280" y2="246" stroke="#fff" stroke-width="6"/>
  <path d="M 250 216 A 30 30 0 0 1 280 246" fill="none" stroke="#999" stroke-width="1.5"/>
  <line x1="280" y1="246" x2="250" y2="216" stroke="#999" stroke-width="1"/>

  <!-- office -->
  <line x1="326" y1="278" x2="358" y2="278" stroke="#222" stroke-width="4"/>
  <line x1="422" y1="278" x2="454" y2="278" stroke="#222" stroke-width="4"/>
  <line x1="358" y1="278" x2="422" y2="278" stroke="#b6b0a2" stroke-width="2" stroke-dasharray="5,4"/>
  <rect x="336" y="158" width="98" height="24" fill="#efe3d0" stroke="#b09a72"/>
  <text x="385" y="174" font-size="10" fill="#7c6a48" text-anchor="middle">desk</text>
  <text x="362" y="232" font-size="14" font-weight="bold" fill="#333">OFFICE</text>
  <text x="362" y="248" font-size="11" fill="#666">8 × 8 · ~64 sf</text>
  <!-- office door to patio -->
  <rect x="449" y="174" width="10" height="48" fill="#fff"/>
  <path d="M 454 222 A 48 48 0 0 0 502 174" fill="none" stroke="#999" stroke-width="1.5"/>

  <!-- sunroom -->
  <text x="330" y="368" font-size="14" font-weight="bold" fill="#333">SUNROOM</text>
  <text x="330" y="384" font-size="11" fill="#666">open · ~165 sf</text>
  <rect x="286" y="422" width="96" height="40" rx="8" fill="#dce6ef" stroke="#7d97ad" stroke-width="1.5"/>
  <rect x="286" y="448" width="96" height="14" rx="6" fill="#c3d3e2" stroke="#7d97ad"/>
  <text x="334" y="444" font-size="10" fill="#4a6478" text-anchor="middle">sofa</text>
  <!-- sliding patio doors east wall -->
  <rect x="449" y="310" width="10" height="96" fill="#fff"/>
  <line x1="451" y1="310" x2="451" y2="362" stroke="#333" stroke-width="3"/>
  <line x1="457" y1="354" x2="457" y2="406" stroke="#333" stroke-width="3"/>
  <text x="470" y="352" font-size="10" fill="#666" transform="rotate(90 470 352)">big sliders</text>

  <!-- windows -->
  <rect x="342" y="144" width="48" height="12" fill="#fff" stroke="#222" stroke-width="2"/>
  <rect x="286" y="464" width="48" height="12" fill="#fff" stroke="#222" stroke-width="2"/>
  <rect x="366" y="464" width="48" height="12" fill="#fff" stroke="#222" stroke-width="2"/>

  <!-- stair above (dashed) -->
  <rect x="230" y="478" width="224" height="52" fill="none" stroke="#8a8272" stroke-width="1.5" stroke-dasharray="7,5"/>
  <g stroke="#c4bda9" stroke-width="1"><line x1="246" y1="478" x2="246" y2="530"/><line x1="262" y1="478" x2="262" y2="530"/><line x1="278" y1="478" x2="278" y2="530"/><line x1="294" y1="478" x2="294" y2="530"/><line x1="310" y1="478" x2="310" y2="530"/><line x1="326" y1="478" x2="326" y2="530"/><line x1="342" y1="478" x2="342" y2="530"/><line x1="358" y1="478" x2="358" y2="530"/><line x1="374" y1="478" x2="374" y2="530"/><line x1="390" y1="478" x2="390" y2="530"/><line x1="406" y1="478" x2="406" y2="530"/><line x1="422" y1="478" x2="422" y2="530"/><line x1="438" y1="478" x2="438" y2="530"/></g>
  <text x="342" y="548" font-size="10" fill="#8a8272" text-anchor="middle">exterior stair above (dashed) — S wall, needs ~4 ft clear to shed</text>

  <!-- alley -->
  <text x="34" y="310" font-size="13" fill="#555" text-anchor="middle" transform="rotate(-90 34 310)">A L L E Y  (west)</text>

  <!-- ================= UPSTAIRS (right) ================= -->
  <text x="640" y="120" font-size="16" font-weight="bold" fill="#222">UPSTAIRS — the ADU</text>
  <text x="828" y="120" font-size="11" fill="#666">vaulted, ridge E–W · entry from balcony · 480 sf gross ≤ 500 ✓</text>

  <!-- balcony -->
  <rect x="1024" y="150" width="96" height="320" fill="#efe7d8" stroke="#b6b0a2"/>
  <g stroke="#ddd2bc" stroke-width="1">
    <line x1="1024" y1="166" x2="1120" y2="166"/><line x1="1024" y1="182" x2="1120" y2="182"/><line x1="1024" y1="198" x2="1120" y2="198"/><line x1="1024" y1="214" x2="1120" y2="214"/><line x1="1024" y1="230" x2="1120" y2="230"/><line x1="1024" y1="246" x2="1120" y2="246"/><line x1="1024" y1="262" x2="1120" y2="262"/><line x1="1024" y1="278" x2="1120" y2="278"/><line x1="1024" y1="294" x2="1120" y2="294"/><line x1="1024" y1="310" x2="1120" y2="310"/><line x1="1024" y1="326" x2="1120" y2="326"/><line x1="1024" y1="342" x2="1120" y2="342"/><line x1="1024" y1="358" x2="1120" y2="358"/><line x1="1024" y1="374" x2="1120" y2="374"/><line x1="1024" y1="390" x2="1120" y2="390"/><line x1="1024" y1="406" x2="1120" y2="406"/><line x1="1024" y1="422" x2="1120" y2="422"/><line x1="1024" y1="438" x2="1120" y2="438"/><line x1="1024" y1="454" x2="1120" y2="454"/>
  </g>
  <line x1="1118" y1="150" x2="1118" y2="470" stroke="#7a6f55" stroke-width="4"/>
  <text x="1104" y="310" font-size="12" font-weight="bold" fill="#7a6f55" text-anchor="middle" transform="rotate(-90 1104 310)">BALCONY 6 × 20 · covered · open-air</text>
  <line x1="1040" y1="466" x2="1040" y2="486" stroke="#333" stroke-width="1.5" marker-end="url(#arr2)"/>
  <text x="1052" y="484" font-size="10" fill="#333">dn</text>

  <!-- low-headroom bands N & S -->
  <rect x="640" y="150" width="384" height="40" fill="#efe9dc"/>
  <rect x="640" y="430" width="384" height="40" fill="#efe9dc"/>
  <rect x="640" y="150" width="384" height="8" fill="url(#noCount)"/>
  <rect x="640" y="462" width="384" height="8" fill="url(#noCount)"/>
  <line x1="640" y1="190" x2="1024" y2="190" stroke="#c9b98a" stroke-width="1" stroke-dasharray="3,4"/>
  <line x1="640" y1="430" x2="1024" y2="430" stroke="#c9b98a" stroke-width="1" stroke-dasharray="3,4"/>
  <line x1="640" y1="310" x2="1120" y2="310" stroke="#b9b2a4" stroke-width="1.5" stroke-dasharray="10,6"/>
  <text x="856" y="305" font-size="10" fill="#8a8272">ridge · 14.5-ft clg</text>

  <!-- exterior walls -->
  <rect x="640" y="150" width="384" height="320" fill="none" stroke="#222" stroke-width="7"/>

  <!-- west band: closet strip / bath+WD / bedroom -->
  <rect x="646" y="156" width="132" height="30" fill="#e3dccc" stroke="#a89f88" stroke-dasharray="4,3"/>
  <text x="712" y="175" font-size="10" fill="#7c7460" text-anchor="middle">closet / storage (low)</text>
  <line x1="640" y1="190" x2="784" y2="190" stroke="#222" stroke-width="3"/>
  <line x1="640" y1="278" x2="784" y2="278" stroke="#222" stroke-width="4"/>
  <line x1="784" y1="190" x2="784" y2="238" stroke="#222" stroke-width="4"/>
  <line x1="784" y1="270" x2="784" y2="294" stroke="#222" stroke-width="4"/>
  <!-- bath fixtures -->
  <rect x="645" y="214" width="48" height="48" fill="#dce6ef" stroke="#7d97ad"/>
  <line x1="645" y1="214" x2="693" y2="262" stroke="#aabdcd"/>
  <text x="669" y="241" font-size="9" fill="#4a6478" text-anchor="middle">shower</text>
  <ellipse cx="716" cy="206" rx="12" ry="9" fill="#fff" stroke="#7d97ad"/>
  <rect x="710" y="194" width="12" height="8" fill="#fff" stroke="#7d97ad"/>
  <rect x="700" y="258" width="44" height="16" fill="#e8eef4" stroke="#7d97ad"/>
  <rect x="752" y="192" width="32" height="40" fill="#e8eef4" stroke="#7d97ad" stroke-width="1.5"/>
  <text x="768" y="215" font-size="9" fill="#4a6478" text-anchor="middle">W/D</text>
  <text x="722" y="240" font-size="11" font-weight="bold" fill="#333">BATH</text>
  <!-- bath door on east wall -->
  <path d="M 784 270 A 32 32 0 0 0 752 238" fill="none" stroke="#999" stroke-width="1.5"/>

  <!-- bedroom -->
  <line x1="784" y1="278" x2="784" y2="294" stroke="#222" stroke-width="4"/>
  <line x1="784" y1="330" x2="784" y2="470" stroke="#222" stroke-width="4"/>
  <path d="M 784 294 A 36 36 0 0 1 820 330" fill="none" stroke="#999" stroke-width="1.5"/>
  <rect x="644" y="310" width="80" height="107" rx="5" fill="#dce6ef" stroke="#7d97ad" stroke-width="1.5"/>
  <rect x="644" y="310" width="20" height="107" rx="4" fill="#c3d3e2" stroke="#7d97ad"/>
  <text x="690" y="368" font-size="9" fill="#4a6478" text-anchor="middle" transform="rotate(-90 690 368)">queen bed</text>
  <rect x="644" y="286" width="18" height="18" fill="#e8eef4" stroke="#7d97ad"/>
  <text x="728" y="298" font-size="12" font-weight="bold" fill="#333">BED · 9 × 12</text>
  <rect x="646" y="434" width="132" height="30" fill="#e3dccc" stroke="#a89f88" stroke-dasharray="4,3"/>
  <text x="712" y="453" font-size="10" fill="#7c7460" text-anchor="middle">closet (low)</text>
  <!-- egress window west gable -->
  <rect x="634" y="326" width="12" height="64" fill="#fff" stroke="#222" stroke-width="2"/>
  <text x="624" y="358" font-size="10" fill="#666" text-anchor="middle" transform="rotate(-90 624 358)">egress — W gable</text>

  <!-- kitchen on TV wall -->
  <rect x="646" y="192" width="0" height="0" fill="none"/>
  <rect x="800" y="152" width="192" height="30" fill="#e3dccc" stroke="#a89f88" stroke-dasharray="4,3"/>
  <text x="896" y="171" font-size="10" fill="#7c7460" text-anchor="middle">base cabinets / pantry (low — no uppers)</text>
  <rect x="788" y="220" width="38" height="42" fill="#efe3d0" stroke="#b09a72" stroke-width="1.5"/>
  <text x="807" y="244" font-size="9" fill="#7c6a48" text-anchor="middle">fridge</text>
  <rect x="826" y="228" width="150" height="34" fill="#efe3d0" stroke="#b09a72" stroke-width="1.5"/>
  <circle cx="870" cy="245" r="11" fill="#fff" stroke="#b09a72"/>
  <text x="870" y="248" font-size="8" fill="#7c6a48" text-anchor="middle">sink</text>
  <rect x="920" y="232" width="34" height="26" fill="#fff" stroke="#b09a72"/>
  <circle cx="929" cy="240" r="4" fill="none" stroke="#b09a72"/><circle cx="945" cy="240" r="4" fill="none" stroke="#b09a72"/>
  <circle cx="929" cy="251" r="4" fill="none" stroke="#b09a72"/><circle cx="945" cy="251" r="4" fill="none" stroke="#b09a72"/>
  <text x="836" y="214" font-size="13" font-weight="bold" fill="#333">KITCHEN</text>
  <text x="904" y="214" font-size="10" fill="#666">on the TV wall · uppers OK</text>
  <!-- TV wall -->
  <line x1="816" y1="262" x2="976" y2="262" stroke="#222" stroke-width="5"/>
  <rect x="856" y="266" width="80" height="7" fill="#3a3a3a"/>
  <text x="944" y="276" font-size="9" fill="#555">TV</text>

  <!-- living -->
  <text x="836" y="330" font-size="14" font-weight="bold" fill="#333">LIVING</text>
  <rect x="840" y="342" width="104" height="45" rx="8" fill="#dce6ef" stroke="#7d97ad" stroke-width="1.5"/>
  <rect x="840" y="342" width="104" height="14" rx="6" fill="#c3d3e2" stroke="#7d97ad"/>
  <text x="892" y="370" font-size="10" fill="#4a6478" text-anchor="middle">sofa</text>
  <circle cx="990" cy="322" r="16" fill="#efe3d0" stroke="#b09a72"/>
  <text x="990" y="326" font-size="8" fill="#7c6a48" text-anchor="middle">table</text>

  <!-- balcony French doors (double leaves swinging out) -->
  <rect x="1019" y="230" width="10" height="64" fill="#efe7d8"/>
  <line x1="1024" y1="230" x2="1046" y2="252" stroke="#999" stroke-width="1.5"/>
  <line x1="1024" y1="294" x2="1046" y2="272" stroke="#999" stroke-width="1.5"/>
  <rect x="1019" y="326" width="10" height="64" fill="#efe7d8"/>
  <line x1="1024" y1="326" x2="1046" y2="348" stroke="#999" stroke-width="1.5"/>
  <line x1="1024" y1="390" x2="1046" y2="368" stroke="#999" stroke-width="1.5"/>
  <text x="1035" y="314" font-size="9" fill="#666">French doors ×2</text>

  <!-- exterior stair -->
  <rect x="864" y="478" width="160" height="52" fill="#e9e9e9" stroke="#555" stroke-width="2"/>
  <g stroke="#888" stroke-width="1.5"><line x1="880" y1="478" x2="880" y2="530"/><line x1="896" y1="478" x2="896" y2="530"/><line x1="912" y1="478" x2="912" y2="530"/><line x1="928" y1="478" x2="928" y2="530"/><line x1="944" y1="478" x2="944" y2="530"/><line x1="960" y1="478" x2="960" y2="530"/><line x1="976" y1="478" x2="976" y2="530"/><line x1="992" y1="478" x2="992" y2="530"/><line x1="1008" y1="478" x2="1008" y2="530"/></g>
  <line x1="880" y1="504" x2="1010" y2="504" stroke="#333" stroke-width="1.5" marker-end="url(#arr2)"/>
  <text x="850" y="508" font-size="10" fill="#333" text-anchor="end">UP</text>
  <text x="944" y="548" font-size="10" fill="#8a8272" text-anchor="middle">exterior stair — grade (W end) up to balcony (SE)</text>

  <!-- compass -->
  <g transform="translate(600,86)">
    <circle r="13" fill="none" stroke="#555"/>
    <path d="M 0 -10 L 4 6 L 0 3 L -4 6 Z" fill="#555"/>
    <text y="-18" font-size="10" fill="#555" text-anchor="middle">N</text>
  </g>

  <!-- ================= NOTES BAND ================= -->
  <line x1="70" y1="580" x2="1120" y2="580" stroke="#ddd"/>
  <g transform="translate(70,606)" font-size="12" fill="#333">
    <text font-size="13" font-weight="bold">Area math</text>
    <text y="22">Upstairs enclosed (the ADU): 480 sf gross · ~447 sf net</text>
    <text y="42">Balcony: 120 sf covered, open-air — NOT floor area</text>
    <text y="62">No interior stair → all 480 sf is living space</text>
    <text y="82">Downstairs: garage ~220 · sunroom ~165 · office ~64 · bath ~33</text>
    <text y="102">Ceilings: knee 4.5 ft at N/S walls → 14.5 ft at ridge</text>
  </g>
  <g transform="translate(430,606)" font-size="12" fill="#333">
    <text font-size="13" font-weight="bold">The 500 sf cap</text>
    <text y="22">Upstairs unit alone: 480 sf ≤ 500 ✓</text>
    <text y="42" fill="#9e3f36">⚠ If zoning counts the conditioned downstairs rooms</text>
    <text y="62" fill="#9e3f36">(office + sunroom + full bath) toward the ADU, the total is</text>
    <text y="82" fill="#9e3f36">~940 sf. Intent: downstairs = accessory space for the MAIN</text>
    <text y="102" fill="#9e3f36">house (no kitchen, no interior connection). Confirm w/ Mercer.</text>
  </g>
  <g transform="translate(810,606)" font-size="12" fill="#333">
    <text font-size="13" font-weight="bold">Design notes</text>
    <text y="22">Kitchen on the TV wall — N wall is a knee wall in this</text>
    <text y="42">orientation (you guessed right). Base-only run on N wall.</text>
    <text y="62">Shower, W/D sit in the 7.5–11 ft zone; W/D backs bath plumbing.</text>
    <text y="82">S stair needs ~4 ft clear — check gap to shed / shift bldg N.</text>
    <text y="102">Bedroom egress = west-gable window. Balcony is sole entry.</text>
  </g>
</svg>
