<svg xmlns="http://www.w3.org/2000/svg" width="1654" height="910" viewBox="0 0 1654 910" preserveAspectRatio="xMinYMin meet"><rect width="1654" height="910" fill="#ffffff"/><text x="46" y="46" font-size="21" font-weight="bold" fill="#23262b" font-family="Helvetica,Arial,sans-serif">Option A &#8212; interior stair &#183; living toward the yard</text><text x="46" y="70" font-size="12.5" fill="#5c636e" font-family="Helvetica,Arial,sans-serif">Stair + bath + laundry on the blank north wall &#183; bedroom west (alley) &#183; kitchen/living/dining open to the south + east light</text><line x1="46" y1="84" x2="1608" y2="84" stroke="#d5d8dd" stroke-width="1"/><rect x="117.0" y="169.0" width="598.0" height="494.0" rx="0" fill="#f2f2ef" stroke="none" stroke-width="1.0" opacity="1.0"/><rect x="117.0" y="169.0" width="252.2" height="91.0" rx="0" fill="#e9e7f5" stroke="none" stroke-width="1.0" opacity="1.0"/><rect x="377.8" y="169.0" width="337.2" height="82.4" rx="0" fill="#eeeeee" stroke="none" stroke-width="1.0" opacity="1.0"/><rect x="104.0" y="156.0" width="624.0" height="520.0" rx="0" fill="#37393d" stroke="none" stroke-width="1.0" opacity="1.0"/><rect x="117.0" y="169.0" width="598.0" height="494.0" rx="0" fill="#fdfdfb" stroke="none" stroke-width="1.0" opacity="1.0"/><rect x="369.2" y="251.4" width="345.8" height="8.6" rx="0" fill="#37393d" stroke="none" stroke-width="1.0" opacity="1.0"/><rect x="377.8" y="169.0" width="252.2" height="82.4" rx="0" fill="#f6f6f6" stroke="#c9cdd3" stroke-width="1" opacity="1.0"/><rect x="630.0" y="169.0" width="85.0" height="82.4" rx="0" fill="#f9f8f4" stroke="none" stroke-width="1.0" opacity="1.0"/><rect x="122.2" y="171.6" width="143.0" height="52.0" rx="0" fill="#faf6ee" stroke="#8d939c" stroke-width="1" opacity="1.0"/><text x="193.7" y="202.8" font-size="8.5" font-weight="normal" fill="#8d939c" text-anchor="middle" font-family="Helvetica,Arial,sans-serif">workbench</text><circle cx="301.6" cy="200.2" r="26.0" fill="#fff" stroke="#8d939c" stroke-width="1.1"/><text x="301.6" y="205.4" font-size="8.5" font-weight="normal" fill="#8d939c" text-anchor="middle" font-family="Helvetica,Arial,sans-serif">WH</text><text x="231.4" y="245.7" font-size="8" font-weight="normal" fill="#8d939c" text-anchor="middle" font-family="Helvetica,Arial,sans-serif">plumbing drops from bath above</text><line x1="397.2" y1="251.4" x2="397.2" y2="169.0" stroke="#b3b8bf" stroke-width="1" stroke-linecap="round"/><line x1="416.6" y1="251.4" x2="416.6" y2="169.0" stroke="#b3b8bf" stroke-width="1" stroke-linecap="round"/><line x1="436.0" y1="251.4" x2="436.0" y2="169.0" stroke="#b3b8bf" stroke-width="1" stroke-linecap="round"/><line x1="455.4" y1="251.4" x2="455.4" y2="169.0" stroke="#b3b8bf" stroke-width="1" stroke-linecap="round"/><line x1="474.8" y1="251.4" x2="474.8" y2="169.0" stroke="#b3b8bf" stroke-width="1" stroke-linecap="round"/><line x1="494.2" y1="251.4" x2="494.2" y2="169.0" stroke="#b3b8bf" stroke-width="1" stroke-linecap="round"/><line x1="513.6" y1="251.4" x2="513.6" y2="169.0" stroke="#b3b8bf" stroke-width="1" stroke-linecap="round"/><line x1="533.0" y1="251.4" x2="533.0" y2="169.0" stroke="#b3b8bf" stroke-width="1" stroke-linecap="round"/><line x1="552.4" y1="251.4" x2="552.4" y2="169.0" stroke="#b3b8bf" stroke-width="1" stroke-linecap="round"/><line x1="571.8" y1="251.4" x2="571.8" y2="169.0" stroke="#b3b8bf" stroke-width="1" stroke-linecap="round"/><line x1="591.2" y1="251.4" x2="591.2" y2="169.0" stroke="#b3b8bf" stroke-width="1" stroke-linecap="round"/><line x1="610.6" y1="251.4" x2="610.6" y2="169.0" stroke="#b3b8bf" stroke-width="1" stroke-linecap="round"/><line x1="617.0" y1="210.2" x2="396.0" y2="210.2" stroke="#6a7180" stroke-width="1.3" stroke-linecap="round"/><line x1="396.0" y1="210.2" x2="405.1" y2="202.4" stroke="#6a7180" stroke-width="1.3" stroke-linecap="round"/><line x1="396.0" y1="210.2" x2="405.1" y2="218.0" stroke="#6a7180" stroke-width="1.3" stroke-linecap="round"/><text x="506.5" y="195.9" font-size="9" font-weight="normal" fill="#6a7180" text-anchor="middle" font-family="Helvetica,Arial,sans-serif">UP</text><text x="672.1" y="208.0" font-size="9" font-weight="normal" fill="#6a7180" text-anchor="middle" font-family="Helvetica,Arial,sans-serif">entry</text><rect x="715.0" y="171.6" width="13.0" height="72.8" rx="0" fill="#fdfdfb" stroke="none" stroke-width="1.0" opacity="1.0"/><line x1="721.5" y1="244.4" x2="648.7" y2="244.4" stroke="#4a4e55" stroke-width="1.6" stroke-linecap="round"/><path d="M 721.5 171.6 A 72.8 72.8 0 0 0 648.7 244.4" fill="none" stroke="#b6bac1" stroke-width="1"/><rect x="639.6" y="251.4" width="65.0" height="8.6" rx="0" fill="#fdfdfb" stroke="none" stroke-width="1.0" opacity="1.0"/><line x1="639.6" y1="255.7" x2="639.6" y2="320.7" stroke="#4a4e55" stroke-width="1.6" stroke-linecap="round"/><path d="M 704.6 255.7 A 65.0 65.0 0 0 0 639.6 320.7" fill="none" stroke="#b6bac1" stroke-width="1"/><text x="673.4" y="280.8" font-size="7.5" font-weight="normal" fill="#8d939c" text-anchor="middle" font-family="Helvetica,Arial,sans-serif">to garage</text><rect x="150.8" y="410.8" width="403.0" height="161.2" rx="14" fill="#fff" stroke="#b3b8bf" stroke-width="1.3" opacity="1.0"/><text x="352.3" y="496.6" font-size="9" font-weight="normal" fill="#9aa0a9" text-anchor="middle" font-family="Helvetica,Arial,sans-serif">car (typ. 16' x 6')</text><rect x="104.0" y="325.0" width="13.0" height="286.0" rx="0" fill="#fff" stroke="#37393d" stroke-width="1.2" opacity="1.0"/><line x1="110.5" y1="611.0" x2="110.5" y2="325.0" stroke="#37393d" stroke-width="1.5" stroke-linecap="round"/><text x="131.3" y="468.0" font-size="8.5" font-weight="normal" fill="#5c636e" text-anchor="middle" font-family="Helvetica,Arial,sans-serif" transform="rotate(-90 131.3 468.0)">10'&#8211;12' overhead door &#8594; alley</text><rect x="572.0" y="442.0" width="143.0" height="221.0" rx="0" fill="none" stroke="#c9a25f" stroke-width="1.2" stroke-dasharray="6 4" opacity="1.0"/><rect x="590.2" y="533.0" width="52.0" height="117.0" rx="3" fill="#f1f2f4" stroke="#8d939c" stroke-width="1.1" opacity="1.0"/><text x="616.2" y="596.2" font-size="8.5" font-weight="normal" fill="#7d838d" text-anchor="middle" font-family="Helvetica,Arial,sans-serif">desk</text><text x="643.5" y="504.4" font-size="10.5" font-weight="bold" fill="#3a3f46" text-anchor="middle" font-family="Helvetica,Arial,sans-serif">flex / office</text><text x="643.5" y="518.7" font-size="9.5" font-weight="normal" fill="#818893" text-anchor="middle" font-family="Helvetica,Arial,sans-serif">insulate + mini-split later</text><rect x="611.0" y="663.0" width="65.0" height="13.0" rx="0" fill="#fdfdfb" stroke="none" stroke-width="1.0" opacity="1.0"/><line x1="611.0" y1="672.8" x2="676.0" y2="672.8" stroke="#5b6f8d" stroke-width="1.1" stroke-linecap="round"/><line x1="611.0" y1="669.5" x2="676.0" y2="669.5" stroke="#5b6f8d" stroke-width="1.1" stroke-linecap="round"/><line x1="611.0" y1="666.2" x2="676.0" y2="666.2" stroke="#5b6f8d" stroke-width="1.1" stroke-linecap="round"/><rect x="715.0" y="520.0" width="13.0" height="65.0" rx="0" fill="#fdfdfb" stroke="none" stroke-width="1.0" opacity="1.0"/><line x1="718.2" y1="585.0" x2="718.2" y2="520.0" stroke="#5b6f8d" stroke-width="1.1" stroke-linecap="round"/><line x1="721.5" y1="585.0" x2="721.5" y2="520.0" stroke="#5b6f8d" stroke-width="1.1" stroke-linecap="round"/><line x1="724.8" y1="585.0" x2="724.8" y2="520.0" stroke="#5b6f8d" stroke-width="1.1" stroke-linecap="round"/><text x="338.0" y="447.2" font-size="12" font-weight="bold" fill="#3a3f46" text-anchor="middle" font-family="Helvetica,Arial,sans-serif">garage / shop</text><text x="338.0" y="461.5" font-size="9.5" font-weight="normal" fill="#818893" text-anchor="middle" font-family="Helvetica,Arial,sans-serif">one bay + wall of storage</text><line x1="104.0" y1="709.8" x2="728.0" y2="709.8" stroke="#7a8290" stroke-width="1" stroke-linecap="round"/><line x1="104.0" y1="717.6" x2="104.0" y2="702.0" stroke="#7a8290" stroke-width="1" stroke-linecap="round"/><line x1="728.0" y1="717.6" x2="728.0" y2="702.0" stroke="#7a8290" stroke-width="1" stroke-linecap="round"/><text x="416.0" y="731.9" font-size="10.5" font-weight="normal" fill="#7a8290" text-anchor="middle" font-family="Helvetica,Arial,sans-serif">24'-0"</text><line x1="70.2" y1="676.0" x2="70.2" y2="156.0" stroke="#7a8290" stroke-width="1" stroke-linecap="round"/><line x1="62.4" y1="676.0" x2="78.0" y2="676.0" stroke="#7a8290" stroke-width="1" stroke-linecap="round"/><line x1="62.4" y1="156.0" x2="78.0" y2="156.0" stroke="#7a8290" stroke-width="1" stroke-linecap="round"/><text x="55.9" y="416.0" font-size="10.5" font-weight="normal" fill="#7a8290" text-anchor="middle" font-family="Helvetica,Arial,sans-serif" transform="rotate(-90 55.9 416.0)">20'-0"</text><text x="416.0" y="110.5" font-size="13" font-weight="bold" fill="#3a3f46" text-anchor="middle" font-family="Helvetica,Arial,sans-serif">LEVEL 1 &#8212; garage / entry</text><text x="416.0" y="139.1" font-size="9" font-weight="normal" fill="#5c636e" text-anchor="middle" font-family="Helvetica,Arial,sans-serif">north &#8593; &#183; property line 3' &#8212; keep this wall (nearly) window-free</text><text x="416.0" y="751.4" font-size="9" font-weight="normal" fill="#5c636e" text-anchor="middle" font-family="Helvetica,Arial,sans-serif">south &#183; shed 4' away &#183; best all-day sun</text><text x="15.6" y="416.0" font-size="9" font-weight="normal" fill="#5c636e" text-anchor="middle" font-family="Helvetica,Arial,sans-serif" transform="rotate(-90 15.6 416.0)">west &#183; alley &#183; garage door below</text><text x="795.6" y="416.0" font-size="9" font-weight="normal" fill="#5c636e" text-anchor="middle" font-family="Helvetica,Arial,sans-serif" transform="rotate(90 795.6 416.0)">east &#183; yard &amp; main house &#183; morning sun</text><rect x="1131.8" y="169.0" width="337.2" height="82.4" rx="0" fill="#eeeeee" stroke="none" stroke-width="1.0" opacity="1.0"/><rect x="871.0" y="169.0" width="166.4" height="147.4" rx="0" fill="#e7f6ef" stroke="none" stroke-width="1.0" opacity="1.0"/><rect x="1046.0" y="169.0" width="77.2" height="147.4" rx="0" fill="#f3f0fa" stroke="none" stroke-width="1.0" opacity="1.0"/><rect x="871.0" y="325.0" width="252.2" height="338.0" rx="0" fill="#eaf1fa" stroke="none" stroke-width="1.0" opacity="1.0"/><rect x="871.0" y="325.0" width="156.0" height="43.4" rx="0" fill="#eaf1fa" stroke="none" stroke-width="1.0" opacity="1.0"/><rect x="1131.8" y="260.0" width="337.2" height="56.4" rx="0" fill="#fdf3e3" stroke="none" stroke-width="1.0" opacity="1.0"/><rect x="1131.8" y="325.0" width="337.2" height="338.0" rx="0" fill="#fbeeec" stroke="none" stroke-width="1.0" opacity="1.0"/><rect x="858.0" y="156.0" width="624.0" height="520.0" rx="0" fill="#37393d" stroke="none" stroke-width="1.0" opacity="1.0"/><rect x="871.0" y="169.0" width="598.0" height="494.0" rx="0" fill="#fdfdfb" stroke="none" stroke-width="1.0" opacity="1.0"/><rect x="1123.2" y="251.4" width="345.8" height="8.6" rx="0" fill="#37393d" stroke="none" stroke-width="1.0" opacity="1.0"/><rect x="1206.4" y="169.0" width="262.6" height="82.4" rx="0" fill="#f6f6f6" stroke="#c9cdd3" stroke-width="1" opacity="1.0"/><rect x="871.0" y="316.4" width="175.0" height="8.6" rx="0" fill="#37393d" stroke="none" stroke-width="1.0" opacity="1.0"/><rect x="1037.4" y="169.0" width="8.6" height="156.0" rx="0" fill="#37393d" stroke="none" stroke-width="1.0" opacity="1.0"/><rect x="1046.0" y="316.4" width="77.2" height="8.6" rx="0" fill="#37393d" stroke="none" stroke-width="1.0" opacity="1.0"/><rect x="1123.2" y="325.0" width="8.6" height="338.0" rx="0" fill="#37393d" stroke="none" stroke-width="1.0" opacity="1.0"/><rect x="871.0" y="368.4" width="156.0" height="8.6" rx="0" fill="#37393d" stroke="none" stroke-width="1.0" opacity="1.0"/><line x1="1226.6" y1="251.4" x2="1226.6" y2="169.0" stroke="#b3b8bf" stroke-width="1" stroke-linecap="round"/><line x1="1246.8" y1="251.4" x2="1246.8" y2="169.0" stroke="#b3b8bf" stroke-width="1" stroke-linecap="round"/><line x1="1267.0" y1="251.4" x2="1267.0" y2="169.0" stroke="#b3b8bf" stroke-width="1" stroke-linecap="round"/><line x1="1287.2" y1="251.4" x2="1287.2" y2="169.0" stroke="#b3b8bf" stroke-width="1" stroke-linecap="round"/><line x1="1307.4" y1="251.4" x2="1307.4" y2="169.0" stroke="#b3b8bf" stroke-width="1" stroke-linecap="round"/><line x1="1327.6" y1="251.4" x2="1327.6" y2="169.0" stroke="#b3b8bf" stroke-width="1" stroke-linecap="round"/><line x1="1347.8" y1="251.4" x2="1347.8" y2="169.0" stroke="#b3b8bf" stroke-width="1" stroke-linecap="round"/><line x1="1368.0" y1="251.4" x2="1368.0" y2="169.0" stroke="#b3b8bf" stroke-width="1" stroke-linecap="round"/><line x1="1388.2" y1="251.4" x2="1388.2" y2="169.0" stroke="#b3b8bf" stroke-width="1" stroke-linecap="round"/><line x1="1408.4" y1="251.4" x2="1408.4" y2="169.0" stroke="#b3b8bf" stroke-width="1" stroke-linecap="round"/><line x1="1428.6" y1="251.4" x2="1428.6" y2="169.0" stroke="#b3b8bf" stroke-width="1" stroke-linecap="round"/><line x1="1448.8" y1="251.4" x2="1448.8" y2="169.0" stroke="#b3b8bf" stroke-width="1" stroke-linecap="round"/><line x1="1219.4" y1="210.2" x2="1450.8" y2="210.2" stroke="#6a7180" stroke-width="1.3" stroke-linecap="round"/><line x1="1450.8" y1="210.2" x2="1441.7" y2="202.4" stroke="#6a7180" stroke-width="1.3" stroke-linecap="round"/><line x1="1450.8" y1="210.2" x2="1441.7" y2="218.0" stroke="#6a7180" stroke-width="1.3" stroke-linecap="round"/><text x="1335.1" y="195.9" font-size="9" font-weight="normal" fill="#6a7180" text-anchor="middle" font-family="Helvetica,Arial,sans-serif">DN</text><text x="1167.4" y="215.8" font-size="8" font-weight="normal" fill="#8d939c" text-anchor="middle" font-family="Helvetica,Arial,sans-serif">top</text><line x1="1123.2" y1="251.4" x2="1123.2" y2="169.0" stroke="#6a7180" stroke-width="2.0" stroke-linecap="round"/><rect x="1037.4" y="239.2" width="8.6" height="62.4" rx="0" fill="#fdfdfb" stroke="none" stroke-width="1.0" opacity="1.0"/><line x1="1041.7" y1="301.6" x2="979.3" y2="301.6" stroke="#4a4e55" stroke-width="1.6" stroke-linecap="round"/><path d="M 1041.7 239.2 A 62.4 62.4 0 0 0 979.3 301.6" fill="none" stroke="#b6bac1" stroke-width="1"/><rect x="873.6" y="171.6" width="78.0" height="78.0" rx="0" fill="#fff" stroke="#8d939c" stroke-width="1.2" opacity="1.0"/><line x1="873.6" y1="249.6" x2="951.6" y2="171.6" stroke="#8d939c" stroke-width="0.9" stroke-linecap="round"/><line x1="873.6" y1="171.6" x2="951.6" y2="249.6" stroke="#8d939c" stroke-width="0.9" stroke-linecap="round"/><text x="912.6" y="215.8" font-size="7.5" font-weight="normal" fill="#6e747e" text-anchor="middle" font-family="Helvetica,Arial,sans-serif">shower</text><rect x="969.8" y="174.2" width="41.6" height="19.5" rx="2" fill="#fff" stroke="#8d939c" stroke-width="1" opacity="1.0"/><ellipse cx="990.6" cy="210.1" rx="16.1" ry="18.7" fill="#fff" stroke="#8d939c" stroke-width="1"/><rect x="873.6" y="265.2" width="62.4" height="45.5" rx="0" fill="#faf6ee" stroke="#8d939c" stroke-width="1.1" opacity="1.0"/><circle cx="904.8" cy="287.9" r="13.0" fill="#fff" stroke="#8d939c" stroke-width="1"/><rect x="976.3" y="253.5" width="59.8" height="59.8" rx="2" fill="#fff" stroke="#8d939c" stroke-width="1.1" opacity="1.0"/><text x="1006.2" y="288.1" font-size="8" font-weight="normal" fill="#7d838d" text-anchor="middle" font-family="Helvetica,Arial,sans-serif">W/D</text><rect x="858.0" y="192.4" width="13.0" height="52.0" rx="0" fill="#fdfdfb" stroke="none" stroke-width="1.0" opacity="1.0"/><line x1="861.2" y1="244.4" x2="861.2" y2="192.4" stroke="#5b6f8d" stroke-width="1.1" stroke-linecap="round"/><line x1="864.5" y1="244.4" x2="864.5" y2="192.4" stroke="#5b6f8d" stroke-width="1.1" stroke-linecap="round"/><line x1="867.8" y1="244.4" x2="867.8" y2="192.4" stroke="#5b6f8d" stroke-width="1.1" stroke-linecap="round"/><text x="951.6" y="260.0" font-size="11" font-weight="bold" fill="#3a3f46" text-anchor="middle" font-family="Helvetica,Arial,sans-serif">bath + W/D</text><text x="951.6" y="274.3" font-size="9.5" font-weight="normal" fill="#818893" text-anchor="middle" font-family="Helvetica,Arial,sans-serif">6'-4" x 5'-8" &#183; 36 sf</text><text x="1084.2" y="223.6" font-size="10" font-weight="bold" fill="#3a3f46" text-anchor="middle" font-family="Helvetica,Arial,sans-serif">hall</text><rect x="1055.6" y="316.4" width="62.4" height="8.6" rx="0" fill="#fdfdfb" stroke="none" stroke-width="1.0" opacity="1.0"/><line x1="1118.0" y1="320.7" x2="1118.0" y2="383.1" stroke="#4a4e55" stroke-width="1.6" stroke-linecap="round"/><path d="M 1055.6 320.7 A 62.4 62.4 0 0 0 1118.0 383.1" fill="none" stroke="#b6bac1" stroke-width="1"/><rect x="884.0" y="368.4" width="130.0" height="8.6" rx="0" fill="#fdfdfb" stroke="none" stroke-width="1.0" opacity="1.0"/><line x1="884.0" y1="370.9" x2="955.5" y2="370.9" stroke="#4a4e55" stroke-width="1.6" stroke-linecap="round"/><line x1="942.5" y1="374.5" x2="1014.0" y2="374.5" stroke="#4a4e55" stroke-width="1.6" stroke-linecap="round"/><text x="949.0" y="351.0" font-size="8.5" font-weight="normal" fill="#8d939c" text-anchor="middle" font-family="Helvetica,Arial,sans-serif">closet 6'</text><rect x="881.4" y="431.6" width="173.4" height="130.0" rx="4" fill="#f1f2f4" stroke="#8d939c" stroke-width="1.1" opacity="1.0"/><rect x="887.9" y="440.7" width="22.1" height="111.8" rx="3" fill="#fff" stroke="#8d939c" stroke-width="1" opacity="1.0"/><line x1="923.0" y1="561.6" x2="923.0" y2="431.6" stroke="#8d939c" stroke-width="1.2" stroke-linecap="round"/><text x="968.1" y="501.8" font-size="8.5" font-weight="normal" fill="#7d838d" text-anchor="middle" font-family="Helvetica,Arial,sans-serif">queen</text><rect x="881.4" y="384.8" width="41.6" height="41.6" rx="3" fill="#f1f2f4" stroke="#8d939c" stroke-width="1.1" opacity="1.0"/><text x="902.2" y="410.3" font-size="8.5" font-weight="normal" fill="#7d838d" text-anchor="middle" font-family="Helvetica,Arial,sans-serif">nt</text><rect x="881.4" y="566.8" width="41.6" height="41.6" rx="3" fill="#f1f2f4" stroke="#8d939c" stroke-width="1.1" opacity="1.0"/><text x="902.2" y="592.3" font-size="8.5" font-weight="normal" fill="#7d838d" text-anchor="middle" font-family="Helvetica,Arial,sans-serif">nt</text><rect x="1029.6" y="612.3" width="78.0" height="41.6" rx="3" fill="#f1f2f4" stroke="#8d939c" stroke-width="1.1" opacity="1.0"/><text x="1068.6" y="637.8" font-size="8.5" font-weight="normal" fill="#7d838d" text-anchor="middle" font-family="Helvetica,Arial,sans-serif">dresser</text><rect x="858.0" y="507.0" width="13.0" height="65.0" rx="0" fill="#fdfdfb" stroke="none" stroke-width="1.0" opacity="1.0"/><line x1="861.2" y1="572.0" x2="861.2" y2="507.0" stroke="#5b6f8d" stroke-width="1.1" stroke-linecap="round"/><line x1="864.5" y1="572.0" x2="864.5" y2="507.0" stroke="#5b6f8d" stroke-width="1.1" stroke-linecap="round"/><line x1="867.8" y1="572.0" x2="867.8" y2="507.0" stroke="#5b6f8d" stroke-width="1.1" stroke-linecap="round"/><rect x="858.0" y="403.0" width="13.0" height="65.0" rx="0" fill="#fdfdfb" stroke="none" stroke-width="1.0" opacity="1.0"/><line x1="861.2" y1="468.0" x2="861.2" y2="403.0" stroke="#5b6f8d" stroke-width="1.1" stroke-linecap="round"/><line x1="864.5" y1="468.0" x2="864.5" y2="403.0" stroke="#5b6f8d" stroke-width="1.1" stroke-linecap="round"/><line x1="867.8" y1="468.0" x2="867.8" y2="403.0" stroke="#5b6f8d" stroke-width="1.1" stroke-linecap="round"/><rect x="936.0" y="663.0" width="65.0" height="13.0" rx="0" fill="#fdfdfb" stroke="none" stroke-width="1.0" opacity="1.0"/><line x1="936.0" y1="672.8" x2="1001.0" y2="672.8" stroke="#5b6f8d" stroke-width="1.1" stroke-linecap="round"/><line x1="936.0" y1="669.5" x2="1001.0" y2="669.5" stroke="#5b6f8d" stroke-width="1.1" stroke-linecap="round"/><line x1="936.0" y1="666.2" x2="1001.0" y2="666.2" stroke="#5b6f8d" stroke-width="1.1" stroke-linecap="round"/><text x="962.0" y="626.6" font-size="13" font-weight="bold" fill="#3a3f46" text-anchor="middle" font-family="Helvetica,Arial,sans-serif">bedroom</text><text x="962.0" y="640.9" font-size="9.5" font-weight="normal" fill="#818893" text-anchor="middle" font-family="Helvetica,Arial,sans-serif">9'-8" x 13' &#183; 126 sf</text><rect x="1196.0" y="260.0" width="273.0" height="56.4" rx="0" fill="#faf6ee" stroke="#8d939c" stroke-width="1.1" opacity="1.0"/><rect x="1198.6" y="249.6" width="67.6" height="65.0" rx="2" fill="#fff" stroke="#8d939c" stroke-width="1.1" opacity="1.0"/><text x="1232.4" y="286.8" font-size="8.5" font-weight="normal" fill="#7d838d" text-anchor="middle" font-family="Helvetica,Arial,sans-serif">REF</text><rect x="1305.2" y="260.0" width="65.0" height="56.4" rx="0" fill="#fff" stroke="#8d939c" stroke-width="1" opacity="1.0"/><circle cx="1320.8" cy="300.8" r="8.3" fill="none" stroke="#8d939c" stroke-width="1"/><circle cx="1320.8" cy="275.6" r="8.3" fill="none" stroke="#8d939c" stroke-width="1"/><circle cx="1354.6" cy="300.8" r="8.3" fill="none" stroke="#8d939c" stroke-width="1"/><circle cx="1354.6" cy="275.6" r="8.3" fill="none" stroke="#8d939c" stroke-width="1"/><rect x="1412.6" y="316.4" width="56.4" height="112.6" rx="0" fill="#faf6ee" stroke="#8d939c" stroke-width="1.1" opacity="1.0"/><rect x="1419.6" y="348.4" width="44.2" height="33.8" rx="3" fill="#fff" stroke="#8d939c" stroke-width="1" opacity="1.0"/><text x="1441.7" y="370.0" font-size="7.5" font-weight="normal" fill="#8d939c" text-anchor="middle" font-family="Helvetica,Arial,sans-serif">sink</text><rect x="1469.0" y="348.4" width="13.0" height="57.2" rx="0" fill="#fdfdfb" stroke="none" stroke-width="1.0" opacity="1.0"/><line x1="1472.2" y1="405.6" x2="1472.2" y2="348.4" stroke="#5b6f8d" stroke-width="1.1" stroke-linecap="round"/><line x1="1475.5" y1="405.6" x2="1475.5" y2="348.4" stroke="#5b6f8d" stroke-width="1.1" stroke-linecap="round"/><line x1="1478.8" y1="405.6" x2="1478.8" y2="348.4" stroke="#5b6f8d" stroke-width="1.1" stroke-linecap="round"/><text x="1227.2" y="335.4" font-size="9.5" font-weight="normal" fill="#818893" text-anchor="middle" font-family="Helvetica,Arial,sans-serif">kitchen &#183; 10' run + sink return</text><rect x="1274.0" y="374.4" width="109.2" height="72.8" rx="4" fill="#f1f2f4" stroke="#8d939c" stroke-width="1.1" opacity="1.0"/><rect x="1287.7" y="336.7" width="33.8" height="33.8" rx="4" fill="#f1f2f4" stroke="#8d939c" stroke-width="1.1" opacity="1.0"/><rect x="1335.7" y="451.1" width="33.8" height="33.8" rx="4" fill="#f1f2f4" stroke="#8d939c" stroke-width="1.1" opacity="1.0"/><rect x="1335.7" y="336.7" width="33.8" height="33.8" rx="4" fill="#f1f2f4" stroke="#8d939c" stroke-width="1.1" opacity="1.0"/><rect x="1287.7" y="451.1" width="33.8" height="33.8" rx="4" fill="#f1f2f4" stroke="#8d939c" stroke-width="1.1" opacity="1.0"/><rect x="1144.0" y="423.8" width="78.0" height="169.0" rx="5" fill="#f1f2f4" stroke="#8d939c" stroke-width="1.1" opacity="1.0"/><line x1="1158.3" y1="588.9" x2="1158.3" y2="427.7" stroke="#8d939c" stroke-width="1.2" stroke-linecap="round"/><text x="1183.0" y="513.5" font-size="8.5" font-weight="normal" fill="#7d838d" text-anchor="middle" font-family="Helvetica,Arial,sans-serif">sofa</text><rect x="1237.6" y="507.0" width="93.6" height="46.8" rx="3" fill="#f1f2f4" stroke="#8d939c" stroke-width="1.1" opacity="1.0"/><text x="1284.4" y="535.1" font-size="8.5" font-weight="normal" fill="#7d838d" text-anchor="middle" font-family="Helvetica,Arial,sans-serif">coffee</text><rect x="1436.5" y="436.8" width="29.9" height="67.6" rx="3" fill="#f1f2f4" stroke="#8d939c" stroke-width="1.1" opacity="1.0"/><text x="1451.4" y="475.3" font-size="8.5" font-weight="normal" fill="#7d838d" text-anchor="middle" font-family="Helvetica,Arial,sans-serif">tv</text><rect x="1469.0" y="520.0" width="13.0" height="65.0" rx="0" fill="#fdfdfb" stroke="none" stroke-width="1.0" opacity="1.0"/><line x1="1472.2" y1="585.0" x2="1472.2" y2="520.0" stroke="#5b6f8d" stroke-width="1.1" stroke-linecap="round"/><line x1="1475.5" y1="585.0" x2="1475.5" y2="520.0" stroke="#5b6f8d" stroke-width="1.1" stroke-linecap="round"/><line x1="1478.8" y1="585.0" x2="1478.8" y2="520.0" stroke="#5b6f8d" stroke-width="1.1" stroke-linecap="round"/><rect x="1196.0" y="663.0" width="65.0" height="13.0" rx="0" fill="#fdfdfb" stroke="none" stroke-width="1.0" opacity="1.0"/><line x1="1196.0" y1="672.8" x2="1261.0" y2="672.8" stroke="#5b6f8d" stroke-width="1.1" stroke-linecap="round"/><line x1="1196.0" y1="669.5" x2="1261.0" y2="669.5" stroke="#5b6f8d" stroke-width="1.1" stroke-linecap="round"/><line x1="1196.0" y1="666.2" x2="1261.0" y2="666.2" stroke="#5b6f8d" stroke-width="1.1" stroke-linecap="round"/><rect x="1313.0" y="663.0" width="65.0" height="13.0" rx="0" fill="#fdfdfb" stroke="none" stroke-width="1.0" opacity="1.0"/><line x1="1313.0" y1="672.8" x2="1378.0" y2="672.8" stroke="#5b6f8d" stroke-width="1.1" stroke-linecap="round"/><line x1="1313.0" y1="669.5" x2="1378.0" y2="669.5" stroke="#5b6f8d" stroke-width="1.1" stroke-linecap="round"/><line x1="1313.0" y1="666.2" x2="1378.0" y2="666.2" stroke="#5b6f8d" stroke-width="1.1" stroke-linecap="round"/><text x="1263.6" y="626.6" font-size="13" font-weight="bold" fill="#3a3f46" text-anchor="middle" font-family="Helvetica,Arial,sans-serif">living / dining</text><text x="1263.6" y="640.9" font-size="9.5" font-weight="normal" fill="#818893" text-anchor="middle" font-family="Helvetica,Arial,sans-serif">&#8776; 13' x 13' + kitchen</text><line x1="858.0" y1="709.8" x2="1482.0" y2="709.8" stroke="#7a8290" stroke-width="1" stroke-linecap="round"/><line x1="858.0" y1="717.6" x2="858.0" y2="702.0" stroke="#7a8290" stroke-width="1" stroke-linecap="round"/><line x1="1482.0" y1="717.6" x2="1482.0" y2="702.0" stroke="#7a8290" stroke-width="1" stroke-linecap="round"/><text x="1170.0" y="731.9" font-size="10.5" font-weight="normal" fill="#7a8290" text-anchor="middle" font-family="Helvetica,Arial,sans-serif">24'-0"</text><line x1="824.2" y1="676.0" x2="824.2" y2="156.0" stroke="#7a8290" stroke-width="1" stroke-linecap="round"/><line x1="816.4" y1="676.0" x2="832.0" y2="676.0" stroke="#7a8290" stroke-width="1" stroke-linecap="round"/><line x1="816.4" y1="156.0" x2="832.0" y2="156.0" stroke="#7a8290" stroke-width="1" stroke-linecap="round"/><text x="809.9" y="416.0" font-size="10.5" font-weight="normal" fill="#7a8290" text-anchor="middle" font-family="Helvetica,Arial,sans-serif" transform="rotate(-90 809.9 416.0)">20'-0"</text><text x="1170.0" y="110.5" font-size="13" font-weight="bold" fill="#3a3f46" text-anchor="middle" font-family="Helvetica,Arial,sans-serif">LEVEL 2 &#8212; apartment &#183; 480 sf gross / 437 sf net</text><text x="1170.0" y="139.1" font-size="9" font-weight="normal" fill="#5c636e" text-anchor="middle" font-family="Helvetica,Arial,sans-serif">north &#8593; &#183; property line 3' &#8212; keep this wall (nearly) window-free</text><text x="1170.0" y="751.4" font-size="9" font-weight="normal" fill="#5c636e" text-anchor="middle" font-family="Helvetica,Arial,sans-serif">south &#183; shed 4' away &#183; best all-day sun</text><text x="769.6" y="416.0" font-size="9" font-weight="normal" fill="#5c636e" text-anchor="middle" font-family="Helvetica,Arial,sans-serif" transform="rotate(-90 769.6 416.0)">west &#183; alley &#183; garage door below</text><text x="1549.6" y="416.0" font-size="9" font-weight="normal" fill="#5c636e" text-anchor="middle" font-family="Helvetica,Arial,sans-serif" transform="rotate(90 1549.6 416.0)">east &#183; yard &amp; main house &#183; morning sun</text><text x="46" y="796" font-size="11.5" fill="#4a4f57" font-family="Helvetica,Arial,sans-serif">&#8226; PRO: one weather-tight entry; living + dining get the yard view and the best (S+E) light; bedroom is the private, dim side.</text><text x="46" y="813" font-size="11.5" fill="#4a4f57" font-family="Helvetica,Arial,sans-serif">&#8226; PRO: whole north wall is stair/bath/closet &#8212; nothing lost to the no-window rule; single stacked plumbing chase (bath over garage mech corner).</text><text x="46" y="830" font-size="11.5" fill="#4a4f57" font-family="Helvetica,Arial,sans-serif">&#8226; CON: interior stair costs &#8776;46 sf on each floor; bedroom sits over the overhead door (door rumble &#8212; use a quiet side-mount opener).</text><text x="46" y="847" font-size="11.5" fill="#4a4f57" font-family="Helvetica,Arial,sans-serif">&#8226; CON: kitchen run faces an interior wall (no sink window; sink is on the east return instead).</text></svg>