<svg xmlns="http://www.w3.org/2000/svg" width="1654" height="910" viewBox="0 0 1654 910" preserveAspectRatio="xMinYMin meet"><rect width="1654" height="910" fill="#ffffff"/><text x="46" y="46" font-size="21" font-weight="bold" fill="#23262b" font-family="Helvetica,Arial,sans-serif">Option C &#8212; exterior stair &#183; maximum apartment</text><text x="46" y="70" font-size="12.5" fill="#5c636e" font-family="Helvetica,Arial,sans-serif">Covered stair on the east face &#183; all 437 sf net stays inside &#183; kitchen earns its keep on the blank north wall</text><line x1="46" y1="84" x2="1608" y2="84" stroke="#d5d8dd" stroke-width="1"/><rect x="117.0" y="169.0" width="598.0" height="494.0" rx="0" fill="#f2f2ef" stroke="none" stroke-width="1.0" opacity="1.0"/><rect x="117.0" y="169.0" width="598.0" height="91.0" rx="0" fill="#e9e7f5" stroke="none" stroke-width="1.0" opacity="1.0"/><rect x="104.0" y="156.0" width="624.0" height="520.0" rx="0" fill="#37393d" stroke="none" stroke-width="1.0" opacity="1.0"/><rect x="117.0" y="169.0" width="598.0" height="494.0" rx="0" fill="#fdfdfb" stroke="none" stroke-width="1.0" opacity="1.0"/><rect x="122.2" y="171.6" width="143.0" height="52.0" rx="0" fill="#faf6ee" stroke="#8d939c" stroke-width="1" opacity="1.0"/><text x="193.7" y="202.8" font-size="8.5" font-weight="normal" fill="#8d939c" text-anchor="middle" font-family="Helvetica,Arial,sans-serif">workbench</text><circle cx="301.6" cy="200.2" r="26.0" fill="#fff" stroke="#8d939c" stroke-width="1.1"/><text x="301.6" y="205.4" font-size="8.5" font-weight="normal" fill="#8d939c" text-anchor="middle" font-family="Helvetica,Arial,sans-serif">WH</text><text x="231.4" y="245.7" font-size="8" font-weight="normal" fill="#8d939c" text-anchor="middle" font-family="Helvetica,Arial,sans-serif">plumbing drops from bath above</text><rect x="715.0" y="171.6" width="13.0" height="72.8" rx="0" fill="#fdfdfb" stroke="none" stroke-width="1.0" opacity="1.0"/><line x1="721.5" y1="244.4" x2="648.7" y2="244.4" stroke="#4a4e55" stroke-width="1.6" stroke-linecap="round"/><path d="M 721.5 171.6 A 72.8 72.8 0 0 0 648.7 244.4" fill="none" stroke="#b6bac1" stroke-width="1"/><text x="668.2" y="218.4" font-size="8.5" font-weight="normal" fill="#8d939c" text-anchor="middle" font-family="Helvetica,Arial,sans-serif">service door</text><rect x="150.8" y="410.8" width="403.0" height="161.2" rx="14" fill="#fff" stroke="#b3b8bf" stroke-width="1.3" opacity="1.0"/><text x="352.3" y="496.6" font-size="9" font-weight="normal" fill="#9aa0a9" text-anchor="middle" font-family="Helvetica,Arial,sans-serif">car (typ. 16' x 6')</text><rect x="104.0" y="325.0" width="13.0" height="286.0" rx="0" fill="#fff" stroke="#37393d" stroke-width="1.2" opacity="1.0"/><line x1="110.5" y1="611.0" x2="110.5" y2="325.0" stroke="#37393d" stroke-width="1.5" stroke-linecap="round"/><text x="131.3" y="468.0" font-size="8.5" font-weight="normal" fill="#5c636e" text-anchor="middle" font-family="Helvetica,Arial,sans-serif" transform="rotate(-90 131.3 468.0)">10'&#8211;12' overhead door &#8594; alley</text><rect x="533.0" y="442.0" width="182.0" height="221.0" rx="0" fill="none" stroke="#c9a25f" stroke-width="1.2" stroke-dasharray="6 4" opacity="1.0"/><rect x="551.2" y="533.0" width="52.0" height="117.0" rx="3" fill="#f1f2f4" stroke="#8d939c" stroke-width="1.1" opacity="1.0"/><text x="577.2" y="596.2" font-size="8.5" font-weight="normal" fill="#7d838d" text-anchor="middle" font-family="Helvetica,Arial,sans-serif">desk</text><text x="624.0" y="504.4" font-size="10.5" font-weight="bold" fill="#3a3f46" text-anchor="middle" font-family="Helvetica,Arial,sans-serif">flex / office</text><text x="624.0" y="518.7" font-size="9.5" font-weight="normal" fill="#818893" text-anchor="middle" font-family="Helvetica,Arial,sans-serif">insulate + mini-split later</text><rect x="611.0" y="663.0" width="65.0" height="13.0" rx="0" fill="#fdfdfb" stroke="none" stroke-width="1.0" opacity="1.0"/><line x1="611.0" y1="672.8" x2="676.0" y2="672.8" stroke="#5b6f8d" stroke-width="1.1" stroke-linecap="round"/><line x1="611.0" y1="669.5" x2="676.0" y2="669.5" stroke="#5b6f8d" stroke-width="1.1" stroke-linecap="round"/><line x1="611.0" y1="666.2" x2="676.0" y2="666.2" stroke="#5b6f8d" stroke-width="1.1" stroke-linecap="round"/><rect x="715.0" y="520.0" width="13.0" height="65.0" rx="0" fill="#fdfdfb" stroke="none" stroke-width="1.0" opacity="1.0"/><line x1="718.2" y1="585.0" x2="718.2" y2="520.0" stroke="#5b6f8d" stroke-width="1.1" stroke-linecap="round"/><line x1="721.5" y1="585.0" x2="721.5" y2="520.0" stroke="#5b6f8d" stroke-width="1.1" stroke-linecap="round"/><line x1="724.8" y1="585.0" x2="724.8" y2="520.0" stroke="#5b6f8d" stroke-width="1.1" stroke-linecap="round"/><text x="338.0" y="447.2" font-size="12" font-weight="bold" fill="#3a3f46" text-anchor="middle" font-family="Helvetica,Arial,sans-serif">garage / shop</text><text x="338.0" y="461.5" font-size="9.5" font-weight="normal" fill="#818893" text-anchor="middle" font-family="Helvetica,Arial,sans-serif">one bay + wall of storage</text><line x1="104.0" y1="709.8" x2="728.0" y2="709.8" stroke="#7a8290" stroke-width="1" stroke-linecap="round"/><line x1="104.0" y1="717.6" x2="104.0" y2="702.0" stroke="#7a8290" stroke-width="1" stroke-linecap="round"/><line x1="728.0" y1="717.6" x2="728.0" y2="702.0" stroke="#7a8290" stroke-width="1" stroke-linecap="round"/><text x="416.0" y="731.9" font-size="10.5" font-weight="normal" fill="#7a8290" text-anchor="middle" font-family="Helvetica,Arial,sans-serif">24'-0"</text><line x1="70.2" y1="676.0" x2="70.2" y2="156.0" stroke="#7a8290" stroke-width="1" stroke-linecap="round"/><line x1="62.4" y1="676.0" x2="78.0" y2="676.0" stroke="#7a8290" stroke-width="1" stroke-linecap="round"/><line x1="62.4" y1="156.0" x2="78.0" y2="156.0" stroke="#7a8290" stroke-width="1" stroke-linecap="round"/><text x="55.9" y="416.0" font-size="10.5" font-weight="normal" fill="#7a8290" text-anchor="middle" font-family="Helvetica,Arial,sans-serif" transform="rotate(-90 55.9 416.0)">20'-0"</text><text x="416.0" y="110.5" font-size="13" font-weight="bold" fill="#3a3f46" text-anchor="middle" font-family="Helvetica,Arial,sans-serif">LEVEL 1 &#8212; garage / entry</text><text x="416.0" y="139.1" font-size="9" font-weight="normal" fill="#5c636e" text-anchor="middle" font-family="Helvetica,Arial,sans-serif">north &#8593; &#183; property line 3' &#8212; keep this wall (nearly) window-free</text><text x="416.0" y="751.4" font-size="9" font-weight="normal" fill="#5c636e" text-anchor="middle" font-family="Helvetica,Arial,sans-serif">south &#183; shed 4' away &#183; best all-day sun</text><text x="15.6" y="416.0" font-size="9" font-weight="normal" fill="#5c636e" text-anchor="middle" font-family="Helvetica,Arial,sans-serif" transform="rotate(-90 15.6 416.0)">west &#183; alley &#183; garage door below</text><text x="795.6" y="416.0" font-size="9" font-weight="normal" fill="#5c636e" text-anchor="middle" font-family="Helvetica,Arial,sans-serif" transform="rotate(90 795.6 416.0)">east &#183; yard &amp; main house &#183; morning sun</text><rect x="871.0" y="169.0" width="166.4" height="147.4" rx="0" fill="#e7f6ef" stroke="none" stroke-width="1.0" opacity="1.0"/><rect x="1037.4" y="169.0" width="431.6" height="147.4" rx="0" fill="#fdf3e3" stroke="none" stroke-width="1.0" opacity="1.0"/><rect x="871.0" y="377.0" width="252.2" height="286.0" rx="0" fill="#eaf1fa" stroke="none" stroke-width="1.0" opacity="1.0"/><rect x="871.0" y="377.0" width="156.0" height="43.4" rx="0" fill="#eaf1fa" stroke="none" stroke-width="1.0" opacity="1.0"/><rect x="871.0" y="325.0" width="166.4" height="43.4" rx="0" fill="#f3f0fa" stroke="none" stroke-width="1.0" opacity="1.0"/><rect x="1131.8" y="316.4" width="337.2" height="346.6" rx="0" fill="#fbeeec" stroke="none" stroke-width="1.0" opacity="1.0"/><rect x="1492.4" y="169.0" width="93.6" height="101.4" rx="0" fill="#f6f6f6" stroke="#c9cdd3" stroke-width="1" opacity="1.0"/><rect x="1492.4" y="270.4" width="93.6" height="280.8" rx="0" fill="#f6f6f6" stroke="#c9cdd3" stroke-width="1" opacity="1.0"/><rect x="858.0" y="156.0" width="624.0" height="520.0" rx="0" fill="#37393d" stroke="none" stroke-width="1.0" opacity="1.0"/><rect x="871.0" y="169.0" width="598.0" height="494.0" rx="0" fill="#fdfdfb" stroke="none" stroke-width="1.0" opacity="1.0"/><rect x="871.0" y="316.4" width="175.0" height="8.6" rx="0" fill="#37393d" stroke="none" stroke-width="1.0" opacity="1.0"/><rect x="1037.4" y="169.0" width="8.6" height="156.0" rx="0" fill="#37393d" stroke="none" stroke-width="1.0" opacity="1.0"/><rect x="1123.2" y="377.0" width="8.6" height="286.0" rx="0" fill="#37393d" stroke="none" stroke-width="1.0" opacity="1.0"/><rect x="871.0" y="368.4" width="260.8" height="8.6" rx="0" fill="#37393d" stroke="none" stroke-width="1.0" opacity="1.0"/><rect x="871.0" y="420.4" width="156.0" height="8.6" rx="0" fill="#37393d" stroke="none" stroke-width="1.0" opacity="1.0"/><rect x="1037.4" y="325.0" width="8.6" height="52.0" rx="0" fill="#37393d" stroke="none" stroke-width="1.0" opacity="1.0"/><text x="1539.2" y="221.0" font-size="8.5" font-weight="normal" fill="#8d939c" text-anchor="middle" font-family="Helvetica,Arial,sans-serif">landing</text><line x1="1492.4" y1="529.6" x2="1586.0" y2="529.6" stroke="#b3b8bf" stroke-width="1" stroke-linecap="round"/><line x1="1492.4" y1="508.0" x2="1586.0" y2="508.0" stroke="#b3b8bf" stroke-width="1" stroke-linecap="round"/><line x1="1492.4" y1="486.4" x2="1586.0" y2="486.4" stroke="#b3b8bf" stroke-width="1" stroke-linecap="round"/><line x1="1492.4" y1="464.8" x2="1586.0" y2="464.8" stroke="#b3b8bf" stroke-width="1" stroke-linecap="round"/><line x1="1492.4" y1="443.2" x2="1586.0" y2="443.2" stroke="#b3b8bf" stroke-width="1" stroke-linecap="round"/><line x1="1492.4" y1="421.6" x2="1586.0" y2="421.6" stroke="#b3b8bf" stroke-width="1" stroke-linecap="round"/><line x1="1492.4" y1="400.0" x2="1586.0" y2="400.0" stroke="#b3b8bf" stroke-width="1" stroke-linecap="round"/><line x1="1492.4" y1="378.4" x2="1586.0" y2="378.4" stroke="#b3b8bf" stroke-width="1" stroke-linecap="round"/><line x1="1492.4" y1="356.8" x2="1586.0" y2="356.8" stroke="#b3b8bf" stroke-width="1" stroke-linecap="round"/><line x1="1492.4" y1="335.2" x2="1586.0" y2="335.2" stroke="#b3b8bf" stroke-width="1" stroke-linecap="round"/><line x1="1492.4" y1="313.6" x2="1586.0" y2="313.6" stroke="#b3b8bf" stroke-width="1" stroke-linecap="round"/><line x1="1492.4" y1="292.0" x2="1586.0" y2="292.0" stroke="#b3b8bf" stroke-width="1" stroke-linecap="round"/><line x1="1539.2" y1="535.6" x2="1539.2" y2="288.6" stroke="#6a7180" stroke-width="1.3" stroke-linecap="round"/><line x1="1539.2" y1="535.6" x2="1531.4" y2="526.5" stroke="#6a7180" stroke-width="1.3" stroke-linecap="round"/><line x1="1539.2" y1="535.6" x2="1547.0" y2="526.5" stroke="#6a7180" stroke-width="1.3" stroke-linecap="round"/><text x="1562.6" y="421.2" font-size="9" font-weight="normal" fill="#6a7180" text-anchor="middle" font-family="Helvetica,Arial,sans-serif" transform="rotate(90 1562.6 421.2)">DN</text><text x="1541.8" y="600.6" font-size="9" font-weight="normal" fill="#5c636e" text-anchor="middle" font-family="Helvetica,Arial,sans-serif">covered exterior stair</text><rect x="1037.4" y="239.2" width="8.6" height="62.4" rx="0" fill="#fdfdfb" stroke="none" stroke-width="1.0" opacity="1.0"/><line x1="1041.7" y1="301.6" x2="979.3" y2="301.6" stroke="#4a4e55" stroke-width="1.6" stroke-linecap="round"/><path d="M 1041.7 239.2 A 62.4 62.4 0 0 0 979.3 301.6" fill="none" stroke="#b6bac1" stroke-width="1"/><rect x="873.6" y="171.6" width="78.0" height="78.0" rx="0" fill="#fff" stroke="#8d939c" stroke-width="1.2" opacity="1.0"/><line x1="873.6" y1="249.6" x2="951.6" y2="171.6" stroke="#8d939c" stroke-width="0.9" stroke-linecap="round"/><line x1="873.6" y1="171.6" x2="951.6" y2="249.6" stroke="#8d939c" stroke-width="0.9" stroke-linecap="round"/><text x="912.6" y="215.8" font-size="7.5" font-weight="normal" fill="#6e747e" text-anchor="middle" font-family="Helvetica,Arial,sans-serif">shower</text><rect x="969.8" y="174.2" width="41.6" height="19.5" rx="2" fill="#fff" stroke="#8d939c" stroke-width="1" opacity="1.0"/><ellipse cx="990.6" cy="210.1" rx="16.1" ry="18.7" fill="#fff" stroke="#8d939c" stroke-width="1"/><rect x="873.6" y="265.2" width="62.4" height="45.5" rx="0" fill="#faf6ee" stroke="#8d939c" stroke-width="1.1" opacity="1.0"/><circle cx="904.8" cy="287.9" r="13.0" fill="#fff" stroke="#8d939c" stroke-width="1"/><rect x="976.3" y="253.5" width="59.8" height="59.8" rx="2" fill="#fff" stroke="#8d939c" stroke-width="1.1" opacity="1.0"/><text x="1006.2" y="288.1" font-size="8" font-weight="normal" fill="#7d838d" text-anchor="middle" font-family="Helvetica,Arial,sans-serif">W/D</text><rect x="858.0" y="192.4" width="13.0" height="52.0" rx="0" fill="#fdfdfb" stroke="none" stroke-width="1.0" opacity="1.0"/><line x1="861.2" y1="244.4" x2="861.2" y2="192.4" stroke="#5b6f8d" stroke-width="1.1" stroke-linecap="round"/><line x1="864.5" y1="244.4" x2="864.5" y2="192.4" stroke="#5b6f8d" stroke-width="1.1" stroke-linecap="round"/><line x1="867.8" y1="244.4" x2="867.8" y2="192.4" stroke="#5b6f8d" stroke-width="1.1" stroke-linecap="round"/><text x="951.6" y="260.0" font-size="11" font-weight="bold" fill="#3a3f46" text-anchor="middle" font-family="Helvetica,Arial,sans-serif">bath + W/D</text><text x="951.6" y="274.3" font-size="9.5" font-weight="normal" fill="#818893" text-anchor="middle" font-family="Helvetica,Arial,sans-serif">6'-4" x 5'-8" &#183; 36 sf</text><rect x="1469.0" y="169.0" width="13.0" height="78.0" rx="0" fill="#fdfdfb" stroke="none" stroke-width="1.0" opacity="1.0"/><line x1="1475.5" y1="169.0" x2="1397.5" y2="169.0" stroke="#4a4e55" stroke-width="1.6" stroke-linecap="round"/><path d="M 1475.5 247.0 A 78.0 78.0 0 0 0 1397.5 169.0" fill="none" stroke="#b6bac1" stroke-width="1"/><rect x="1092.0" y="169.0" width="221.0" height="56.4" rx="0" fill="#faf6ee" stroke="#8d939c" stroke-width="1.1" opacity="1.0"/><rect x="1144.0" y="182.0" width="44.2" height="33.8" rx="3" fill="#fff" stroke="#8d939c" stroke-width="1" opacity="1.0"/><text x="1166.1" y="203.6" font-size="7.5" font-weight="normal" fill="#8d939c" text-anchor="middle" font-family="Helvetica,Arial,sans-serif">sink</text><rect x="1232.4" y="169.0" width="65.0" height="56.4" rx="0" fill="#fff" stroke="#8d939c" stroke-width="1" opacity="1.0"/><circle cx="1248.0" cy="209.8" r="8.3" fill="none" stroke="#8d939c" stroke-width="1"/><circle cx="1248.0" cy="184.6" r="8.3" fill="none" stroke="#8d939c" stroke-width="1"/><circle cx="1281.8" cy="209.8" r="8.3" fill="none" stroke="#8d939c" stroke-width="1"/><circle cx="1281.8" cy="184.6" r="8.3" fill="none" stroke="#8d939c" stroke-width="1"/><rect x="1315.6" y="169.0" width="67.6" height="65.0" rx="2" fill="#fff" stroke="#8d939c" stroke-width="1.1" opacity="1.0"/><text x="1349.4" y="206.2" font-size="8.5" font-weight="normal" fill="#7d838d" text-anchor="middle" font-family="Helvetica,Arial,sans-serif">REF</text><rect x="1393.6" y="179.4" width="67.6" height="39.0" rx="3" fill="#f1f2f4" stroke="#8d939c" stroke-width="1.1" opacity="1.0"/><text x="1427.4" y="203.6" font-size="8.5" font-weight="normal" fill="#7d838d" text-anchor="middle" font-family="Helvetica,Arial,sans-serif">bench</text><rect x="1170.0" y="247.0" width="109.2" height="67.6" rx="4" fill="#f1f2f4" stroke="#8d939c" stroke-width="1.1" opacity="1.0"/><rect x="1193.4" y="323.7" width="33.8" height="33.8" rx="4" fill="#f1f2f4" stroke="#8d939c" stroke-width="1.1" opacity="1.0"/><rect x="1248.0" y="323.7" width="33.8" height="33.8" rx="4" fill="#f1f2f4" stroke="#8d939c" stroke-width="1.1" opacity="1.0"/><text x="1331.2" y="340.6" font-size="9.5" font-weight="normal" fill="#818893" text-anchor="middle" font-family="Helvetica,Arial,sans-serif">kitchen / dining &#183; 8'-6" run on the blank wall</text><rect x="1123.2" y="390.0" width="8.6" height="62.4" rx="0" fill="#fdfdfb" stroke="none" stroke-width="1.0" opacity="1.0"/><line x1="1127.5" y1="390.0" x2="1189.9" y2="390.0" stroke="#4a4e55" stroke-width="1.6" stroke-linecap="round"/><path d="M 1127.5 452.4 A 62.4 62.4 0 0 0 1189.9 390.0" fill="none" stroke="#b6bac1" stroke-width="1"/><rect x="884.0" y="420.4" width="130.0" height="8.6" rx="0" fill="#fdfdfb" stroke="none" stroke-width="1.0" opacity="1.0"/><line x1="884.0" y1="422.9" x2="955.5" y2="422.9" stroke="#4a4e55" stroke-width="1.6" stroke-linecap="round"/><line x1="942.5" y1="426.5" x2="1014.0" y2="426.5" stroke="#4a4e55" stroke-width="1.6" stroke-linecap="round"/><text x="949.0" y="403.0" font-size="8.5" font-weight="normal" fill="#8d939c" text-anchor="middle" font-family="Helvetica,Arial,sans-serif">closet 6'</text><rect x="881.4" y="442.0" width="173.4" height="130.0" rx="4" fill="#f1f2f4" stroke="#8d939c" stroke-width="1.1" opacity="1.0"/><rect x="887.9" y="451.1" width="22.1" height="111.8" rx="3" fill="#fff" stroke="#8d939c" stroke-width="1" opacity="1.0"/><line x1="923.0" y1="572.0" x2="923.0" y2="442.0" stroke="#8d939c" stroke-width="1.2" stroke-linecap="round"/><text x="968.1" y="512.2" font-size="8.5" font-weight="normal" fill="#7d838d" text-anchor="middle" font-family="Helvetica,Arial,sans-serif">queen</text><rect x="881.4" y="579.8" width="41.6" height="36.4" rx="3" fill="#f1f2f4" stroke="#8d939c" stroke-width="1.1" opacity="1.0"/><text x="902.2" y="602.7" font-size="8.5" font-weight="normal" fill="#7d838d" text-anchor="middle" font-family="Helvetica,Arial,sans-serif">nt</text><rect x="1045.2" y="612.3" width="72.8" height="41.6" rx="3" fill="#f1f2f4" stroke="#8d939c" stroke-width="1.1" opacity="1.0"/><text x="1081.6" y="637.8" font-size="8.5" font-weight="normal" fill="#7d838d" text-anchor="middle" font-family="Helvetica,Arial,sans-serif">dresser</text><rect x="858.0" y="527.8" width="13.0" height="65.0" rx="0" fill="#fdfdfb" stroke="none" stroke-width="1.0" opacity="1.0"/><line x1="861.2" y1="592.8" x2="861.2" y2="527.8" stroke="#5b6f8d" stroke-width="1.1" stroke-linecap="round"/><line x1="864.5" y1="592.8" x2="864.5" y2="527.8" stroke="#5b6f8d" stroke-width="1.1" stroke-linecap="round"/><line x1="867.8" y1="592.8" x2="867.8" y2="527.8" stroke="#5b6f8d" stroke-width="1.1" stroke-linecap="round"/><rect x="858.0" y="434.2" width="13.0" height="65.0" rx="0" fill="#fdfdfb" stroke="none" stroke-width="1.0" opacity="1.0"/><line x1="861.2" y1="499.2" x2="861.2" y2="434.2" stroke="#5b6f8d" stroke-width="1.1" stroke-linecap="round"/><line x1="864.5" y1="499.2" x2="864.5" y2="434.2" stroke="#5b6f8d" stroke-width="1.1" stroke-linecap="round"/><line x1="867.8" y1="499.2" x2="867.8" y2="434.2" stroke="#5b6f8d" stroke-width="1.1" stroke-linecap="round"/><rect x="941.2" y="663.0" width="65.0" height="13.0" rx="0" fill="#fdfdfb" stroke="none" stroke-width="1.0" opacity="1.0"/><line x1="941.2" y1="672.8" x2="1006.2" y2="672.8" stroke="#5b6f8d" stroke-width="1.1" stroke-linecap="round"/><line x1="941.2" y1="669.5" x2="1006.2" y2="669.5" stroke="#5b6f8d" stroke-width="1.1" stroke-linecap="round"/><line x1="941.2" y1="666.2" x2="1006.2" y2="666.2" stroke="#5b6f8d" stroke-width="1.1" stroke-linecap="round"/><text x="977.6" y="605.8" font-size="13" font-weight="bold" fill="#3a3f46" text-anchor="middle" font-family="Helvetica,Arial,sans-serif">bedroom</text><text x="977.6" y="620.1" font-size="9.5" font-weight="normal" fill="#818893" text-anchor="middle" font-family="Helvetica,Arial,sans-serif">9'-8" x 11' &#183; 107 sf</text><rect x="1037.4" y="330.2" width="8.6" height="36.4" rx="0" fill="#fdfdfb" stroke="none" stroke-width="1.0" opacity="1.0"/><text x="951.6" y="351.0" font-size="8.5" font-weight="normal" fill="#8d939c" text-anchor="middle" font-family="Helvetica,Arial,sans-serif">pantry / storage 6' x 1'-8"</text><rect x="1144.0" y="429.0" width="78.0" height="169.0" rx="5" fill="#f1f2f4" stroke="#8d939c" stroke-width="1.1" opacity="1.0"/><line x1="1158.3" y1="594.1" x2="1158.3" y2="432.9" stroke="#8d939c" stroke-width="1.2" stroke-linecap="round"/><text x="1183.0" y="518.7" font-size="8.5" font-weight="normal" fill="#7d838d" text-anchor="middle" font-family="Helvetica,Arial,sans-serif">sofa</text><rect x="1237.6" y="514.8" width="93.6" height="46.8" rx="3" fill="#f1f2f4" stroke="#8d939c" stroke-width="1.1" opacity="1.0"/><text x="1284.4" y="542.9" font-size="8.5" font-weight="normal" fill="#7d838d" text-anchor="middle" font-family="Helvetica,Arial,sans-serif">coffee</text><rect x="1436.5" y="461.5" width="29.9" height="59.8" rx="3" fill="#f1f2f4" stroke="#8d939c" stroke-width="1.1" opacity="1.0"/><text x="1451.4" y="496.1" font-size="8.5" font-weight="normal" fill="#7d838d" text-anchor="middle" font-family="Helvetica,Arial,sans-serif">tv</text><rect x="1469.0" y="525.2" width="13.0" height="65.0" rx="0" fill="#fdfdfb" stroke="none" stroke-width="1.0" opacity="1.0"/><line x1="1472.2" y1="590.2" x2="1472.2" y2="525.2" stroke="#5b6f8d" stroke-width="1.1" stroke-linecap="round"/><line x1="1475.5" y1="590.2" x2="1475.5" y2="525.2" stroke="#5b6f8d" stroke-width="1.1" stroke-linecap="round"/><line x1="1478.8" y1="590.2" x2="1478.8" y2="525.2" stroke="#5b6f8d" stroke-width="1.1" stroke-linecap="round"/><rect x="1469.0" y="397.8" width="13.0" height="65.0" rx="0" fill="#fdfdfb" stroke="none" stroke-width="1.0" opacity="1.0"/><line x1="1472.2" y1="462.8" x2="1472.2" y2="397.8" stroke="#5b6f8d" stroke-width="1.1" stroke-linecap="round"/><line x1="1475.5" y1="462.8" x2="1475.5" y2="397.8" stroke="#5b6f8d" stroke-width="1.1" stroke-linecap="round"/><line x1="1478.8" y1="462.8" x2="1478.8" y2="397.8" stroke="#5b6f8d" stroke-width="1.1" stroke-linecap="round"/><rect x="1196.0" y="663.0" width="65.0" height="13.0" rx="0" fill="#fdfdfb" stroke="none" stroke-width="1.0" opacity="1.0"/><line x1="1196.0" y1="672.8" x2="1261.0" y2="672.8" stroke="#5b6f8d" stroke-width="1.1" stroke-linecap="round"/><line x1="1196.0" y1="669.5" x2="1261.0" y2="669.5" stroke="#5b6f8d" stroke-width="1.1" stroke-linecap="round"/><line x1="1196.0" y1="666.2" x2="1261.0" y2="666.2" stroke="#5b6f8d" stroke-width="1.1" stroke-linecap="round"/><rect x="1313.0" y="663.0" width="65.0" height="13.0" rx="0" fill="#fdfdfb" stroke="none" stroke-width="1.0" opacity="1.0"/><line x1="1313.0" y1="672.8" x2="1378.0" y2="672.8" stroke="#5b6f8d" stroke-width="1.1" stroke-linecap="round"/><line x1="1313.0" y1="669.5" x2="1378.0" y2="669.5" stroke="#5b6f8d" stroke-width="1.1" stroke-linecap="round"/><line x1="1313.0" y1="666.2" x2="1378.0" y2="666.2" stroke="#5b6f8d" stroke-width="1.1" stroke-linecap="round"/><text x="1263.6" y="626.6" font-size="13" font-weight="bold" fill="#3a3f46" text-anchor="middle" font-family="Helvetica,Arial,sans-serif">living</text><text x="1263.6" y="640.9" font-size="9.5" font-weight="normal" fill="#818893" text-anchor="middle" font-family="Helvetica,Arial,sans-serif">&#8776; 13' x 13' + open dining</text><line x1="858.0" y1="709.8" x2="1482.0" y2="709.8" stroke="#7a8290" stroke-width="1" stroke-linecap="round"/><line x1="858.0" y1="717.6" x2="858.0" y2="702.0" stroke="#7a8290" stroke-width="1" stroke-linecap="round"/><line x1="1482.0" y1="717.6" x2="1482.0" y2="702.0" stroke="#7a8290" stroke-width="1" stroke-linecap="round"/><text x="1170.0" y="731.9" font-size="10.5" font-weight="normal" fill="#7a8290" text-anchor="middle" font-family="Helvetica,Arial,sans-serif">24'-0"</text><line x1="824.2" y1="676.0" x2="824.2" y2="156.0" stroke="#7a8290" stroke-width="1" stroke-linecap="round"/><line x1="816.4" y1="676.0" x2="832.0" y2="676.0" stroke="#7a8290" stroke-width="1" stroke-linecap="round"/><line x1="816.4" y1="156.0" x2="832.0" y2="156.0" stroke="#7a8290" stroke-width="1" stroke-linecap="round"/><text x="809.9" y="416.0" font-size="10.5" font-weight="normal" fill="#7a8290" text-anchor="middle" font-family="Helvetica,Arial,sans-serif" transform="rotate(-90 809.9 416.0)">20'-0"</text><text x="1170.0" y="110.5" font-size="13" font-weight="bold" fill="#3a3f46" text-anchor="middle" font-family="Helvetica,Arial,sans-serif">LEVEL 2 &#8212; apartment &#183; 480 sf gross / 437 sf net</text><text x="1170.0" y="139.1" font-size="9" font-weight="normal" fill="#5c636e" text-anchor="middle" font-family="Helvetica,Arial,sans-serif">north &#8593; &#183; property line 3' &#8212; keep this wall (nearly) window-free</text><text x="1170.0" y="751.4" font-size="9" font-weight="normal" fill="#5c636e" text-anchor="middle" font-family="Helvetica,Arial,sans-serif">south &#183; shed 4' away &#183; best all-day sun</text><text x="769.6" y="416.0" font-size="9" font-weight="normal" fill="#5c636e" text-anchor="middle" font-family="Helvetica,Arial,sans-serif" transform="rotate(-90 769.6 416.0)">west &#183; alley &#183; garage door below</text><text x="1627.6" y="416.0" font-size="9" font-weight="normal" fill="#5c636e" text-anchor="middle" font-family="Helvetica,Arial,sans-serif" transform="rotate(90 1627.6 416.0)">east &#183; yard &amp; main house &#183; morning sun</text><text x="46" y="796" font-size="11.5" fill="#4a4f57" font-family="Helvetica,Arial,sans-serif">&#8226; PRO: &#8776;46 sf more apartment AND &#8776;46 sf more garage than A/B; kitchen sits on the windowless north wall where nothing else wants to be.</text><text x="46" y="813" font-size="11.5" fill="#4a4f57" font-family="Helvetica,Arial,sans-serif">&#8226; PRO: garage stays one clean 23' x 19' volume (shop + car + bigger office corner); apartment and garage are fully separate (good if you ever rent one).</text><text x="46" y="830" font-size="11.5" fill="#4a4f57" font-family="Helvetica,Arial,sans-serif">&#8226; CON: you arrive outside &#8212; groceries, rain, ice; the stair + landing add bulk to the yard-facing facade and shade the east windows below.</text><text x="46" y="847" font-size="11.5" fill="#4a4f57" font-family="Helvetica,Arial,sans-serif">&#8226; CON: harder aging-in-place story; exterior stairs need real detailing (covered, lit, guard) to not look tacked-on.</text></svg>